<svg width="92" height="102" viewBox="0 0 92 102" fill="none" xmlns="http://www.w3.org/2000/svg">
<mask id="path-1-inside-1_4_23" fill="white">
<path d="M58.8687 60.0312C50.4129 73.052 37.4258 79.625 29.861 74.7124C22.2963 69.7998 23.0187 55.2619 31.4744 42.2412C39.9302 29.2204 52.9174 22.6474 60.4821 27.56C68.0469 32.4726 67.3245 47.0105 58.8687 60.0312ZM43.7434 50.2087C42.8617 51.5664 42.7864 53.0822 43.5752 53.5945C44.3639 54.1067 45.7181 53.4213 46.5998 52.0637C47.4815 50.706 47.5568 49.1902 46.768 48.6779C45.9792 48.1657 44.6251 48.8511 43.7434 50.2087Z"/>
</mask>
<path d="M58.8687 60.0312C50.4129 73.052 37.4258 79.625 29.861 74.7124C22.2963 69.7998 23.0187 55.2619 31.4744 42.2412C39.9302 29.2204 52.9174 22.6474 60.4821 27.56C68.0469 32.4726 67.3245 47.0105 58.8687 60.0312ZM43.7434 50.2087C42.8617 51.5664 42.7864 53.0822 43.5752 53.5945C44.3639 54.1067 45.7181 53.4213 46.5998 52.0637C47.4815 50.706 47.5568 49.1902 46.768 48.6779C45.9792 48.1657 44.6251 48.8511 43.7434 50.2087Z" fill="#ECCF38" stroke="black" mask="url(#path-1-inside-1_4_23)"/>
<path d="M46.9142 70.1574L46.9138 70.1703L46.9147 70.1831C47.1 72.7392 43.6062 73.6516 42.5181 71.3312L42.3974 71.0738C41.7641 69.1008 38.8692 69.4206 38.6889 71.4934L38.4161 74.6311C38.1106 76.2299 35.8001 76.188 35.5572 74.5725L35.3614 73.2698C35.3491 73.1877 35.3429 73.1042 35.3429 73.021C35.3429 70.76 32.5434 69.6663 31.037 71.3669L30.4865 71.9884C28.6578 73.6175 25.9824 71.3364 27.3114 69.2705L29.5666 65.7648C30.5492 64.2374 28.9635 62.3597 27.2931 63.0727C25.8032 63.7088 24.6698 61.651 26.0038 60.7317L30.8485 57.3934C32.6406 56.1585 32.0337 53.3718 29.8904 52.994L29.3753 52.9031C26.9953 52.4835 27.0151 49.0615 29.3998 48.6695L32.3149 48.1903C34.5603 47.8213 35.6021 45.192 34.219 43.3852L33.6902 42.6943C32.1073 40.6264 34.5613 37.901 36.7832 39.2591L37.095 39.4497C38.8583 40.5275 41.1212 39.2584 41.1212 37.1919L41.1212 32.627C41.1212 30.9786 43.4406 30.6207 43.9375 32.1923C44.5259 34.0534 47.1841 33.9804 47.6695 32.0899L48.6836 28.1405C49.1601 26.2847 51.8922 26.6299 51.8922 28.5459L51.8922 29.8313C51.8922 31.5406 54.1033 32.2199 55.063 30.8054L55.0695 30.7958L55.0751 30.7856L56.7322 27.7753C57.5861 26.2242 59.9508 27.1857 59.4799 28.8926C59.4476 29.0098 59.4011 29.1225 59.3414 29.2284L58.7663 30.2493C57.6541 32.2236 59.8966 34.3847 61.8284 33.2003C63.5915 32.1193 65.388 34.5339 63.8459 35.912L61.1522 38.3191C59.4486 39.8414 60.6297 42.6583 62.9096 42.5104C65.0377 42.3723 65.749 45.302 63.7946 46.1551L59.8175 47.8912C57.7018 48.8148 57.5185 51.7449 59.5026 52.925C61.7453 54.2589 60.4425 57.7076 57.878 57.2255L56.721 57.0081C54.5228 56.5949 52.7056 58.7229 53.4578 60.8293L54.4292 63.5496C55.1345 65.5247 52.5652 66.9964 51.2184 65.3888C49.8143 63.7129 47.0831 64.6586 47.016 66.844L46.9142 70.1574Z" stroke="black" stroke-width="0.5"/>
<path d="M61.278 29.6901C61.9193 29.0275 62.959 29.8821 62.433 30.6395L58.1095 36.8654C57.5197 37.7147 58.1574 38.8721 59.1905 38.8272L64.4747 38.5975C65.264 38.5631 65.563 39.6151 64.8737 40.0011L57.2726 44.2578C56.521 44.6786 56.4104 45.7158 57.0563 46.2857L62.2059 50.8295C62.7496 51.3092 62.3638 52.2045 61.6417 52.1388L55.3834 51.5689C54.4383 51.4828 53.7458 52.4398 54.123 53.3106L57.3066 60.6602C57.588 61.3098 56.8955 61.9517 56.2691 61.622L51.105 58.904C50.1811 58.4178 49.1036 59.2113 49.2937 60.2378L50.8028 68.3868C50.9388 69.1214 50.0346 69.5815 49.5208 69.0392L44.4961 63.7353C43.7319 62.9287 42.374 63.4454 42.3392 64.5559L42.0494 73.8309C42.0245 74.6258 40.9422 74.8405 40.6158 74.1153L37.9148 68.1131L37.6869 68.2157L37.9148 68.1131C37.9143 68.112 37.9141 68.1107 37.9141 68.1095C37.9141 67.592 37.2313 67.4049 36.9675 67.8501L32.758 74.9536C32.3208 75.6915 31.1875 75.2361 31.3824 74.4008L33.0394 67.2995C33.2507 66.394 32.4345 65.583 31.5304 65.8L26.2382 67.0701C25.4193 67.2667 24.9482 66.1722 25.6538 65.7125L33.0227 60.9114C33.9035 60.3375 33.7255 58.9988 32.7254 58.6749L26.4525 56.6434C25.8261 56.4406 25.7464 55.5868 26.3244 55.2715L34.1105 51.0245C34.8431 50.6249 34.9859 49.6334 34.3958 49.0433L30.833 45.4805C30.3856 45.0331 30.6591 44.2668 31.2887 44.2039L38.007 43.532C38.7787 43.4549 39.2946 42.7009 39.087 41.9537L37.4885 36.1991C37.3168 35.5809 37.95 35.0466 38.5305 35.3197L43.5668 37.6897C44.4156 38.0891 45.3855 37.4461 45.348 36.5087L45.0915 30.097C45.0596 29.2976 46.1341 29.0103 46.5053 29.719L48.8516 34.1983C49.3631 35.1747 50.7962 35.0593 51.1448 34.0136L53.4938 26.9663C53.7713 26.1341 55.0071 26.3732 54.954 27.2489L54.5781 33.451C54.5079 34.6095 55.917 35.2299 56.7241 34.3959L61.278 29.6901Z" stroke="black" stroke-width="0.5"/>
</svg>
