<svg width="42" height="51" viewBox="0 0 42 51" fill="none" xmlns="http://www.w3.org/2000/svg">
<mask id="path-1-inside-1_4_16" fill="white">
<path d="M34.7049 34.3663C26.2491 47.387 13.2619 53.96 5.69715 49.0474C-1.86757 44.1348 -1.14522 29.597 7.31057 16.5762C15.7664 3.55542 28.7535 -3.01756 36.3183 1.89503C43.883 6.80762 43.1606 21.3455 34.7049 34.3663ZM19.5795 24.5437C18.6978 25.9014 18.6225 27.4173 19.4113 27.9295C20.2001 28.4417 21.5542 27.7564 22.4359 26.3987C23.3176 25.041 23.3929 23.5252 22.6041 23.013C21.8154 22.5007 20.4612 23.1861 19.5795 24.5437Z"/>
</mask>
<path d="M34.7049 34.3663C26.2491 47.387 13.2619 53.96 5.69715 49.0474C-1.86757 44.1348 -1.14522 29.597 7.31057 16.5762C15.7664 3.55542 28.7535 -3.01756 36.3183 1.89503C43.883 6.80762 43.1606 21.3455 34.7049 34.3663ZM19.5795 24.5437C18.6978 25.9014 18.6225 27.4173 19.4113 27.9295C20.2001 28.4417 21.5542 27.7564 22.4359 26.3987C23.3176 25.041 23.3929 23.5252 22.6041 23.013C21.8154 22.5007 20.4612 23.1861 19.5795 24.5437Z" fill="#ECCF38" stroke="black" mask="url(#path-1-inside-1_4_16)"/>
</svg>
