<svg width="65" height="83" viewBox="0 0 65 83" fill="none" xmlns="http://www.w3.org/2000/svg">
<mask id="path-1-inside-1_12_72" fill="white">
<path d="M41.9187 48.8218C35.8976 59.4113 26.6497 64.7569 21.2631 60.7616C15.8765 56.7663 16.3909 44.9431 22.412 34.3536C28.4331 23.7642 37.6809 18.4186 43.0676 22.4138C48.4542 26.4091 47.9398 38.2324 41.9187 48.8218ZM31.1484 40.8334C30.5205 41.9376 30.4669 43.1704 31.0286 43.587C31.5902 44.0036 32.5545 43.4462 33.1823 42.342C33.8101 41.2379 33.8638 40.0051 33.3021 39.5885C32.7404 39.1719 31.7762 39.7293 31.1484 40.8334Z"/>
</mask>
<path d="M41.9187 48.8218C35.8976 59.4113 26.6497 64.7569 21.2631 60.7616C15.8765 56.7663 16.3909 44.9431 22.412 34.3536C28.4331 23.7642 37.6809 18.4186 43.0676 22.4138C48.4542 26.4091 47.9398 38.2324 41.9187 48.8218ZM31.1484 40.8334C30.5205 41.9376 30.4669 43.1704 31.0286 43.587C31.5902 44.0036 32.5545 43.4462 33.1823 42.342C33.8101 41.2379 33.8638 40.0051 33.3021 39.5885C32.7404 39.1719 31.7762 39.7293 31.1484 40.8334Z" fill="#ECCF38" stroke="black" mask="url(#path-1-inside-1_12_72)"/>
<path d="M45.5343 29.0395L43.4213 31.1961C42.2118 32.4305 43.1914 34.7519 44.8693 34.6275C46.3079 34.5209 46.9024 36.7289 45.6088 37.3739L42.4773 38.9351C40.943 39.7001 40.8977 42.106 42.3984 43.1255C44.0128 44.2222 43.1849 46.9054 41.3535 46.5122L40.3795 46.3031C38.7362 45.9504 37.435 47.6365 37.9873 49.4029L38.7747 51.9212C39.2561 53.461 37.4897 54.4793 36.5528 53.2021C35.4987 51.7652 33.4716 52.43 33.4232 54.2284L33.3476 57.0412L33.5842 57.0633L33.3481 57.0675C33.4755 59.076 31.0166 59.6375 30.2449 57.7945C29.7779 56.1476 27.6312 56.2803 27.5022 57.9749L27.2966 60.6744C27.0944 61.8667 25.5206 61.7418 25.359 60.5139L25.2372 59.5887C25.2293 59.5286 25.2254 59.4679 25.2254 59.4075C25.2254 57.5691 23.1414 56.5919 22.0827 57.9571L21.6603 58.5018C20.4745 59.7031 18.6105 57.954 19.467 56.4333L21.1209 53.4971C21.8226 52.2513 20.5717 50.6695 19.3542 51.2631C18.3938 51.7313 17.572 50.2182 18.4231 49.5484L22.0949 46.6586C23.3781 45.6487 22.8267 43.3513 21.2236 43.0285L20.8404 42.9514C19.1812 42.6173 19.0696 39.9944 20.7015 39.6881L23.095 39.2387C24.7431 38.9293 25.4481 36.8041 24.4143 35.2616L23.9427 34.5578C22.8152 32.8756 24.514 30.821 26.1107 31.9357L26.3583 32.1085C27.6846 33.0344 29.34 32.0746 29.34 30.3796L29.34 26.344C29.34 25.1245 30.8907 24.9571 31.2185 26.1412C31.6511 27.7038 33.6345 27.7568 33.9811 26.2151L34.7618 22.7423C35.0665 21.3869 36.8923 21.7427 36.8923 23.1574L36.8923 24.1849C36.8923 25.6092 38.572 26.2521 39.2613 25.0918L39.0615 24.939L39.2716 25.0725L40.4646 22.5975C41.0062 21.4737 42.5921 22.2477 42.2922 23.4894C42.2729 23.5692 42.2453 23.6458 42.2099 23.7176L41.7806 24.5879C40.9947 26.1811 42.7229 27.9932 44.105 27.0254C45.2447 26.2273 46.5238 28.0297 45.5343 29.0395Z" stroke="black" stroke-width="0.5"/>
<path d="M42.6644 27.7412L41.5804 29.524C41.0396 30.4134 41.7025 31.6593 42.6904 31.6102L44.933 31.4989C45.6784 31.4618 46.0162 32.5689 45.383 32.9738L40.9512 35.8083C40.2777 36.2391 40.2089 37.2943 40.8147 37.9047L43.8187 40.932C44.3306 41.4479 44.0026 42.3562 43.3295 42.2862L39.7348 41.9123C38.8652 41.8219 38.2575 42.7649 38.6013 43.6714L40.5478 48.8037C40.808 49.4896 40.1759 50.1186 39.584 49.7629L36.7927 48.0849C35.9211 47.561 34.9361 48.3275 35.1092 49.395L35.9989 54.8827C36.1242 55.6555 35.278 56.0851 34.7898 55.4966L32.1092 52.2649C31.3814 51.3874 30.1071 51.8564 30.0755 53.0133L29.9121 58.9819C29.8893 59.8157 28.8619 59.9781 28.554 59.1966L27.0561 55.3949C27.0453 54.9279 26.4816 54.736 26.2741 55.1359L24.0898 59.3458C23.691 60.1144 22.5976 59.5864 22.7764 58.7115L23.4926 55.2058C23.6902 54.2386 22.862 53.3362 21.9949 53.5738L20.0095 54.1181C19.2434 54.3281 18.7391 53.1726 19.3865 52.6909L23.2218 49.8369C24.0227 49.2409 23.7977 47.8432 22.8441 47.4905L19.3539 46.1996C18.7575 45.979 18.6449 45.0897 19.1717 44.7615L24.1323 41.6711C24.7873 41.2631 24.8882 40.2589 24.3374 39.6298L22.2827 37.2831C21.8646 36.8056 22.0908 36.0326 22.668 35.9666L26.88 35.4856C27.5766 35.406 28.0231 34.6678 27.837 33.9029L26.8545 29.863C26.6975 29.2177 27.2737 28.6979 27.8202 28.9916L30.6877 30.5328C31.4872 30.9625 32.3721 30.3433 32.3383 29.3779L32.204 25.5443C32.1746 24.7041 33.1922 24.4658 33.5431 25.2308L34.4574 27.2243C34.9448 28.2871 36.3159 28.238 36.6345 27.1463L37.5722 23.9333C37.8252 23.0663 39.0069 23.3804 38.958 24.3016L38.8475 26.3852C38.7819 27.6214 40.1652 28.3419 40.9121 27.4604L41.539 26.7205C42.1232 26.0311 43.1422 26.9554 42.6644 27.7412Z" stroke="black" stroke-width="0.5"/>
</svg>
