<svg width="58" height="40" viewBox="0 0 58 40" fill="none" xmlns="http://www.w3.org/2000/svg">
<mask id="path-1-inside-1_7_100" fill="white">
<path d="M29.3639 38.1051C13.8597 38.9177 1.00201 34.0619 0.645507 27.2594C0.289005 20.457 12.5687 14.2838 28.0729 13.4712C43.5771 12.6587 56.4347 17.5145 56.7912 24.317C57.1477 31.1194 44.8681 37.2926 29.3639 38.1051ZM28.6511 24.5039C27.0344 24.5886 25.7541 25.2323 25.7912 25.9416C25.8284 26.6509 27.1691 27.1572 28.7857 27.0725C30.4023 26.9877 31.6827 26.3441 31.6455 25.6348C31.6083 24.9255 30.2677 24.4192 28.6511 24.5039Z"/>
</mask>
<path d="M29.3639 38.1051C13.8597 38.9177 1.00201 34.0619 0.645507 27.2594C0.289005 20.457 12.5687 14.2838 28.0729 13.4712C43.5771 12.6587 56.4347 17.5145 56.7912 24.317C57.1477 31.1194 44.8681 37.2926 29.3639 38.1051ZM28.6511 24.5039C27.0344 24.5886 25.7541 25.2323 25.7912 25.9416C25.8284 26.6509 27.1691 27.1572 28.7857 27.0725C30.4023 26.9877 31.6827 26.3441 31.6455 25.6348C31.6083 24.9255 30.2677 24.4192 28.6511 24.5039Z" fill="#ECCF38" stroke="black" mask="url(#path-1-inside-1_7_100)"/>
<mask id="path-2-inside-2_7_100" fill="white">
<path d="M29.3639 35.1051C13.8597 35.9177 1.00201 31.0619 0.645507 24.2594C0.289005 17.457 12.5687 11.2838 28.0729 10.4712C43.5771 9.65869 56.4347 14.5145 56.7912 21.317C57.1477 28.1194 44.8681 34.2926 29.3639 35.1051ZM28.6511 21.5039C27.0344 21.5886 25.7541 22.2323 25.7912 22.9416C25.8284 23.6509 27.1691 24.1572 28.7857 24.0725C30.4023 23.9877 31.6827 23.3441 31.6455 22.6348C31.6083 21.9255 30.2677 21.4192 28.6511 21.5039Z"/>
</mask>
<path d="M29.3639 35.1051C13.8597 35.9177 1.00201 31.0619 0.645507 24.2594C0.289005 17.457 12.5687 11.2838 28.0729 10.4712C43.5771 9.65869 56.4347 14.5145 56.7912 21.317C57.1477 28.1194 44.8681 34.2926 29.3639 35.1051ZM28.6511 21.5039C27.0344 21.5886 25.7541 22.2323 25.7912 22.9416C25.8284 23.6509 27.1691 24.1572 28.7857 24.0725C30.4023 23.9877 31.6827 23.3441 31.6455 22.6348C31.6083 21.9255 30.2677 21.4192 28.6511 21.5039Z" fill="#ECCF38" stroke="black" mask="url(#path-2-inside-2_7_100)"/>
<path d="M29.3508 31.8555C21.6249 32.2604 14.5703 31.2519 9.41262 29.304C6.83343 28.33 4.74005 27.1254 3.27353 25.7554C1.80824 24.3867 0.979974 22.8646 0.895164 21.2463C0.810354 19.6281 1.47499 18.0278 2.78917 16.5133C4.10446 14.9976 6.06045 13.5808 8.5237 12.3425C13.4495 9.86619 20.36 8.12579 28.0859 7.72089C35.8119 7.316 42.8665 8.32451 48.0241 10.2723C50.6033 11.2464 52.6967 12.451 54.1632 13.8209C55.6285 15.1897 56.4568 16.7118 56.5416 18.33C56.6264 19.9483 55.9617 21.5486 54.6476 23.063C53.3323 24.5787 51.3763 25.9956 48.913 27.2339C43.9872 29.7102 37.0767 31.4506 29.3508 31.8555ZM28.638 18.2543C27.8035 18.298 27.0438 18.4861 26.4887 18.7652C26.2115 18.9045 25.9744 19.0721 25.8062 19.2658C25.637 19.4608 25.528 19.695 25.5416 19.9547C25.5552 20.2144 25.6881 20.4359 25.8768 20.6121C26.0642 20.7872 26.3176 20.929 26.6078 21.0387C27.1891 21.2582 27.9643 21.3659 28.7988 21.3221C29.6333 21.2784 30.3929 21.0903 30.948 20.8112C31.2252 20.6718 31.4624 20.5043 31.6305 20.3106C31.7997 20.1156 31.9088 19.8814 31.8952 19.6217C31.8815 19.362 31.7486 19.1405 31.5599 18.9642C31.3725 18.7892 31.1191 18.6473 30.8289 18.5377C30.2477 18.3182 29.4725 18.2105 28.638 18.2543Z" fill="#ECCF38" stroke="black" stroke-width="0.5"/>
<path d="M29.3508 28.8555C21.6249 29.2604 14.5703 28.2519 9.41262 26.304C6.83343 25.33 4.74005 24.1254 3.27353 22.7554C1.80824 21.3867 0.979974 19.8646 0.895164 18.2463C0.810354 16.6281 1.47499 15.0278 2.78917 13.5133C4.10446 11.9976 6.06045 10.5808 8.5237 9.34247C13.4495 6.86619 20.36 5.12579 28.0859 4.72089C35.8119 4.316 42.8665 5.32451 48.0241 7.27234C50.6033 8.2464 52.6967 9.45102 54.1632 10.8209C55.6285 12.1897 56.4568 13.7118 56.5416 15.33C56.6264 16.9483 55.9617 18.5486 54.6476 20.063C53.3323 21.5787 51.3763 22.9956 48.913 24.2339C43.9872 26.7102 37.0767 28.4506 29.3508 28.8555ZM28.638 15.2543C27.8035 15.298 27.0438 15.4861 26.4887 15.7652C26.2115 15.9045 25.9744 16.0721 25.8062 16.2658C25.637 16.4608 25.528 16.695 25.5416 16.9547C25.5552 17.2144 25.6881 17.4359 25.8768 17.6121C26.0642 17.7872 26.3176 17.929 26.6078 18.0387C27.1891 18.2582 27.9643 18.3659 28.7988 18.3221C29.6333 18.2784 30.3929 18.0903 30.948 17.8112C31.2252 17.6718 31.4624 17.5043 31.6305 17.3106C31.7997 17.1156 31.9088 16.8814 31.8952 16.6217C31.8815 16.362 31.7486 16.1405 31.5599 15.9642C31.3725 15.7892 31.1191 15.6473 30.8289 15.5377C30.2477 15.3182 29.4725 15.2105 28.638 15.2543Z" fill="#ECCF38" stroke="black" stroke-width="0.5"/>
<path d="M29.3508 25.8555C21.6249 26.2604 14.5703 25.2519 9.41262 23.304C6.83343 22.33 4.74005 21.1254 3.27353 19.7554C1.80824 18.3867 0.979974 16.8646 0.895164 15.2463C0.810354 13.6281 1.47499 12.0278 2.78917 10.5133C4.10446 8.99763 6.06045 7.58079 8.5237 6.34247C13.4495 3.86619 20.36 2.12579 28.0859 1.72089C35.8119 1.316 42.8665 2.32451 48.0241 4.27234C50.6033 5.2464 52.6967 6.45102 54.1632 7.82095C55.6285 9.18971 56.4568 10.7118 56.5416 12.33C56.6264 13.9483 55.9617 15.5486 54.6476 17.063C53.3323 18.5787 51.3763 19.9956 48.913 21.2339C43.9872 23.7102 37.0767 25.4506 29.3508 25.8555ZM28.638 12.2543C27.8035 12.298 27.0438 12.4861 26.4887 12.7652C26.2115 12.9045 25.9744 13.0721 25.8062 13.2658C25.637 13.4608 25.528 13.695 25.5416 13.9547C25.5552 14.2144 25.6881 14.4359 25.8768 14.6121C26.0642 14.7872 26.3176 14.929 26.6078 15.0387C27.1891 15.2582 27.9643 15.3659 28.7988 15.3221C29.6333 15.2784 30.3929 15.0903 30.948 14.8112C31.2252 14.6718 31.4624 14.5043 31.6305 14.3106C31.7997 14.1156 31.9088 13.8814 31.8952 13.6217C31.8815 13.362 31.7486 13.1405 31.5599 12.9642C31.3725 12.7892 31.1191 12.6473 30.8289 12.5377C30.2477 12.3182 29.4725 12.2105 28.638 12.2543Z" fill="#ECCF38" stroke="black" stroke-width="0.5"/>
</svg>
