<svg width="144" height="34" viewBox="0 0 144 34" fill="none" xmlns="http://www.w3.org/2000/svg">
<rect x="0.25" y="0.25" width="143.5" height="33.5" rx="16.75" fill="#75CAEE" stroke="black" stroke-width="0.5"/>
<path d="M33.104 21.048C33.008 21.048 32.9333 21.016 32.88 20.952C32.8373 20.8773 32.816 20.792 32.816 20.696C32.8267 20.536 32.8587 20.44 32.912 20.408C32.9653 20.376 33.0667 20.36 33.216 20.36C33.5253 20.36 33.7547 20.3067 33.904 20.2C34.0533 20.0827 34.144 19.944 34.176 19.784C34.2187 19.6133 34.2453 19.3947 34.256 19.128V12.776C34.2453 12.5093 34.2187 12.296 34.176 12.136C34.144 11.9653 34.0533 11.8267 33.904 11.72C33.7547 11.6027 33.5253 11.544 33.216 11.544H33.12C33.0133 11.544 32.9387 11.528 32.896 11.496C32.8533 11.4533 32.8267 11.3573 32.816 11.208C32.816 11.112 32.8373 11.032 32.88 10.968C32.9333 10.8933 33.008 10.856 33.104 10.856C33.7867 10.888 34.416 10.904 34.992 10.904H41.216C41.8453 10.904 42.5067 10.888 43.2 10.856C43.296 10.856 43.3653 10.8933 43.408 10.968C43.4613 11.032 43.488 11.112 43.488 11.208C43.4773 11.368 43.44 11.464 43.376 11.496C43.3227 11.528 43.2213 11.544 43.072 11.544C42.7627 11.544 42.5333 11.6027 42.384 11.72C42.2347 11.8267 42.1387 11.9653 42.096 12.136C42.064 12.296 42.0427 12.5093 42.032 12.776V19.128C42.0427 19.3947 42.064 19.6133 42.096 19.784C42.1387 19.944 42.2347 20.0827 42.384 20.2C42.5333 20.3067 42.7627 20.36 43.072 20.36H43.168C43.2747 20.36 43.3493 20.3813 43.392 20.424C43.4453 20.456 43.4773 20.5467 43.488 20.696C43.488 20.792 43.4613 20.8773 43.408 20.952C43.3653 21.016 43.296 21.048 43.2 21.048C42.5173 21.016 41.8507 21 41.2 21C40.624 21 39.9893 21.016 39.296 21.048C39.2 21.048 39.1253 21.016 39.072 20.952C39.0293 20.8773 39.008 20.792 39.008 20.696C39.0187 20.536 39.0507 20.44 39.104 20.408C39.168 20.376 39.2693 20.36 39.408 20.36C39.7173 20.36 39.9467 20.3067 40.096 20.2C40.2453 20.0827 40.3413 19.944 40.384 19.784C40.4267 19.624 40.4533 19.4053 40.464 19.128V11.544H36.88C36.5387 11.5333 36.2933 11.5813 36.144 11.688C35.9947 11.7947 35.904 11.928 35.872 12.088C35.8507 12.2373 35.84 12.4667 35.84 12.776V19.128C35.8507 19.3947 35.872 19.6133 35.904 19.784C35.9467 19.944 36.0427 20.0827 36.192 20.2C36.3413 20.3067 36.5707 20.36 36.88 20.36H36.976C37.0827 20.36 37.1573 20.3813 37.2 20.424C37.2427 20.456 37.2693 20.5467 37.28 20.696C37.28 20.792 37.2533 20.8773 37.2 20.952C37.1573 21.016 37.088 21.048 36.992 21.048C36.2987 21.016 35.6373 21 35.008 21C34.432 21 33.7973 21.016 33.104 21.048ZM47.7746 21.192C47.0493 21.192 46.404 21.0213 45.8386 20.68C45.2733 20.328 44.8306 19.8693 44.5106 19.304C44.2013 18.728 44.0466 18.12 44.0466 17.48C44.0466 16.68 44.2333 15.9867 44.6066 15.4C44.98 14.8027 45.4546 14.3493 46.0306 14.04C46.6066 13.72 47.188 13.56 47.7746 13.56C48.5 13.56 49.1453 13.736 49.7106 14.088C50.276 14.4293 50.7133 14.888 51.0226 15.464C51.3426 16.0293 51.5026 16.632 51.5026 17.272C51.5026 18.072 51.3106 18.7707 50.9266 19.368C50.5533 19.9547 50.0786 20.408 49.5026 20.728C48.9266 21.0373 48.3506 21.192 47.7746 21.192ZM47.7746 20.6C48.5 20.6 49.028 20.2907 49.3586 19.672C49.7 19.0533 49.8706 18.2533 49.8706 17.272C49.8706 16.3547 49.6946 15.608 49.3426 15.032C49.0013 14.4453 48.4786 14.152 47.7746 14.152C47.0386 14.152 46.5053 14.456 46.1746 15.064C45.844 15.672 45.6786 16.4667 45.6786 17.448C45.6786 18.3653 45.8493 19.1227 46.1906 19.72C46.532 20.3067 47.06 20.6 47.7746 20.6ZM56.3003 21.192C55.2123 21.192 54.3589 20.8453 53.7403 20.152C53.1216 19.4587 52.8123 18.5307 52.8123 17.368C52.8336 16.6427 53.0096 15.9973 53.3403 15.432C53.6816 14.856 54.1349 14.408 54.7003 14.088C55.2656 13.7573 55.8896 13.5813 56.5723 13.56C57.2549 13.56 57.8416 13.688 58.3323 13.944C58.8336 14.2 59.0843 14.6267 59.0843 15.224C59.0843 15.5547 58.9829 15.848 58.7803 16.104C58.5883 16.3493 58.3269 16.472 57.9963 16.472C57.7936 16.472 57.6176 16.4187 57.4683 16.312C57.3296 16.2053 57.2603 16.1147 57.2603 16.04C57.2603 16.0293 57.3083 15.9813 57.4043 15.896C57.5003 15.8107 57.5856 15.7093 57.6603 15.592C57.7456 15.464 57.7883 15.32 57.7883 15.16C57.7883 14.8293 57.6656 14.5787 57.4203 14.408C57.1856 14.2373 56.8976 14.152 56.5563 14.152C55.7349 14.152 55.1749 14.456 54.8763 15.064C54.5883 15.6613 54.4443 16.4133 54.4443 17.32C54.4443 18.216 54.6469 18.952 55.0523 19.528C55.4576 20.104 55.9963 20.392 56.6683 20.392C57.1269 20.392 57.5163 20.296 57.8363 20.104C58.1669 19.9013 58.4656 19.5973 58.7323 19.192C58.7643 19.1387 58.8176 19.112 58.8923 19.112C58.9456 19.112 59.0043 19.128 59.0683 19.16C59.1216 19.1813 59.1643 19.2187 59.1963 19.272C59.2283 19.3253 59.2443 19.3787 59.2443 19.432C59.2443 19.464 59.2283 19.5067 59.1963 19.56C58.8443 20.0613 58.4069 20.4613 57.8843 20.76C57.3616 21.048 56.8336 21.192 56.3003 21.192ZM62.086 21.048C62.0113 21.048 61.9473 21.016 61.894 20.952C61.8513 20.888 61.83 20.8133 61.83 20.728C61.8407 20.5893 61.8673 20.5093 61.91 20.488C61.9633 20.456 62.0593 20.44 62.198 20.44C62.4753 20.44 62.6727 20.392 62.79 20.296C62.9073 20.2 62.9767 20.088 62.998 19.96C63.0193 19.832 63.03 19.6293 63.03 19.352V14.264H62.326C61.9953 14.264 61.7447 14.3333 61.574 14.472C61.4033 14.6 61.2807 14.792 61.206 15.048C61.1313 15.2933 61.0567 15.672 60.982 16.184C60.9713 16.2693 60.918 16.3333 60.822 16.376C60.726 16.4187 60.6193 16.44 60.502 16.44C60.4167 16.44 60.3367 16.4133 60.262 16.36C60.1873 16.3067 60.15 16.2373 60.15 16.152L60.198 14.12C60.198 13.8747 60.326 13.752 60.582 13.752H66.934C67.19 13.752 67.318 13.8747 67.318 14.12L67.366 16.152C67.366 16.2373 67.3287 16.3067 67.254 16.36C67.1793 16.4133 67.0993 16.44 67.014 16.44C66.8967 16.44 66.79 16.4187 66.694 16.376C66.598 16.3333 66.5447 16.2693 66.534 16.184C66.4593 15.6933 66.3793 15.32 66.294 15.064C66.2087 14.7973 66.0753 14.6 65.894 14.472C65.7127 14.3333 65.4567 14.264 65.126 14.264H64.486V19.352C64.486 19.416 64.486 19.5707 64.486 19.816C64.4967 20.0613 64.5553 20.232 64.662 20.328C64.7687 20.4133 64.9447 20.4507 65.19 20.44H65.286C65.3713 20.44 65.43 20.456 65.462 20.488C65.5047 20.52 65.5313 20.6 65.542 20.728C65.542 20.8133 65.5207 20.888 65.478 20.952C65.4353 21.016 65.3767 21.048 65.302 21.048C64.694 21.016 64.1767 21 63.75 21C63.27 21 62.7153 21.016 62.086 21.048ZM68.3896 24.328C68.315 24.328 68.251 24.296 68.1976 24.232C68.155 24.168 68.1336 24.0933 68.1336 24.008C68.1443 23.8693 68.171 23.784 68.2136 23.752C68.267 23.7307 68.363 23.72 68.5016 23.72C68.7683 23.72 68.9603 23.672 69.0776 23.576C69.195 23.48 69.2643 23.3627 69.2856 23.224C69.3176 23.0853 69.3336 22.888 69.3336 22.632V15.688C69.3336 15.4107 69.323 15.208 69.3016 15.08C69.291 14.952 69.227 14.84 69.1096 14.744C68.9923 14.648 68.795 14.6 68.5176 14.6C68.3896 14.6 68.2936 14.584 68.2296 14.552C68.1656 14.5093 68.1336 14.4187 68.1336 14.28C68.1336 14.216 68.155 14.1573 68.1976 14.104C68.2403 14.04 68.3043 14.0027 68.3896 13.992C69.083 13.8853 69.6536 13.7467 70.1016 13.576C70.283 13.5227 70.4056 13.4907 70.4696 13.48H70.5176C70.6883 13.48 70.7736 13.5813 70.7736 13.784V14.552H70.8216C71.131 14.264 71.4936 14.0293 71.9096 13.848C72.3256 13.656 72.7203 13.56 73.0936 13.56C73.7336 13.56 74.3043 13.72 74.8056 14.04C75.3176 14.36 75.7176 14.8133 76.0056 15.4C76.2936 15.976 76.4376 16.632 76.4376 17.368C76.4376 18.1147 76.267 18.7813 75.9256 19.368C75.5843 19.944 75.131 20.392 74.5656 20.712C74.0003 21.032 73.403 21.192 72.7736 21.192C72.3363 21.192 71.9683 21.144 71.6696 21.048C71.371 20.9627 71.099 20.8453 70.8536 20.696H70.7896V22.632C70.7896 22.888 70.8003 23.0853 70.8216 23.224C70.8536 23.3627 70.9283 23.48 71.0456 23.576C71.163 23.672 71.355 23.72 71.6216 23.72H71.7176C71.803 23.72 71.867 23.736 71.9096 23.768C71.9523 23.8 71.979 23.88 71.9896 24.008C71.9896 24.0933 71.9683 24.168 71.9256 24.232C71.883 24.296 71.819 24.328 71.7336 24.328C71.115 24.296 70.555 24.28 70.0536 24.28C69.5736 24.28 69.019 24.296 68.3896 24.328ZM72.6456 20.648C73.3923 20.648 73.9363 20.3173 74.2776 19.656C74.6296 18.9947 74.8056 18.248 74.8056 17.416C74.8056 16.584 74.6136 15.8693 74.2296 15.272C73.8456 14.664 73.275 14.36 72.5176 14.36C72.1443 14.36 71.8243 14.4347 71.5576 14.584C71.3016 14.7227 71.0456 14.9253 70.7896 15.192V19.48C70.9176 19.8 71.1416 20.0773 71.4616 20.312C71.7923 20.536 72.187 20.648 72.6456 20.648ZM81.4934 21.192C80.768 21.192 80.1227 21.0213 79.5574 20.68C78.992 20.328 78.5494 19.8693 78.2294 19.304C77.92 18.728 77.7654 18.12 77.7654 17.48C77.7654 16.68 77.952 15.9867 78.3254 15.4C78.6987 14.8027 79.1734 14.3493 79.7494 14.04C80.3254 13.72 80.9067 13.56 81.4934 13.56C82.2187 13.56 82.864 13.736 83.4294 14.088C83.9947 14.4293 84.432 14.888 84.7414 15.464C85.0614 16.0293 85.2214 16.632 85.2214 17.272C85.2214 18.072 85.0294 18.7707 84.6454 19.368C84.272 19.9547 83.7974 20.408 83.2214 20.728C82.6454 21.0373 82.0694 21.192 81.4934 21.192ZM81.4934 20.6C82.2187 20.6 82.7467 20.2907 83.0774 19.672C83.4187 19.0533 83.5894 18.2533 83.5894 17.272C83.5894 16.3547 83.4134 15.608 83.0614 15.032C82.72 14.4453 82.1974 14.152 81.4934 14.152C80.7574 14.152 80.224 14.456 79.8934 15.064C79.5627 15.672 79.3974 16.4667 79.3974 17.448C79.3974 18.3653 79.568 19.1227 79.9094 19.72C80.2507 20.3067 80.7787 20.6 81.4934 20.6ZM86.6133 21.048C86.5279 21.048 86.4639 21.016 86.4213 20.952C86.3786 20.888 86.3573 20.8133 86.3573 20.728C86.3679 20.5893 86.3946 20.5093 86.4373 20.488C86.4906 20.456 86.5866 20.44 86.7253 20.44C87.0026 20.44 87.1999 20.392 87.3173 20.296C87.4346 20.2 87.4986 20.0933 87.5093 19.976C87.5306 19.848 87.5413 19.64 87.5413 19.352V15.4C87.5413 15.3573 87.5413 15.224 87.5413 15C87.5413 14.7653 87.4719 14.5947 87.3333 14.488C87.2053 14.3707 87.0026 14.312 86.7253 14.312H86.6293C86.5333 14.312 86.4639 14.296 86.4213 14.264C86.3893 14.232 86.3679 14.152 86.3573 14.024C86.3573 13.9387 86.3786 13.864 86.4213 13.8C86.4639 13.736 86.5279 13.704 86.6133 13.704C87.2213 13.736 87.7759 13.752 88.2773 13.752C88.6933 13.752 89.2053 13.736 89.8133 13.704C89.8986 13.704 89.9626 13.736 90.0052 13.8C90.0479 13.864 90.0693 13.9387 90.0693 14.024C90.0586 14.1627 90.0266 14.248 89.9733 14.28C89.9306 14.3013 89.8453 14.312 89.7173 14.312C89.4719 14.3013 89.3013 14.3387 89.2053 14.424C89.1093 14.4987 89.0559 14.5893 89.0453 14.696C89.0346 14.8027 89.0239 15.0373 89.0133 15.4V19.16L92.0533 15.016C92.4373 14.536 92.7733 14.2107 93.0613 14.04C93.3599 13.8693 93.6586 13.768 93.9573 13.736L94.6613 13.704C94.7466 13.704 94.8106 13.736 94.8533 13.8C94.8959 13.864 94.9173 13.9387 94.9173 14.024C94.9066 14.1627 94.8746 14.248 94.8212 14.28C94.7786 14.3013 94.6879 14.312 94.5493 14.312C94.2719 14.312 94.0746 14.36 93.9573 14.456C93.8399 14.552 93.7706 14.664 93.7493 14.792C93.7279 14.92 93.7173 15.1227 93.7173 15.4V19.352C93.7173 19.6293 93.7279 19.832 93.7493 19.96C93.7706 20.088 93.8399 20.2 93.9573 20.296C94.0746 20.392 94.2719 20.44 94.5493 20.44H94.6453C94.7306 20.44 94.7946 20.456 94.8373 20.488C94.8799 20.52 94.9066 20.6 94.9173 20.728C94.9173 20.8133 94.8959 20.888 94.8533 20.952C94.8106 21.016 94.7466 21.048 94.6613 21.048C94.0426 21.016 93.4879 21 92.9973 21C92.5706 21 92.0533 21.016 91.4453 21.048C91.3706 21.048 91.3119 21.016 91.2693 20.952C91.2266 20.888 91.2053 20.8133 91.2053 20.728C91.2159 20.5893 91.2426 20.5093 91.2853 20.488C91.3386 20.456 91.4293 20.44 91.5573 20.44C91.8026 20.4507 91.9733 20.4187 92.0693 20.344C92.1653 20.2587 92.2186 20.1627 92.2293 20.056C92.2399 19.9493 92.2506 19.7147 92.2613 19.352V15.8L89.2053 19.912C88.9173 20.2747 88.6133 20.5467 88.2933 20.728C87.9733 20.8987 87.6746 20.9947 87.3973 21.016C87.0559 21.0373 86.7946 21.048 86.6133 21.048ZM97.836 21.048C97.7613 21.048 97.6973 21.016 97.644 20.952C97.6013 20.888 97.58 20.8133 97.58 20.728C97.5907 20.5893 97.6173 20.5093 97.66 20.488C97.7133 20.456 97.8093 20.44 97.948 20.44C98.2253 20.44 98.4227 20.392 98.54 20.296C98.6573 20.2 98.7267 20.088 98.748 19.96C98.7693 19.832 98.78 19.6293 98.78 19.352V14.264H98.076C97.7453 14.264 97.4947 14.3333 97.324 14.472C97.1533 14.6 97.0307 14.792 96.956 15.048C96.8813 15.2933 96.8067 15.672 96.732 16.184C96.7213 16.2693 96.668 16.3333 96.572 16.376C96.476 16.4187 96.3693 16.44 96.252 16.44C96.1667 16.44 96.0867 16.4133 96.012 16.36C95.9373 16.3067 95.9 16.2373 95.9 16.152L95.948 14.12C95.948 13.8747 96.076 13.752 96.332 13.752H102.684C102.94 13.752 103.068 13.8747 103.068 14.12L103.116 16.152C103.116 16.2373 103.079 16.3067 103.004 16.36C102.929 16.4133 102.849 16.44 102.764 16.44C102.647 16.44 102.54 16.4187 102.444 16.376C102.348 16.3333 102.295 16.2693 102.284 16.184C102.209 15.6933 102.129 15.32 102.044 15.064C101.959 14.7973 101.825 14.6 101.644 14.472C101.463 14.3333 101.207 14.264 100.876 14.264H100.236V19.352C100.236 19.416 100.236 19.5707 100.236 19.816C100.247 20.0613 100.305 20.232 100.412 20.328C100.519 20.4133 100.695 20.4507 100.94 20.44H101.036C101.121 20.44 101.18 20.456 101.212 20.488C101.255 20.52 101.281 20.6 101.292 20.728C101.292 20.8133 101.271 20.888 101.228 20.952C101.185 21.016 101.127 21.048 101.052 21.048C100.444 21.016 99.9267 21 99.5 21C99.02 21 98.4653 21.016 97.836 21.048ZM104.348 21.048C104.262 21.048 104.198 21.016 104.156 20.952C104.113 20.888 104.092 20.8133 104.092 20.728C104.102 20.5893 104.129 20.5093 104.172 20.488C104.225 20.456 104.321 20.44 104.46 20.44C104.737 20.44 104.934 20.392 105.052 20.296C105.169 20.2 105.233 20.0933 105.244 19.976C105.265 19.848 105.276 19.64 105.276 19.352V15.4C105.276 15.3573 105.276 15.224 105.276 15C105.276 14.7653 105.206 14.5947 105.068 14.488C104.94 14.3707 104.737 14.312 104.46 14.312H104.364C104.268 14.312 104.198 14.296 104.156 14.264C104.124 14.232 104.102 14.152 104.092 14.024C104.092 13.9387 104.113 13.864 104.156 13.8C104.198 13.736 104.262 13.704 104.348 13.704C104.956 13.736 105.505 13.752 105.996 13.752C106.422 13.752 106.94 13.736 107.548 13.704C107.633 13.704 107.697 13.736 107.74 13.8C107.782 13.864 107.804 13.9387 107.804 14.024C107.793 14.1627 107.761 14.248 107.708 14.28C107.665 14.3013 107.58 14.312 107.452 14.312C107.132 14.3013 106.934 14.36 106.86 14.488C106.785 14.6053 106.748 14.7707 106.748 14.984C106.748 15.1867 106.748 15.3253 106.748 15.4V16.328L107.1 16.312C107.26 16.3013 107.548 16.296 107.964 16.296C109.062 16.296 109.91 16.488 110.508 16.872C111.105 17.2453 111.404 17.8213 111.404 18.6C111.404 19.3893 111.094 19.9867 110.476 20.392C109.868 20.7973 109.137 21 108.284 21H105.996C105.505 21 104.956 21.016 104.348 21.048ZM107.9 20.552C108.476 20.552 108.929 20.376 109.26 20.024C109.59 19.6613 109.756 19.224 109.756 18.712C109.756 18.1893 109.585 17.7413 109.244 17.368C108.902 16.984 108.417 16.792 107.788 16.792C107.574 16.792 107.366 16.8027 107.164 16.824C106.961 16.8347 106.822 16.84 106.748 16.84V19.864C106.748 20.0987 106.833 20.2747 107.004 20.392C107.185 20.4987 107.484 20.552 107.9 20.552Z" fill="black"/>
</svg>
