<svg width="52" height="57" viewBox="0 0 52 57" fill="none" xmlns="http://www.w3.org/2000/svg">
<mask id="path-1-inside-1_9_160" fill="white">
<path fill-rule="evenodd" clip-rule="evenodd" d="M0 3.46982C16.697 -1.11366 34.3148 -1.15696 51.0341 3.34439L51.5 3.46982L43.6176 36.9698H40.2647L40.8824 33.4698H44V32.9698H40.9706L41.5882 29.4698H45V28.9698H41.6765L42.2941 25.4698H46V24.9698H42.3824L43 21.4698H47V20.9698H43.0882L43.7059 17.4698H48V16.9698H43.7941L44.4118 13.4698H49V12.9698H44.5L45.1176 9.46982H50V8.96982H45.2059L45.9762 4.60497C47.6586 4.49065 49.3404 4.36197 51.0212 4.21892L50.9788 3.72072C46.3216 4.11708 41.6572 4.40297 36.9896 4.57838L37 4.46982L36.5023 4.42197L36.4855 4.5969C32.9915 4.72224 29.4958 4.78568 26 4.78721V4.46982H25.5V4.787C21.669 4.78221 17.8381 4.70306 14.0092 4.54956L14 4.46982L13.5033 4.52713L13.5035 4.52885C10.333 4.39631 7.16411 4.21278 3.99795 3.97825L0.518467 3.72051L0.481531 4.21914L3.96101 4.47688C4.47847 4.51521 4.99601 4.55218 5.51361 4.58779L6.37283 8.96982H1.29412L0 3.46982ZM1.41176 9.46982L1.29412 8.96982H1V9.46982H1.41176ZM6.47087 9.46982H1.41176L2.23529 12.9698H2V13.4698H2.35294L3.17647 16.9698H3V17.4698H3.29412L4.11765 20.9698H4V21.4698H4.23529L5.05882 24.9698H5V25.4698H5.17647L6 28.9698V29.4698H6.11765L7 33.2198V33.4698H7.05882L8 37.4698L12 54.4698C13.1526 54.854 14.3174 55.1886 15.4912 55.4736L15.5093 55.566L15.7113 55.5264C16.9558 55.8217 18.2102 56.0613 19.4708 56.2452L19.5033 56.5271L20 56.4698L19.9823 56.3167C23.8078 56.8284 27.6857 56.8285 31.5125 56.3163L31.5023 56.422L32 56.4698L32.0216 56.2451C33.5299 56.0251 35.0296 55.7252 36.5142 55.3456L36.5076 55.3829L37 55.4698L37.0466 55.2058C37.717 55.0253 38.3842 54.8285 39.0476 54.6152L39.5 54.4698L39.7353 53.4698H40V52.9698H39.8529L40.6765 49.4698H41V48.9698H40.7941L41.6176 45.4698H42V44.9698H41.7353L42.5588 41.4698H43V40.9698H42.6765L43.5 37.4698H44V36.9698H43.6176L43.5 37.4698H40.1765L40.2647 36.9698H39.757L40.3746 33.4698H40.8824L40.9706 32.9698H40.4629L41.0805 29.4698H41.5882L41.6765 28.9698H41.1687L41.7864 25.4698H42.2941L42.3824 24.9698H41.8746L42.4923 21.4698H43L43.0882 20.9698H42.5805L43.1982 17.4698H43.7059L43.7941 16.9698H43.2864L43.904 13.4698H44.4118L44.5 12.9698H43.9923L44.6099 9.46982H45.1176L45.2059 8.96982H44.6982L45.4623 4.63944C45.6336 4.6281 45.8049 4.61661 45.9762 4.60497L46 4.46982L45.5076 4.38293L45.4623 4.63944C42.6238 4.82735 39.7831 4.97439 36.9413 5.08054L36.9896 4.57838C36.8215 4.5847 36.6535 4.59087 36.4855 4.5969L36.4372 5.09894C32.9593 5.22293 29.4797 5.28569 26 5.28721V4.78721C25.8333 4.78728 25.6667 4.78721 25.5 4.787V5.287C21.6884 5.28224 17.8768 5.204 14.0672 5.05227L14.0092 4.54956C13.8406 4.5428 13.6721 4.53589 13.5035 4.52885L13.5615 5.0317C11.0499 4.92737 8.53915 4.79109 6.03001 4.62287L6 4.46983L5.50934 4.56603L5.51361 4.58779C5.68574 4.59963 5.85787 4.61132 6.03001 4.62287L6.88235 8.96982H6.37283L6.47087 9.46982ZM6.98039 9.46982H6.47087L7.15715 12.9698H2.23529L2.35294 13.4698H7.25518L7.94146 16.9698H3.17647L3.29412 17.4698H8.0395L8.72577 20.9698H4.11765L4.23529 21.4698H8.82381L9.51009 24.9698H5.05882L5.17647 25.4698H9.60813L10.2944 28.9698H6L6.11765 29.4698H10.3924L11.0787 32.9698H7V33.2198L7.05882 33.4698H11.1768L11.863 36.9698H8V37.4698H11.9611L12.6473 40.9698H9V41.4698H12.7454L13.4317 44.9698H10V45.4698H13.5297L14.216 48.9698H11V49.4698H14.314L15.0003 52.9698H12V53.4698H15.0983L15.4912 55.4736C15.5645 55.4914 15.6379 55.509 15.7113 55.5264L16 55.4698L15.6078 53.4698H19.1505L19.4708 56.2452C19.6412 56.2701 19.8117 56.2939 19.9823 56.3167L19.6538 53.4698H25.5V56.4794H26V53.4698H31.7862L31.5125 56.3163C31.6823 56.2936 31.852 56.2699 32.0216 56.2451L32.2885 53.4698H36.8452L36.5142 55.3456C36.6919 55.3001 36.8693 55.2536 37.0466 55.2058L37.3529 53.4698H39.7353L39.8529 52.9698H37.4412L38.0588 49.4698H40.6765L40.7941 48.9698H38.1471L38.7647 45.4698H41.6176L41.7353 44.9698H38.8529L39.4706 41.4698H42.5588L42.6765 40.9698H39.5588L40.1765 37.4698H39.6687L39.757 36.9698H33.875L34.2115 33.4698H40.3746L40.4629 32.9698H34.2596L34.5962 29.4698H41.0805L41.1687 28.9698H34.6442L34.9808 25.4698H41.7864L41.8746 24.9698H35.0288L35.3654 21.4698H42.4923L42.5805 20.9698H35.4135L35.75 17.4698H43.1982L43.2864 16.9698H35.7981L36.1346 13.4698H43.904L43.9923 12.9698H36.1827L36.5192 9.46982H44.6099L44.6982 8.96982H36.5673L36.9413 5.08054C36.7733 5.08682 36.6052 5.09295 36.4372 5.09894L36.065 8.96982H26V5.28721C25.8333 5.28728 25.6667 5.28721 25.5 5.287V8.96982H14.5192L14.0672 5.05227C13.8986 5.04556 13.7301 5.0387 13.5615 5.0317L14.0159 8.96982H6.88235L6.98039 9.46982ZM14.0736 9.46982H6.98039L7.66667 12.9698H7.15715L7.25518 13.4698H7.76471L8.45098 16.9698H7.94146L8.0395 17.4698H8.54902L9.23529 20.9698H8.72577L8.82381 21.4698H9.33333L10.0196 24.9698H9.51009L9.60813 25.4698H10.1176L10.8039 28.9698H10.2944L10.3924 29.4698H10.902L11.5882 32.9698H11.0787L11.1768 33.4698H11.6863L12.3725 36.9698H11.863L11.9611 37.4698H12.4706L13.1569 40.9698H12.6473L12.7454 41.4698H13.2549L13.9412 44.9698H13.4317L13.5297 45.4698H14.0392L14.7255 48.9698H14.216L14.314 49.4698H14.8235L15.5098 52.9698H15.0003L15.0983 53.4698H15.6078L15.5098 52.9698H19.0928L19.1505 53.4698H19.6538L19.5962 52.9698H25.5V53.4698H26V52.9698H31.8342L31.7862 53.4698H32.2885L32.3365 52.9698H36.9334L36.8452 53.4698H37.3529L37.4412 52.9698H36.9334L37.5511 49.4698H38.0588L38.1471 48.9698H37.6393L38.257 45.4698H38.7647L38.8529 44.9698H38.3452L38.9629 41.4698H39.4706L39.5588 40.9698H39.0511L39.6687 37.4698H33.8269L33.875 36.9698H33.3727L33.7092 33.4698H34.2115L34.2596 32.9698H33.7573L34.0938 29.4698H34.5962L34.6442 28.9698H34.1419L34.4785 25.4698H34.9808L35.0288 24.9698H34.5265L34.8631 21.4698H35.3654L35.4135 20.9698H34.9112L35.2477 17.4698H35.75L35.7981 16.9698H35.2958L35.6323 13.4698H36.1346L36.1827 12.9698H35.6804L36.0169 9.46982H36.5192L36.5673 8.96982H36.065L36.0169 9.46982H26V8.96982H25.5V9.46982H14.5769L14.5192 8.96982H14.0159L14.0736 9.46982ZM14.4775 12.9698H7.66667L7.76471 13.4698H14.5351L14.939 16.9698H8.45098L8.54902 17.4698H14.9967L15.4005 20.9698H9.23529L9.33333 21.4698H15.4582L15.8621 24.9698H10.0196L10.1176 25.4698H15.9198L16.3236 28.9698H10.8039L10.902 29.4698H16.3813L16.7851 32.9698H11.5882L11.6863 33.4698H16.8428L17.2467 36.9698H12.3725L12.4706 37.4698H17.3044L17.7082 40.9698H13.1569L13.2549 41.4698H17.7659L18.1698 44.9698H13.9412L14.0392 45.4698H18.2275L18.6313 48.9698H14.7255L14.8235 49.4698H18.689L19.0928 52.9698H19.5962L19.1923 49.4698H25.5V52.9698H26V49.4698H32.1708L31.8342 52.9698H32.3365L32.6731 49.4698H37.5511L37.6393 48.9698H32.7212L33.0577 45.4698H38.257L38.3452 44.9698H33.1058L33.4423 41.4698H38.9629L39.0511 40.9698H33.4904L33.8269 37.4698H33.3246L33.3727 36.9698H26V33.4698H33.7092L33.7573 32.9698H26V29.4698H34.0938L34.1419 28.9698H26V25.4698H34.4785L34.5265 24.9698H26V21.4698H34.8631L34.9112 20.9698H26V17.4698H35.2477L35.2958 16.9698H26V13.4698H35.6323L35.6804 12.9698H26V9.46982H25.5V12.9698H14.9808L14.5769 9.46982H14.0736L14.4775 12.9698ZM15.0385 13.4698L14.9808 12.9698H14.4775L14.5351 13.4698H15.0385ZM15.4423 16.9698H14.939L14.9967 17.4698H15.5L15.9038 20.9698H15.4005L15.4582 21.4698H15.9615L16.3654 24.9698H15.8621L15.9198 25.4698H16.4231L16.8269 28.9698H16.3236L16.3813 29.4698H16.8846L17.2885 32.9698H16.7851L16.8428 33.4698H17.3462L17.75 36.9698H17.2467L17.3044 37.4698H17.8077L18.2115 40.9698H17.7082L17.7659 41.4698H18.2692L18.6731 44.9698H18.1698L18.2275 45.4698H18.7308L19.1346 48.9698H18.6313L18.689 49.4698H19.1923L19.1346 48.9698H25.5V49.4698H26V48.9698H32.2188L32.1708 49.4698H32.6731L32.7212 48.9698H32.2188L32.5554 45.4698H33.0577L33.1058 44.9698H32.6035L32.94 41.4698H33.4423L33.4904 40.9698H32.9881L33.3246 37.4698H26V36.9698H25.5V33.4698H26V32.9698H25.5V29.4698H26V28.9698H25.5V25.4698H26V24.9698H25.5V21.4698H26V20.9698H25.5V17.4698H26V16.9698H25.5V13.4698H26V12.9698H25.5V13.4698H15.0385L15.4423 16.9698ZM15.4423 16.9698H25.5V17.4698H15.5L15.4423 16.9698ZM25.5 20.9698H15.9038L15.9615 21.4698H25.5V20.9698ZM25.5 24.9698H16.3654L16.4231 25.4698H25.5V24.9698ZM25.5 28.9698H16.8269L16.8846 29.4698H25.5V28.9698ZM25.5 32.9698H17.2885L17.3462 33.4698H25.5V32.9698ZM25.5 37.4698H26V40.9698H25.5V37.4698ZM25.5 41.4698H18.2692L18.2115 40.9698H25.5V41.4698ZM25.5 44.9698H18.6731L18.7308 45.4698H25.5V48.9698H26V45.4698H32.5554L32.6035 44.9698H26V41.4698H32.94L32.9881 40.9698H26V41.4698H25.5V44.9698ZM26 44.9698H25.5V45.4698H26V44.9698ZM25.5 37.4698H17.8077L17.75 36.9698H25.5V37.4698Z"/>
</mask>
<path fill-rule="evenodd" clip-rule="evenodd" d="M0 3.46982C16.697 -1.11366 34.3148 -1.15696 51.0341 3.34439L51.5 3.46982L43.6176 36.9698H40.2647L40.8824 33.4698H44V32.9698H40.9706L41.5882 29.4698H45V28.9698H41.6765L42.2941 25.4698H46V24.9698H42.3824L43 21.4698H47V20.9698H43.0882L43.7059 17.4698H48V16.9698H43.7941L44.4118 13.4698H49V12.9698H44.5L45.1176 9.46982H50V8.96982H45.2059L45.9762 4.60497C47.6586 4.49065 49.3404 4.36197 51.0212 4.21892L50.9788 3.72072C46.3216 4.11708 41.6572 4.40297 36.9896 4.57838L37 4.46982L36.5023 4.42197L36.4855 4.5969C32.9915 4.72224 29.4958 4.78568 26 4.78721V4.46982H25.5V4.787C21.669 4.78221 17.8381 4.70306 14.0092 4.54956L14 4.46982L13.5033 4.52713L13.5035 4.52885C10.333 4.39631 7.16411 4.21278 3.99795 3.97825L0.518467 3.72051L0.481531 4.21914L3.96101 4.47688C4.47847 4.51521 4.99601 4.55218 5.51361 4.58779L6.37283 8.96982H1.29412L0 3.46982ZM1.41176 9.46982L1.29412 8.96982H1V9.46982H1.41176ZM6.47087 9.46982H1.41176L2.23529 12.9698H2V13.4698H2.35294L3.17647 16.9698H3V17.4698H3.29412L4.11765 20.9698H4V21.4698H4.23529L5.05882 24.9698H5V25.4698H5.17647L6 28.9698V29.4698H6.11765L7 33.2198V33.4698H7.05882L8 37.4698L12 54.4698C13.1526 54.854 14.3174 55.1886 15.4912 55.4736L15.5093 55.566L15.7113 55.5264C16.9558 55.8217 18.2102 56.0613 19.4708 56.2452L19.5033 56.5271L20 56.4698L19.9823 56.3167C23.8078 56.8284 27.6857 56.8285 31.5125 56.3163L31.5023 56.422L32 56.4698L32.0216 56.2451C33.5299 56.0251 35.0296 55.7252 36.5142 55.3456L36.5076 55.3829L37 55.4698L37.0466 55.2058C37.717 55.0253 38.3842 54.8285 39.0476 54.6152L39.5 54.4698L39.7353 53.4698H40V52.9698H39.8529L40.6765 49.4698H41V48.9698H40.7941L41.6176 45.4698H42V44.9698H41.7353L42.5588 41.4698H43V40.9698H42.6765L43.5 37.4698H44V36.9698H43.6176L43.5 37.4698H40.1765L40.2647 36.9698H39.757L40.3746 33.4698H40.8824L40.9706 32.9698H40.4629L41.0805 29.4698H41.5882L41.6765 28.9698H41.1687L41.7864 25.4698H42.2941L42.3824 24.9698H41.8746L42.4923 21.4698H43L43.0882 20.9698H42.5805L43.1982 17.4698H43.7059L43.7941 16.9698H43.2864L43.904 13.4698H44.4118L44.5 12.9698H43.9923L44.6099 9.46982H45.1176L45.2059 8.96982H44.6982L45.4623 4.63944C45.6336 4.6281 45.8049 4.61661 45.9762 4.60497L46 4.46982L45.5076 4.38293L45.4623 4.63944C42.6238 4.82735 39.7831 4.97439 36.9413 5.08054L36.9896 4.57838C36.8215 4.5847 36.6535 4.59087 36.4855 4.5969L36.4372 5.09894C32.9593 5.22293 29.4797 5.28569 26 5.28721V4.78721C25.8333 4.78728 25.6667 4.78721 25.5 4.787V5.287C21.6884 5.28224 17.8768 5.204 14.0672 5.05227L14.0092 4.54956C13.8406 4.5428 13.6721 4.53589 13.5035 4.52885L13.5615 5.0317C11.0499 4.92737 8.53915 4.79109 6.03001 4.62287L6 4.46983L5.50934 4.56603L5.51361 4.58779C5.68574 4.59963 5.85787 4.61132 6.03001 4.62287L6.88235 8.96982H6.37283L6.47087 9.46982ZM6.98039 9.46982H6.47087L7.15715 12.9698H2.23529L2.35294 13.4698H7.25518L7.94146 16.9698H3.17647L3.29412 17.4698H8.0395L8.72577 20.9698H4.11765L4.23529 21.4698H8.82381L9.51009 24.9698H5.05882L5.17647 25.4698H9.60813L10.2944 28.9698H6L6.11765 29.4698H10.3924L11.0787 32.9698H7V33.2198L7.05882 33.4698H11.1768L11.863 36.9698H8V37.4698H11.9611L12.6473 40.9698H9V41.4698H12.7454L13.4317 44.9698H10V45.4698H13.5297L14.216 48.9698H11V49.4698H14.314L15.0003 52.9698H12V53.4698H15.0983L15.4912 55.4736C15.5645 55.4914 15.6379 55.509 15.7113 55.5264L16 55.4698L15.6078 53.4698H19.1505L19.4708 56.2452C19.6412 56.2701 19.8117 56.2939 19.9823 56.3167L19.6538 53.4698H25.5V56.4794H26V53.4698H31.7862L31.5125 56.3163C31.6823 56.2936 31.852 56.2699 32.0216 56.2451L32.2885 53.4698H36.8452L36.5142 55.3456C36.6919 55.3001 36.8693 55.2536 37.0466 55.2058L37.3529 53.4698H39.7353L39.8529 52.9698H37.4412L38.0588 49.4698H40.6765L40.7941 48.9698H38.1471L38.7647 45.4698H41.6176L41.7353 44.9698H38.8529L39.4706 41.4698H42.5588L42.6765 40.9698H39.5588L40.1765 37.4698H39.6687L39.757 36.9698H33.875L34.2115 33.4698H40.3746L40.4629 32.9698H34.2596L34.5962 29.4698H41.0805L41.1687 28.9698H34.6442L34.9808 25.4698H41.7864L41.8746 24.9698H35.0288L35.3654 21.4698H42.4923L42.5805 20.9698H35.4135L35.75 17.4698H43.1982L43.2864 16.9698H35.7981L36.1346 13.4698H43.904L43.9923 12.9698H36.1827L36.5192 9.46982H44.6099L44.6982 8.96982H36.5673L36.9413 5.08054C36.7733 5.08682 36.6052 5.09295 36.4372 5.09894L36.065 8.96982H26V5.28721C25.8333 5.28728 25.6667 5.28721 25.5 5.287V8.96982H14.5192L14.0672 5.05227C13.8986 5.04556 13.7301 5.0387 13.5615 5.0317L14.0159 8.96982H6.88235L6.98039 9.46982ZM14.0736 9.46982H6.98039L7.66667 12.9698H7.15715L7.25518 13.4698H7.76471L8.45098 16.9698H7.94146L8.0395 17.4698H8.54902L9.23529 20.9698H8.72577L8.82381 21.4698H9.33333L10.0196 24.9698H9.51009L9.60813 25.4698H10.1176L10.8039 28.9698H10.2944L10.3924 29.4698H10.902L11.5882 32.9698H11.0787L11.1768 33.4698H11.6863L12.3725 36.9698H11.863L11.9611 37.4698H12.4706L13.1569 40.9698H12.6473L12.7454 41.4698H13.2549L13.9412 44.9698H13.4317L13.5297 45.4698H14.0392L14.7255 48.9698H14.216L14.314 49.4698H14.8235L15.5098 52.9698H15.0003L15.0983 53.4698H15.6078L15.5098 52.9698H19.0928L19.1505 53.4698H19.6538L19.5962 52.9698H25.5V53.4698H26V52.9698H31.8342L31.7862 53.4698H32.2885L32.3365 52.9698H36.9334L36.8452 53.4698H37.3529L37.4412 52.9698H36.9334L37.5511 49.4698H38.0588L38.1471 48.9698H37.6393L38.257 45.4698H38.7647L38.8529 44.9698H38.3452L38.9629 41.4698H39.4706L39.5588 40.9698H39.0511L39.6687 37.4698H33.8269L33.875 36.9698H33.3727L33.7092 33.4698H34.2115L34.2596 32.9698H33.7573L34.0938 29.4698H34.5962L34.6442 28.9698H34.1419L34.4785 25.4698H34.9808L35.0288 24.9698H34.5265L34.8631 21.4698H35.3654L35.4135 20.9698H34.9112L35.2477 17.4698H35.75L35.7981 16.9698H35.2958L35.6323 13.4698H36.1346L36.1827 12.9698H35.6804L36.0169 9.46982H36.5192L36.5673 8.96982H36.065L36.0169 9.46982H26V8.96982H25.5V9.46982H14.5769L14.5192 8.96982H14.0159L14.0736 9.46982ZM14.4775 12.9698H7.66667L7.76471 13.4698H14.5351L14.939 16.9698H8.45098L8.54902 17.4698H14.9967L15.4005 20.9698H9.23529L9.33333 21.4698H15.4582L15.8621 24.9698H10.0196L10.1176 25.4698H15.9198L16.3236 28.9698H10.8039L10.902 29.4698H16.3813L16.7851 32.9698H11.5882L11.6863 33.4698H16.8428L17.2467 36.9698H12.3725L12.4706 37.4698H17.3044L17.7082 40.9698H13.1569L13.2549 41.4698H17.7659L18.1698 44.9698H13.9412L14.0392 45.4698H18.2275L18.6313 48.9698H14.7255L14.8235 49.4698H18.689L19.0928 52.9698H19.5962L19.1923 49.4698H25.5V52.9698H26V49.4698H32.1708L31.8342 52.9698H32.3365L32.6731 49.4698H37.5511L37.6393 48.9698H32.7212L33.0577 45.4698H38.257L38.3452 44.9698H33.1058L33.4423 41.4698H38.9629L39.0511 40.9698H33.4904L33.8269 37.4698H33.3246L33.3727 36.9698H26V33.4698H33.7092L33.7573 32.9698H26V29.4698H34.0938L34.1419 28.9698H26V25.4698H34.4785L34.5265 24.9698H26V21.4698H34.8631L34.9112 20.9698H26V17.4698H35.2477L35.2958 16.9698H26V13.4698H35.6323L35.6804 12.9698H26V9.46982H25.5V12.9698H14.9808L14.5769 9.46982H14.0736L14.4775 12.9698ZM15.0385 13.4698L14.9808 12.9698H14.4775L14.5351 13.4698H15.0385ZM15.4423 16.9698H14.939L14.9967 17.4698H15.5L15.9038 20.9698H15.4005L15.4582 21.4698H15.9615L16.3654 24.9698H15.8621L15.9198 25.4698H16.4231L16.8269 28.9698H16.3236L16.3813 29.4698H16.8846L17.2885 32.9698H16.7851L16.8428 33.4698H17.3462L17.75 36.9698H17.2467L17.3044 37.4698H17.8077L18.2115 40.9698H17.7082L17.7659 41.4698H18.2692L18.6731 44.9698H18.1698L18.2275 45.4698H18.7308L19.1346 48.9698H18.6313L18.689 49.4698H19.1923L19.1346 48.9698H25.5V49.4698H26V48.9698H32.2188L32.1708 49.4698H32.6731L32.7212 48.9698H32.2188L32.5554 45.4698H33.0577L33.1058 44.9698H32.6035L32.94 41.4698H33.4423L33.4904 40.9698H32.9881L33.3246 37.4698H26V36.9698H25.5V33.4698H26V32.9698H25.5V29.4698H26V28.9698H25.5V25.4698H26V24.9698H25.5V21.4698H26V20.9698H25.5V17.4698H26V16.9698H25.5V13.4698H26V12.9698H25.5V13.4698H15.0385L15.4423 16.9698ZM15.4423 16.9698H25.5V17.4698H15.5L15.4423 16.9698ZM25.5 20.9698H15.9038L15.9615 21.4698H25.5V20.9698ZM25.5 24.9698H16.3654L16.4231 25.4698H25.5V24.9698ZM25.5 28.9698H16.8269L16.8846 29.4698H25.5V28.9698ZM25.5 32.9698H17.2885L17.3462 33.4698H25.5V32.9698ZM25.5 37.4698H26V40.9698H25.5V37.4698ZM25.5 41.4698H18.2692L18.2115 40.9698H25.5V41.4698ZM25.5 44.9698H18.6731L18.7308 45.4698H25.5V48.9698H26V45.4698H32.5554L32.6035 44.9698H26V41.4698H32.94L32.9881 40.9698H26V41.4698H25.5V44.9698ZM26 44.9698H25.5V45.4698H26V44.9698ZM25.5 37.4698H17.8077L17.75 36.9698H25.5V37.4698Z" fill="#DCD9D9"/>
<path d="M51.0341 3.34439L50.9041 3.8272L51.0341 3.34439ZM0 3.46982L-0.132358 2.98766L-0.597087 3.11523L-0.486709 3.58434L0 3.46982ZM51.5 3.46982L51.9867 3.58434L52.0976 3.11292L51.63 2.98702L51.5 3.46982ZM44 33.4698V33.9698H44.5V33.4698H44ZM44 32.9698H44.5V32.4698H44V32.9698ZM45 29.4698V29.9698H45.5V29.4698H45ZM45 28.9698H45.5V28.4698H45V28.9698ZM46 25.4698V25.9698H46.5V25.4698H46ZM46 24.9698H46.5V24.4698H46V24.9698ZM47 21.4698V21.9698H47.5V21.4698H47ZM47 20.9698H47.5V20.4698H47V20.9698ZM48 17.4698V17.9698H48.5V17.4698H48ZM48 16.9698H48.5V16.4698H48V16.9698ZM49 13.4698V13.9698H49.5V13.4698H49ZM49 12.9698H49.5V12.4698H49V12.9698ZM50 9.46982V9.96982H50.5V9.46982H50ZM50 8.96982H50.5V8.46982H50V8.96982ZM51.0212 4.21892L51.0636 4.71712L51.5618 4.67472L51.5194 4.17653L51.0212 4.21892ZM50.9788 3.72072L51.477 3.67833L51.4346 3.18012L50.9364 3.22253L50.9788 3.72072ZM37 4.46982L37.4977 4.51767L37.5456 4.01997L37.0479 3.97212L37 4.46982ZM36.5023 4.42197L36.5502 3.92426L36.0524 3.87641L36.0046 4.37411L36.5023 4.42197ZM26 4.46982H26.5V3.96982H26V4.46982ZM25.5 4.46982V3.96982H25V4.46982H25.5ZM14 4.46982L14.4967 4.41251L14.4394 3.91581L13.9427 3.97312L14 4.46982ZM13.5033 4.52713L13.446 4.03043L12.9494 4.08773L13.0066 4.58435L13.5033 4.52713ZM3.99795 3.97825L3.96101 4.47688L3.99795 3.97825ZM0.518467 3.72051L0.555403 3.22187L0.0567692 3.18494L0.0198333 3.68357L0.518467 3.72051ZM0.481531 4.21914L-0.0171025 4.1822L-0.0540384 4.68084L0.444595 4.71777L0.481531 4.21914ZM3.96101 4.47688L3.92408 4.97551H3.92408L3.96101 4.47688ZM1 8.96982V8.46982H0.5V8.96982H1ZM1 9.46982H0.5V9.96982H1V9.46982ZM2 12.9698V12.4698H1.5V12.9698H2ZM2 13.4698H1.5V13.9698H2V13.4698ZM3 16.9698V16.4698H2.5V16.9698H3ZM3 17.4698H2.5V17.9698H3V17.4698ZM4 20.9698V20.4698H3.5V20.9698H4ZM4 21.4698H3.5V21.9698H4V21.4698ZM5 24.9698V24.4698H4.5V24.9698H5ZM5 25.4698H4.5V25.9698H5V25.4698ZM6 29.4698H5.5V29.9698H6V29.4698ZM7 33.4698H6.5V33.9698H7V33.4698ZM8 37.4698L7.51329 37.5843L8 37.4698ZM12 54.4698L11.5133 54.5843L11.5772 54.8559L11.8419 54.9442L12 54.4698ZM15.5093 55.566L15.0187 55.6622L15.1149 56.1529L15.6055 56.0567L15.5093 55.566ZM19.5033 56.5271L19.0066 56.5844L19.0639 57.0812L19.5606 57.0238L19.5033 56.5271ZM20 56.4698L20.0573 56.9665L20.554 56.9092L20.4967 56.4125L20 56.4698ZM31.5023 56.422L31.0046 56.3741L30.9567 56.8718L31.4544 56.9197L31.5023 56.422ZM32 56.4698L31.9521 56.9675L32.4498 57.0154L32.4977 56.5177L32 56.4698ZM36.5076 55.3829L36.0152 55.296L35.9283 55.7884L36.4207 55.8753L36.5076 55.3829ZM37 55.4698L36.9131 55.9622L37.4055 56.0491L37.4924 55.5567L37 55.4698ZM39.0476 54.6152L39.2006 55.0913L39.0476 54.6152ZM39.5 54.4698L39.653 54.9458L39.922 54.8594L39.9867 54.5843L39.5 54.4698ZM40 53.4698V53.9698H40.5V53.4698H40ZM40 52.9698H40.5V52.4698H40V52.9698ZM41 49.4698V49.9698H41.5V49.4698H41ZM41 48.9698H41.5V48.4698H41V48.9698ZM42 45.4698V45.9698H42.5V45.4698H42ZM42 44.9698H42.5V44.4698H42V44.9698ZM43 41.4698V41.9698H43.5V41.4698H43ZM43 40.9698H43.5V40.4698H43V40.9698ZM44 37.4698V37.9698H44.5V37.4698H44ZM44 36.9698H44.5V36.4698H44V36.9698ZM46 4.46982L46.4924 4.55671L46.5793 4.06432L46.0869 3.97743L46 4.46982ZM45.5076 4.38293L45.5945 3.89054L45.1021 3.80364L45.0152 4.29604L45.5076 4.38293ZM6 4.46983L6.49066 4.37362L6.39445 3.88296L5.90379 3.97917L6 4.46983ZM5.50934 4.56603L5.41314 4.07538L4.92248 4.17159L5.01869 4.66224L5.50934 4.56603ZM7 32.9698V32.4698H6.5V32.9698H7ZM8 36.9698V36.4698H7.5V36.9698H8ZM9 40.9698V40.4698H8.5V40.9698H9ZM9 41.4698H8.5V41.9698H9V41.4698ZM10 44.9698V44.4698H9.5V44.9698H10ZM10 45.4698H9.5V45.9698H10V45.4698ZM11 48.9698V48.4698H10.5V48.9698H11ZM11 49.4698H10.5V49.9698H11V49.4698ZM12 52.9698V52.4698H11.5V52.9698H12ZM12 53.4698H11.5V53.9698H12V53.4698ZM16 55.4698L16.0962 55.9605L16.5869 55.8643L16.4907 55.3736L16 55.4698ZM25.5 56.4794H25V56.9794H25.5V56.4794ZM26 56.4794V56.9794H26.5V56.4794H26ZM51.1641 2.86158C34.3588 -1.66291 16.6504 -1.61939 -0.132358 2.98766L0.132358 3.95199C16.7435 -0.607936 34.2708 -0.651013 50.9041 3.8272L51.1641 2.86158ZM51.63 2.98702L51.1641 2.86158L50.9041 3.8272L51.37 3.95263L51.63 2.98702ZM44.1044 37.0843L51.9867 3.58434L51.0133 3.3553L43.1309 36.8553L44.1044 37.0843ZM40.2647 37.4698H43.6176V36.4698H40.2647V37.4698ZM40.7571 37.0567L41.3747 33.5567L40.39 33.3829L39.7723 36.8829L40.7571 37.0567ZM40.8824 33.9698H44V32.9698H40.8824V33.9698ZM44.5 33.4698V32.9698H43.5V33.4698H44.5ZM44 32.4698H40.9706V33.4698H44V32.4698ZM41.463 33.0567L42.0806 29.5567L41.0958 29.3829L40.4782 32.8829L41.463 33.0567ZM41.5882 29.9698H45V28.9698H41.5882V29.9698ZM45.5 29.4698V28.9698H44.5V29.4698H45.5ZM45 28.4698H41.6765V29.4698H45V28.4698ZM42.1689 29.0567L42.7865 25.5567L41.8017 25.3829L41.1841 28.8829L42.1689 29.0567ZM42.2941 25.9698H46V24.9698H42.2941V25.9698ZM46.5 25.4698V24.9698H45.5V25.4698H46.5ZM46 24.4698H42.3824V25.4698H46V24.4698ZM42.8747 25.0567L43.4924 21.5567L42.5076 21.3829L41.89 24.8829L42.8747 25.0567ZM43 21.9698H47V20.9698H43V21.9698ZM47.5 21.4698V20.9698H46.5V21.4698H47.5ZM47 20.4698H43.0882V21.4698H47V20.4698ZM43.5806 21.0567L44.1983 17.5567L43.2135 17.3829L42.5958 20.8829L43.5806 21.0567ZM43.7059 17.9698H48V16.9698H43.7059V17.9698ZM48.5 17.4698V16.9698H47.5V17.4698H48.5ZM48 16.4698H43.7941V17.4698H48V16.4698ZM44.2865 17.0567L44.9042 13.5567L43.9194 13.3829L43.3017 16.8829L44.2865 17.0567ZM44.4118 13.9698H49V12.9698H44.4118V13.9698ZM49.5 13.4698V12.9698H48.5V13.4698H49.5ZM49 12.4698H44.5V13.4698H49V12.4698ZM44.9924 13.0567L45.61 9.55672L44.6253 9.38293L44.0076 12.8829L44.9924 13.0567ZM45.1176 9.96982H50V8.96982H45.1176V9.96982ZM50.5 9.46982V8.96982H49.5V9.46982H50.5ZM50 8.46982H45.2059V9.46982H50V8.46982ZM45.6983 9.05672L46.4685 4.69187L45.4838 4.51808L44.7135 8.88293L45.6983 9.05672ZM46.01 5.10382C47.6954 4.98931 49.38 4.86041 51.0636 4.71712L50.9788 3.72072C49.3008 3.86353 47.6219 3.992 45.9423 4.10612L46.01 5.10382ZM51.5194 4.17653L51.477 3.67833L50.4806 3.76312L50.523 4.26132L51.5194 4.17653ZM50.9364 3.22253C46.2871 3.61821 41.6306 3.90362 36.9708 4.07874L37.0083 5.07803C41.6839 4.90233 46.3561 4.61595 51.0212 4.21892L50.9364 3.22253ZM37.4873 4.62623L37.4977 4.51767L36.5023 4.42197L36.4919 4.53053L37.4873 4.62623ZM37.0479 3.97212L36.5502 3.92426L36.4544 4.91967L36.9521 4.96753L37.0479 3.97212ZM36.0046 4.37411L35.9878 4.54904L36.9832 4.64475L37 4.46982L36.0046 4.37411ZM36.4676 4.09722C32.9795 4.22235 29.4897 4.28568 25.9998 4.28721L26.0002 5.28721C29.5019 5.28567 33.0035 5.22213 36.5034 5.09658L36.4676 4.09722ZM25.5 4.46982V4.78721H26.5V4.46982H25.5ZM25.5 4.96982H26V3.96982H25.5V4.96982ZM26 4.787V4.46982H25V4.787H26ZM25.5006 4.287C21.6761 4.28222 17.8516 4.2032 14.0292 4.04996L13.9892 5.04915C17.8245 5.20292 21.6619 5.2822 25.4994 5.287L25.5006 4.287ZM14.5059 4.49224L14.4967 4.41251L13.5033 4.52713L13.5125 4.60687L14.5059 4.49224ZM13.9427 3.97312L13.446 4.03043L13.5606 5.02384L14.0573 4.96653L13.9427 3.97312ZM13.0066 4.58435L13.0068 4.58606L14.0002 4.47163L14 4.46992L13.0066 4.58435ZM13.5244 4.02928C10.3593 3.89697 7.1957 3.71375 4.03488 3.47961L3.96101 4.47688C7.13252 4.71181 10.3068 4.89565 13.4826 5.02841L13.5244 4.02928ZM4.03488 3.47961L0.555403 3.22187L0.481531 4.21914L3.96101 4.47688L4.03488 3.47961ZM0.0198333 3.68357L-0.0171025 4.1822L0.980165 4.25608L1.0171 3.75744L0.0198333 3.68357ZM0.444595 4.71777L3.92408 4.97551L3.99795 3.97825L0.518467 3.72051L0.444595 4.71777ZM3.92408 4.97551C4.44241 5.01391 4.96082 5.05094 5.47929 5.08661L5.54793 4.08897C5.0312 4.05342 4.51454 4.01651 3.99795 3.97825L3.92408 4.97551ZM5.02295 4.684L5.88217 9.06603L6.86349 8.87362L6.00427 4.49158L5.02295 4.684ZM6.37283 8.46982H1.29412V9.46982H6.37283V8.46982ZM-0.486709 3.58434L0.807409 9.08434L1.78083 8.8553L0.486709 3.3553L-0.486709 3.58434ZM0.807409 9.08434L0.925056 9.58434L1.89847 9.3553L1.78083 8.8553L0.807409 9.08434ZM1.29412 8.46982H1V9.46982H1.29412V8.46982ZM0.5 8.96982V9.46982H1.5V8.96982H0.5ZM1 9.96982H1.41176V8.96982H1V9.96982ZM1.41176 9.96982H6.47087V8.96982H1.41176V9.96982ZM0.925056 9.58434L1.74859 13.0843L2.722 12.8553L1.89847 9.3553L0.925056 9.58434ZM2.23529 12.4698H2V13.4698H2.23529V12.4698ZM1.5 12.9698V13.4698H2.5V12.9698H1.5ZM2 13.9698H2.35294V12.9698H2V13.9698ZM1.86623 13.5843L2.68976 17.0843L3.66318 16.8553L2.83965 13.3553L1.86623 13.5843ZM3.17647 16.4698H3V17.4698H3.17647V16.4698ZM2.5 16.9698V17.4698H3.5V16.9698H2.5ZM3 17.9698H3.29412V16.9698H3V17.9698ZM2.80741 17.5843L3.63094 21.0843L4.60436 20.8553L3.78083 17.3553L2.80741 17.5843ZM4.11765 20.4698H4V21.4698H4.11765V20.4698ZM3.5 20.9698V21.4698H4.5V20.9698H3.5ZM4 21.9698H4.23529V20.9698H4V21.9698ZM3.74859 21.5843L4.57211 25.0843L5.54553 24.8553L4.722 21.3553L3.74859 21.5843ZM5.05882 24.4698H5V25.4698H5.05882V24.4698ZM4.5 24.9698V25.4698H5.5V24.9698H4.5ZM5 25.9698H5.17647V24.9698H5V25.9698ZM4.68976 25.5843L5.51329 29.0843L6.48671 28.8553L5.66318 25.3553L4.68976 25.5843ZM5.5 28.9698V29.4698H6.5V28.9698H5.5ZM6 29.9698H6.11765V28.9698H6V29.9698ZM5.63094 29.5843L6.51329 33.3343L7.48671 33.1053L6.60436 29.3553L5.63094 29.5843ZM6.5 33.2198V33.4698H7.5V33.2198H6.5ZM7 33.9698H7.05882V32.9698H7V33.9698ZM6.57211 33.5843L7.51329 37.5843L8.48671 37.3553L7.54553 33.3553L6.57211 33.5843ZM7.51329 37.5843L11.5133 54.5843L12.4867 54.3553L8.48671 37.3553L7.51329 37.5843ZM11.8419 54.9442C13.0078 55.3328 14.1859 55.6712 15.3733 55.9595L15.6092 54.9877C14.4489 54.706 13.2975 54.3753 12.1581 53.9955L11.8419 54.9442ZM15.0006 55.5698L15.0187 55.6622L16 55.4698L15.9819 55.3774L15.0006 55.5698ZM15.6055 56.0567L15.8075 56.0171L15.6151 55.0358L15.4131 55.0754L15.6055 56.0567ZM15.5959 56.0129C16.8547 56.3116 18.1235 56.5539 19.3986 56.74L19.5429 55.7504C18.2969 55.5686 17.0569 55.3318 15.8267 55.0399L15.5959 56.0129ZM18.9741 56.3025L19.0066 56.5844L20 56.4698L19.9675 56.1879L18.9741 56.3025ZM19.5606 57.0238L20.0573 56.9665L19.9427 55.9731L19.446 56.0304L19.5606 57.0238ZM20.4967 56.4125L20.479 56.2594L19.4856 56.374L19.5033 56.5271L20.4967 56.4125ZM19.916 56.8123C23.7855 57.3299 27.708 57.33 31.5788 56.8119L31.4461 55.8207C27.6633 56.327 23.8301 56.327 20.0486 55.8211L19.916 56.8123ZM31.0147 56.2685L31.0046 56.3741L32 56.4698L32.0102 56.3642L31.0147 56.2685ZM31.4544 56.9197L31.9521 56.9675L32.0479 55.9721L31.5501 55.9243L31.4544 56.9197ZM32.4977 56.5177L32.5193 56.293L31.5239 56.1973L31.5023 56.422L32.4977 56.5177ZM32.0938 56.7399C33.6195 56.5173 35.1364 56.214 36.6381 55.83L36.3903 54.8612C34.9228 55.2364 33.4404 55.5328 31.9494 55.7503L32.0938 56.7399ZM36.0218 55.2587L36.0152 55.296L37 55.4698L37.0066 55.4325L36.0218 55.2587ZM36.4207 55.8753L36.9131 55.9622L37.0869 54.9774L36.5945 54.8905L36.4207 55.8753ZM37.4924 55.5567L37.539 55.2927L36.5542 55.119L36.5076 55.3829L37.4924 55.5567ZM37.1766 55.6887C37.8547 55.5061 38.5296 55.3069 39.2006 55.0913L38.8946 54.1392C38.2388 54.35 37.5793 54.5446 36.9166 54.723L37.1766 55.6887ZM39.2006 55.0913L39.653 54.9458L39.347 53.9938L38.8946 54.1392L39.2006 55.0913ZM39.9867 54.5843L40.222 53.5843L39.2486 53.3553L39.0133 54.3553L39.9867 54.5843ZM39.7353 53.9698H40V52.9698H39.7353V53.9698ZM40.5 53.4698V52.9698H39.5V53.4698H40.5ZM40 52.4698H39.8529V53.4698H40V52.4698ZM40.3396 53.0843L41.1632 49.5843L40.1898 49.3553L39.3662 52.8553L40.3396 53.0843ZM40.6765 49.9698H41V48.9698H40.6765V49.9698ZM41.5 49.4698V48.9698H40.5V49.4698H41.5ZM41 48.4698H40.7941V49.4698H41V48.4698ZM41.2808 49.0843L42.1044 45.5843L41.1309 45.3553L40.3074 48.8553L41.2808 49.0843ZM41.6176 45.9698H42V44.9698H41.6176V45.9698ZM42.5 45.4698V44.9698H41.5V45.4698H42.5ZM42 44.4698H41.7353V45.4698H42V44.4698ZM42.222 45.0843L43.0455 41.5843L42.0721 41.3553L41.2486 44.8553L42.222 45.0843ZM42.5588 41.9698H43V40.9698H42.5588V41.9698ZM43.5 41.4698V40.9698H42.5V41.4698H43.5ZM43 40.4698H42.6765V41.4698H43V40.4698ZM43.1632 41.0843L43.9867 37.5843L43.0133 37.3553L42.1898 40.8553L43.1632 41.0843ZM43.5 37.9698H44V36.9698H43.5V37.9698ZM44.5 37.4698V36.9698H43.5V37.4698H44.5ZM44 36.4698H43.6176V37.4698H44V36.4698ZM43.1309 36.8553L43.0133 37.3553L43.9867 37.5843L44.1044 37.0843L43.1309 36.8553ZM43.5 36.9698H40.1765V37.9698H43.5V36.9698ZM40.6689 37.5567L40.7571 37.0567L39.7723 36.8829L39.6841 37.3829L40.6689 37.5567ZM39.757 37.4698H40.2647V36.4698H39.757V37.4698ZM40.2494 37.0567L40.867 33.5567L39.8822 33.3829L39.2646 36.8829L40.2494 37.0567ZM40.3746 33.9698H40.8824V32.9698H40.3746V33.9698ZM41.3747 33.5567L41.463 33.0567L40.4782 32.8829L40.39 33.3829L41.3747 33.5567ZM40.9706 32.4698H40.4629V33.4698H40.9706V32.4698ZM40.9553 33.0567L41.5729 29.5567L40.5881 29.3829L39.9705 32.8829L40.9553 33.0567ZM41.0805 29.9698H41.5882V28.9698H41.0805V29.9698ZM42.0806 29.5567L42.1689 29.0567L41.1841 28.8829L41.0958 29.3829L42.0806 29.5567ZM41.6765 28.4698H41.1687V29.4698H41.6765V28.4698ZM41.6611 29.0567L42.2788 25.5567L41.294 25.3829L40.6764 28.8829L41.6611 29.0567ZM41.7864 25.9698H42.2941V24.9698H41.7864V25.9698ZM42.7865 25.5567L42.8747 25.0567L41.89 24.8829L41.8017 25.3829L42.7865 25.5567ZM42.3824 24.4698H41.8746V25.4698H42.3824V24.4698ZM42.367 25.0567L42.9847 21.5567L41.9999 21.3829L41.3822 24.8829L42.367 25.0567ZM42.4923 21.9698H43V20.9698H42.4923V21.9698ZM43.4924 21.5567L43.5806 21.0567L42.5958 20.8829L42.5076 21.3829L43.4924 21.5567ZM43.0882 20.4698H42.5805V21.4698H43.0882V20.4698ZM43.0729 21.0567L43.6906 17.5567L42.7058 17.3829L42.0881 20.8829L43.0729 21.0567ZM43.1982 17.9698H43.7059V16.9698H43.1982V17.9698ZM44.1983 17.5567L44.2865 17.0567L43.3017 16.8829L43.2135 17.3829L44.1983 17.5567ZM43.7941 16.4698H43.2864V17.4698H43.7941V16.4698ZM43.7788 17.0567L44.3964 13.5567L43.4116 13.3829L42.794 16.8829L43.7788 17.0567ZM43.904 13.9698H44.4118V12.9698H43.904V13.9698ZM44.9042 13.5567L44.9924 13.0567L44.0076 12.8829L43.9194 13.3829L44.9042 13.5567ZM44.5 12.4698H43.9923V13.4698H44.5V12.4698ZM44.4847 13.0567L45.1023 9.55672L44.1175 9.38293L43.4999 12.8829L44.4847 13.0567ZM44.6099 9.96982H45.1176V8.96982H44.6099V9.96982ZM45.61 9.55672L45.6983 9.05672L44.7135 8.88293L44.6253 9.38293L45.61 9.55672ZM45.2059 8.46982H44.6982V9.46982H45.2059V8.46982ZM45.1906 9.05672L45.9547 4.72633L44.97 4.55254L44.2058 8.88293L45.1906 9.05672ZM45.4954 5.13834C45.6669 5.12699 45.8385 5.11548 46.01 5.10382L45.9423 4.10612C45.7713 4.11774 45.6003 4.12921 45.4293 4.14053L45.4954 5.13834ZM46.4685 4.69186L46.4924 4.55671L45.5076 4.38293L45.4838 4.51808L46.4685 4.69186ZM46.0869 3.97743L45.5945 3.89054L45.4207 4.87532L45.9131 4.96221L46.0869 3.97743ZM45.0152 4.29604L44.97 4.55254L45.9547 4.72633L46 4.46982L45.0152 4.29604ZM45.4293 4.14053C42.5955 4.32813 39.7597 4.47492 36.9226 4.58089L36.9599 5.58019C39.8066 5.47386 42.652 5.32658 45.4954 5.13834L45.4293 4.14053ZM37.439 5.1284L37.4873 4.62624L36.4919 4.53052L36.4436 5.03268L37.439 5.1284ZM36.9708 4.07874C36.803 4.08504 36.6353 4.0912 36.4676 4.09722L36.5034 5.09658C36.6717 5.09054 36.84 5.08436 37.0083 5.07803L36.9708 4.07874ZM35.9878 4.54904L35.9395 5.05108L36.9349 5.1468L36.9832 4.64475L35.9878 4.54904ZM36.4194 4.59926C32.9474 4.72304 29.4736 4.78569 25.9998 4.78721L26.0002 5.78721C29.4858 5.78568 32.9713 5.72282 36.455 5.59862L36.4194 4.59926ZM25.5 4.78721V5.28721H26.5V4.78721H25.5ZM25.9998 4.28721C25.8334 4.28728 25.667 4.28721 25.5006 4.287L25.4994 5.287C25.6663 5.28721 25.8333 5.28728 26.0002 5.28721L25.9998 4.28721ZM26 5.287V4.787H25V5.287H26ZM25.5006 4.787C21.6954 4.78225 17.8902 4.70414 14.0871 4.55267L14.0473 5.55188C17.8633 5.70386 21.6813 5.78223 25.4994 5.787L25.5006 4.787ZM14.5639 4.99496L14.5059 4.49224L13.5125 4.60687L13.5705 5.10958L14.5639 4.99496ZM14.0292 4.04996C13.8609 4.04321 13.6927 4.03632 13.5244 4.02928L13.4826 5.02841C13.6515 5.03547 13.8203 5.04238 13.9892 5.04915L14.0292 4.04996ZM13.0068 4.58616L13.0648 5.08901L14.0582 4.97439L14.0002 4.47153L13.0068 4.58616ZM13.5823 4.53213C11.0748 4.42798 8.56837 4.29193 6.06346 4.12399L5.99656 5.12175C8.50993 5.29026 11.0249 5.42676 13.5408 5.53127L13.5823 4.53213ZM6.52067 4.52666L6.49066 4.37362L5.50934 4.56603L5.53935 4.71907L6.52067 4.52666ZM5.90379 3.97917L5.41314 4.07538L5.60555 5.05669L6.09621 4.96048L5.90379 3.97917ZM5.01869 4.66224L5.02295 4.684L6.00427 4.49158L6 4.46982L5.01869 4.66224ZM5.47929 5.08661C5.65171 5.09847 5.82413 5.11019 5.99656 5.12175L6.06346 4.12399C5.89161 4.11246 5.71976 4.10079 5.54793 4.08897L5.47929 5.08661ZM5.53935 4.71907L6.3917 9.06603L7.37301 8.87362L6.52067 4.52666L5.53935 4.71907ZM6.88235 8.46982H6.37283V9.46982H6.88235V8.46982ZM5.88217 9.06603L5.98021 9.56603L6.96153 9.37362L6.86349 8.87362L5.88217 9.06603ZM6.47087 9.96982H6.98039V8.96982H6.47087V9.96982ZM5.98021 9.56603L6.66649 13.066L7.6478 12.8736L6.96153 9.37362L5.98021 9.56603ZM7.15715 12.4698H2.23529V13.4698H7.15715V12.4698ZM1.74859 13.0843L1.86623 13.5843L2.83965 13.3553L2.722 12.8553L1.74859 13.0843ZM2.35294 13.9698H7.25518V12.9698H2.35294V13.9698ZM6.76453 13.566L7.4508 17.066L8.43212 16.8736L7.74584 13.3736L6.76453 13.566ZM7.94146 16.4698H3.17647V17.4698H7.94146V16.4698ZM2.68976 17.0843L2.80741 17.5843L3.78083 17.3553L3.66318 16.8553L2.68976 17.0843ZM3.29412 17.9698H8.0395V16.9698H3.29412V17.9698ZM7.54884 17.566L8.23512 21.066L9.21643 20.8736L8.53016 17.3736L7.54884 17.566ZM8.72577 20.4698H4.11765V21.4698H8.72577V20.4698ZM3.63094 21.0843L3.74859 21.5843L4.722 21.3553L4.60436 20.8553L3.63094 21.0843ZM4.23529 21.9698H8.82381V20.9698H4.23529V21.9698ZM8.33316 21.566L9.01943 25.066L10.0007 24.8736L9.31447 21.3736L8.33316 21.566ZM9.51009 24.4698H5.05882V25.4698H9.51009V24.4698ZM4.57211 25.0843L4.68976 25.5843L5.66318 25.3553L5.54553 24.8553L4.57211 25.0843ZM5.17647 25.9698H9.60813V24.9698H5.17647V25.9698ZM9.11747 25.566L9.80374 29.066L10.7851 28.8736L10.0988 25.3736L9.11747 25.566ZM10.2944 28.4698H6V29.4698H10.2944V28.4698ZM5.51329 29.0843L5.63094 29.5843L6.60436 29.3553L6.48671 28.8553L5.51329 29.0843ZM6.11765 29.9698H10.3924V28.9698H6.11765V29.9698ZM9.90178 29.566L10.5881 33.066L11.5694 32.8736L10.8831 29.3736L9.90178 29.566ZM11.0787 32.4698H7V33.4698H11.0787V32.4698ZM6.5 32.9698V33.2198H7.5V32.9698H6.5ZM6.51329 33.3343L6.57211 33.5843L7.54553 33.3553L7.48671 33.1053L6.51329 33.3343ZM7.05882 33.9698H11.1768V32.9698H7.05882V33.9698ZM10.6861 33.566L11.3724 37.066L12.3537 36.8736L11.6674 33.3736L10.6861 33.566ZM11.863 36.4698H8V37.4698H11.863V36.4698ZM7.5 36.9698V37.4698H8.5V36.9698H7.5ZM8 37.9698H11.9611V36.9698H8V37.9698ZM11.4704 37.566L12.1567 41.066L13.138 40.8736L12.4517 37.3736L11.4704 37.566ZM12.6473 40.4698H9V41.4698H12.6473V40.4698ZM8.5 40.9698V41.4698H9.5V40.9698H8.5ZM9 41.9698H12.7454V40.9698H9V41.9698ZM12.2547 41.566L12.941 45.066L13.9223 44.8736L13.236 41.3736L12.2547 41.566ZM13.4317 44.4698H10V45.4698H13.4317V44.4698ZM9.5 44.9698V45.4698H10.5V44.9698H9.5ZM10 45.9698H13.5297V44.9698H10V45.9698ZM13.039 45.566L13.7253 49.066L14.7066 48.8736L14.0204 45.3736L13.039 45.566ZM14.216 48.4698H11V49.4698H14.216V48.4698ZM10.5 48.9698V49.4698H11.5V48.9698H10.5ZM11 49.9698H14.314V48.9698H11V49.9698ZM13.8234 49.566L14.5096 53.066L15.4909 52.8736L14.8047 49.3736L13.8234 49.566ZM15.0003 52.4698H12V53.4698H15.0003V52.4698ZM11.5 52.9698V53.4698H12.5V52.9698H11.5ZM12 53.9698H15.0983V52.9698H12V53.9698ZM14.6077 53.566L15.0006 55.5698L15.9819 55.3774L15.589 53.3736L14.6077 53.566ZM15.3733 55.9595C15.4474 55.9775 15.5216 55.9953 15.5959 56.0129L15.8267 55.0399C15.7542 55.0227 15.6817 55.0053 15.6092 54.9877L15.3733 55.9595ZM15.8075 56.0171L16.0962 55.9605L15.9038 54.9792L15.6151 55.0358L15.8075 56.0171ZM16.4907 55.3736L16.0985 53.3736L15.1172 53.566L15.5093 55.566L16.4907 55.3736ZM15.6078 53.9698H19.1505V52.9698H15.6078V53.9698ZM18.6538 53.5271L18.9741 56.3025L19.9675 56.1879L19.6472 53.4125L18.6538 53.5271ZM19.3986 56.74C19.571 56.7651 19.7435 56.7892 19.916 56.8123L20.0486 55.8211C19.88 55.7986 19.7114 55.775 19.5429 55.7504L19.3986 56.74ZM20.479 56.2594L20.1506 53.4125L19.1571 53.5271L19.4856 56.374L20.479 56.2594ZM19.6538 53.9698H25.5V52.9698H19.6538V53.9698ZM26 56.4794V53.4698H25V56.4794H26ZM26 55.9794H25.5V56.9794H26V55.9794ZM25.5 53.4698V56.4794H26.5V53.4698H25.5ZM26 53.9698H31.7862V52.9698H26V53.9698ZM31.2885 53.422L31.0147 56.2685L32.0102 56.3642L32.2839 53.5177L31.2885 53.422ZM31.5788 56.8119C31.7505 56.7889 31.9222 56.7649 32.0938 56.7399L31.9494 55.7503C31.7818 55.7748 31.614 55.7983 31.4461 55.8207L31.5788 56.8119ZM32.5193 56.293L32.7862 53.5177L31.7908 53.422L31.5239 56.1973L32.5193 56.293ZM32.2885 53.9698H36.8452V52.9698H32.2885V53.9698ZM36.3528 53.3829L36.0218 55.2587L37.0066 55.4325L37.3376 53.5567L36.3528 53.3829ZM36.6381 55.83C36.8178 55.784 36.9973 55.7369 37.1766 55.6887L36.9166 54.723C36.7414 54.7702 36.566 54.8163 36.3903 54.8612L36.6381 55.83ZM37.539 55.2927L37.8453 53.5567L36.8605 53.3829L36.5542 55.119L37.539 55.2927ZM37.3529 53.9698H39.7353V52.9698H37.3529V53.9698ZM40.222 53.5843L40.3396 53.0843L39.3662 52.8553L39.2486 53.3553L40.222 53.5843ZM39.8529 52.4698H37.4412V53.4698H39.8529V52.4698ZM37.9336 53.0567L38.5512 49.5567L37.5664 49.3829L36.9488 52.8829L37.9336 53.0567ZM38.0588 49.9698H40.6765V48.9698H38.0588V49.9698ZM41.1632 49.5843L41.2808 49.0843L40.3074 48.8553L40.1898 49.3553L41.1632 49.5843ZM40.7941 48.4698H38.1471V49.4698H40.7941V48.4698ZM38.6395 49.0567L39.2571 45.5567L38.2723 45.3829L37.6547 48.8829L38.6395 49.0567ZM38.7647 45.9698H41.6176V44.9698H38.7647V45.9698ZM42.1044 45.5843L42.222 45.0843L41.2486 44.8553L41.1309 45.3553L42.1044 45.5843ZM41.7353 44.4698H38.8529V45.4698H41.7353V44.4698ZM39.3453 45.0567L39.963 41.5567L38.9782 41.3829L38.3605 44.8829L39.3453 45.0567ZM39.4706 41.9698H42.5588V40.9698H39.4706V41.9698ZM43.0455 41.5843L43.1632 41.0843L42.1898 40.8553L42.0721 41.3553L43.0455 41.5843ZM42.6765 40.4698H39.5588V41.4698H42.6765V40.4698ZM40.0512 41.0567L40.6689 37.5567L39.6841 37.3829L39.0664 40.8829L40.0512 41.0567ZM40.1765 36.9698H39.6687V37.9698H40.1765V36.9698ZM40.1611 37.5567L40.2494 37.0567L39.2646 36.8829L39.1764 37.3829L40.1611 37.5567ZM33.875 37.4698H39.757V36.4698H33.875V37.4698ZM34.3727 37.0177L34.7092 33.5177L33.7138 33.422L33.3773 36.922L34.3727 37.0177ZM34.2115 33.9698H40.3746V32.9698H34.2115V33.9698ZM40.867 33.5567L40.9553 33.0567L39.9705 32.8829L39.8822 33.3829L40.867 33.5567ZM40.4629 32.4698H34.2596V33.4698H40.4629V32.4698ZM34.7573 33.0177L35.0939 29.5177L34.0984 29.422L33.7619 32.922L34.7573 33.0177ZM34.5962 29.9698H41.0805V28.9698H34.5962V29.9698ZM41.5729 29.5567L41.6611 29.0567L40.6764 28.8829L40.5881 29.3829L41.5729 29.5567ZM41.1687 28.4698H34.6442V29.4698H41.1687V28.4698ZM35.1419 29.0177L35.4785 25.5177L34.4831 25.422L34.1465 28.922L35.1419 29.0177ZM34.9808 25.9698H41.7864V24.9698H34.9808V25.9698ZM42.2788 25.5567L42.367 25.0567L41.3822 24.8829L41.294 25.3829L42.2788 25.5567ZM41.8746 24.4698H35.0288V25.4698H41.8746V24.4698ZM35.5266 25.0177L35.8631 21.5177L34.8677 21.422L34.5311 24.922L35.5266 25.0177ZM35.3654 21.9698H42.4923V20.9698H35.3654V21.9698ZM42.9847 21.5567L43.0729 21.0567L42.0881 20.8829L41.9999 21.3829L42.9847 21.5567ZM42.5805 20.4698H35.4135V21.4698H42.5805V20.4698ZM35.9112 21.0177L36.2477 17.5177L35.2523 17.422L34.9158 20.922L35.9112 21.0177ZM35.75 17.9698H43.1982V16.9698H35.75V17.9698ZM43.6905 17.5567L43.7788 17.0567L42.794 16.8829L42.7058 17.3829L43.6905 17.5567ZM43.2864 16.4698H35.7981V17.4698H43.2864V16.4698ZM36.2958 17.0177L36.6323 13.5177L35.6369 13.422L35.3004 16.922L36.2958 17.0177ZM36.1346 13.9698H43.904V12.9698H36.1346V13.9698ZM44.3964 13.5567L44.4847 13.0567L43.4999 12.8829L43.4117 13.3829L44.3964 13.5567ZM43.9923 12.4698H36.1827V13.4698H43.9923V12.4698ZM36.6804 13.0177L37.0169 9.51768L36.0215 9.42197L35.685 12.922L36.6804 13.0177ZM36.5192 9.96982H44.6099V8.96982H36.5192V9.96982ZM45.1023 9.55672L45.1906 9.05672L44.2058 8.88293L44.1175 9.38293L45.1023 9.55672ZM44.6982 8.46982H36.5673V9.46982H44.6982V8.46982ZM37.065 9.01768L37.439 5.1284L36.4436 5.03269L36.0696 8.92197L37.065 9.01768ZM36.9226 4.58089C36.7549 4.58716 36.5871 4.59328 36.4194 4.59926L36.455 5.59862C36.6233 5.59262 36.7916 5.58648 36.9599 5.58019L36.9226 4.58089ZM35.9395 5.05109L35.5673 8.92197L36.5627 9.01768L36.9349 5.1468L35.9395 5.05109ZM36.065 8.46982H26V9.46982H36.065V8.46982ZM25.5 5.28721V8.96982H26.5V5.28721H25.5ZM25.9998 4.78721C25.8334 4.78728 25.667 4.78721 25.5006 4.787L25.4994 5.787C25.6663 5.78721 25.8333 5.78728 26.0002 5.78721L25.9998 4.78721ZM26 8.96982V5.287H25V8.96982H26ZM25.5 8.46982H14.5192V9.46982H25.5V8.46982ZM15.0159 8.91251L14.5639 4.99496L13.5705 5.10958L14.0225 9.02713L15.0159 8.91251ZM14.0871 4.55267C13.9188 4.54597 13.7505 4.53912 13.5823 4.53213L13.5408 5.53127C13.7096 5.53828 13.8785 5.54515 14.0473 5.55188L14.0871 4.55267ZM13.0648 5.08901L13.5192 9.02713L14.5126 8.91251L14.0582 4.97439L13.0648 5.08901ZM14.0159 8.46982H6.88235V9.46982H14.0159V8.46982ZM6.3917 9.06603L6.48974 9.56603L7.47105 9.37362L7.37301 8.87362L6.3917 9.06603ZM6.98039 9.96982H14.0736V8.96982H6.98039V9.96982ZM6.48974 9.56603L7.17601 13.066L8.15732 12.8736L7.47105 9.37362L6.48974 9.56603ZM7.66667 12.4698H7.15715V13.4698H7.66667V12.4698ZM6.66649 13.066L6.76453 13.566L7.74584 13.3736L7.6478 12.8736L6.66649 13.066ZM7.25518 13.9698H7.76471V12.9698H7.25518V13.9698ZM7.27405 13.566L7.96032 17.066L8.94164 16.8736L8.25536 13.3736L7.27405 13.566ZM8.45098 16.4698H7.94146V17.4698H8.45098V16.4698ZM7.4508 17.066L7.54884 17.566L8.53016 17.3736L8.43212 16.8736L7.4508 17.066ZM8.0395 17.9698H8.54902V16.9698H8.0395V17.9698ZM8.05836 17.566L8.74464 21.066L9.72595 20.8736L9.03968 17.3736L8.05836 17.566ZM9.23529 20.4698H8.72577V21.4698H9.23529V20.4698ZM8.23512 21.066L8.33316 21.566L9.31447 21.3736L9.21643 20.8736L8.23512 21.066ZM8.82381 21.9698H9.33333V20.9698H8.82381V21.9698ZM8.84268 21.566L9.52895 25.066L10.5103 24.8736L9.82399 21.3736L8.84268 21.566ZM10.0196 24.4698H9.51009V25.4698H10.0196V24.4698ZM9.01943 25.066L9.11747 25.566L10.0988 25.3736L10.0007 24.8736L9.01943 25.066ZM9.60813 25.9698H10.1176V24.9698H9.60813V25.9698ZM9.62699 25.566L10.3133 29.066L11.2946 28.8736L10.6083 25.3736L9.62699 25.566ZM10.8039 28.4698H10.2944V29.4698H10.8039V28.4698ZM9.80374 29.066L9.90178 29.566L10.8831 29.3736L10.7851 28.8736L9.80374 29.066ZM10.3924 29.9698H10.902V28.9698H10.3924V29.9698ZM10.4113 29.566L11.0976 33.066L12.0789 32.8736L11.3926 29.3736L10.4113 29.566ZM11.5882 32.4698H11.0787V33.4698H11.5882V32.4698ZM10.5881 33.066L10.6861 33.566L11.6674 33.3736L11.5694 32.8736L10.5881 33.066ZM11.1768 33.9698H11.6863V32.9698H11.1768V33.9698ZM11.1956 33.566L11.8819 37.066L12.8632 36.8736L12.1769 33.3736L11.1956 33.566ZM12.3725 36.4698H11.863V37.4698H12.3725V36.4698ZM11.3724 37.066L11.4704 37.566L12.4517 37.3736L12.3537 36.8736L11.3724 37.066ZM11.9611 37.9698H12.4706V36.9698H11.9611V37.9698ZM11.9799 37.566L12.6662 41.066L13.6475 40.8736L12.9612 37.3736L11.9799 37.566ZM13.1569 40.4698H12.6473V41.4698H13.1569V40.4698ZM12.1567 41.066L12.2547 41.566L13.236 41.3736L13.138 40.8736L12.1567 41.066ZM12.7454 41.9698H13.2549V40.9698H12.7454V41.9698ZM12.7642 41.566L13.4505 45.066L14.4318 44.8736L13.7456 41.3736L12.7642 41.566ZM13.9412 44.4698H13.4317V45.4698H13.9412V44.4698ZM12.941 45.066L13.039 45.566L14.0204 45.3736L13.9223 44.8736L12.941 45.066ZM13.5297 45.9698H14.0392V44.9698H13.5297V45.9698ZM13.5486 45.566L14.2348 49.066L15.2161 48.8736L14.5299 45.3736L13.5486 45.566ZM14.7255 48.4698H14.216V49.4698H14.7255V48.4698ZM13.7253 49.066L13.8234 49.566L14.8047 49.3736L14.7066 48.8736L13.7253 49.066ZM14.314 49.9698H14.8235V48.9698H14.314V49.9698ZM14.3329 49.566L15.0191 53.066L16.0005 52.8736L15.3142 49.3736L14.3329 49.566ZM15.5098 52.4698H15.0003V53.4698H15.5098V52.4698ZM14.5096 53.066L14.6077 53.566L15.589 53.3736L15.4909 52.8736L14.5096 53.066ZM15.0983 53.9698H15.6078V52.9698H15.0983V53.9698ZM16.0985 53.3736L16.0005 52.8736L15.0191 53.066L15.1172 53.566L16.0985 53.3736ZM15.5098 53.4698H19.0928V52.4698H15.5098V53.4698ZM18.5961 53.0271L18.6538 53.5271L19.6472 53.4125L19.5895 52.9125L18.5961 53.0271ZM19.1505 53.9698H19.6538V52.9698H19.1505V53.9698ZM20.1506 53.4125L20.0929 52.9125L19.0994 53.0271L19.1571 53.5271L20.1506 53.4125ZM19.5962 53.4698H25.5V52.4698H19.5962V53.4698ZM26 53.4698V52.9698H25V53.4698H26ZM25.5 53.9698H26V52.9698H25.5V53.9698ZM25.5 52.9698V53.4698H26.5V52.9698H25.5ZM26 53.4698H31.8342V52.4698H26V53.4698ZM31.3365 52.922L31.2885 53.422L32.2839 53.5177L32.3319 53.0177L31.3365 52.922ZM31.7862 53.9698H32.2885V52.9698H31.7862V53.9698ZM32.7862 53.5177L32.8342 53.0177L31.8388 52.922L31.7908 53.422L32.7862 53.5177ZM32.3365 53.4698H36.9334V52.4698H32.3365V53.4698ZM36.4411 52.8829L36.3528 53.3829L37.3376 53.5567L37.4258 53.0567L36.4411 52.8829ZM36.8452 53.9698H37.3529V52.9698H36.8452V53.9698ZM37.8453 53.5567L37.9336 53.0567L36.9488 52.8829L36.8605 53.3829L37.8453 53.5567ZM37.4412 52.4698H36.9334V53.4698H37.4412V52.4698ZM37.4258 53.0567L38.0435 49.5567L37.0587 49.3829L36.4411 52.8829L37.4258 53.0567ZM37.5511 49.9698H38.0588V48.9698H37.5511V49.9698ZM38.5512 49.5567L38.6395 49.0567L37.6547 48.8829L37.5664 49.3829L38.5512 49.5567ZM38.1471 48.4698H37.6393V49.4698H38.1471V48.4698ZM38.1317 49.0567L38.7494 45.5567L37.7646 45.3829L37.1469 48.8829L38.1317 49.0567ZM38.257 45.9698H38.7647V44.9698H38.257V45.9698ZM39.2571 45.5567L39.3453 45.0567L38.3606 44.8829L38.2723 45.3829L39.2571 45.5567ZM38.8529 44.4698H38.3452V45.4698H38.8529V44.4698ZM38.8376 45.0567L39.4553 41.5567L38.4705 41.3829L37.8528 44.8829L38.8376 45.0567ZM38.9629 41.9698H39.4706V40.9698H38.9629V41.9698ZM39.963 41.5567L40.0512 41.0567L39.0664 40.8829L38.9782 41.3829L39.963 41.5567ZM39.5588 40.4698H39.0511V41.4698H39.5588V40.4698ZM39.5435 41.0567L40.1611 37.5567L39.1763 37.3829L38.5587 40.8829L39.5435 41.0567ZM39.6687 36.9698H33.8269V37.9698H39.6687V36.9698ZM34.3246 37.5177L34.3727 37.0177L33.3773 36.922L33.3292 37.422L34.3246 37.5177ZM33.3727 37.4698H33.875V36.4698H33.3727V37.4698ZM33.8704 37.0177L34.2069 33.5177L33.2115 33.422L32.875 36.922L33.8704 37.0177ZM33.7092 33.9698H34.2115V32.9698H33.7092V33.9698ZM34.7092 33.5177L34.7573 33.0177L33.7619 32.922L33.7138 33.422L34.7092 33.5177ZM34.2596 32.4698H33.7573V33.4698H34.2596V32.4698ZM34.255 33.0177L34.5916 29.5177L33.5961 29.422L33.2596 32.922L34.255 33.0177ZM34.0938 29.9698H34.5962V28.9698H34.0938V29.9698ZM35.0939 29.5177L35.1419 29.0177L34.1465 28.922L34.0984 29.422L35.0939 29.5177ZM34.6442 28.4698H34.1419V29.4698H34.6442V28.4698ZM34.6396 29.0177L34.9762 25.5177L33.9808 25.422L33.6442 28.922L34.6396 29.0177ZM34.4785 25.9698H34.9808V24.9698H34.4785V25.9698ZM35.4785 25.5177L35.5266 25.0177L34.5311 24.922L34.4831 25.422L35.4785 25.5177ZM35.0288 24.4698H34.5265V25.4698H35.0288V24.4698ZM35.0242 25.0177L35.3608 21.5177L34.3654 21.422L34.0288 24.922L35.0242 25.0177ZM34.8631 21.9698H35.3654V20.9698H34.8631V21.9698ZM35.8631 21.5177L35.9112 21.0177L34.9158 20.922L34.8677 21.422L35.8631 21.5177ZM35.4135 20.4698H34.9112V21.4698H35.4135V20.4698ZM35.4089 21.0177L35.7454 17.5177L34.75 17.422L34.4135 20.922L35.4089 21.0177ZM35.2477 17.9698H35.75V16.9698H35.2477V17.9698ZM36.2477 17.5177L36.2958 17.0177L35.3004 16.922L35.2523 17.422L36.2477 17.5177ZM35.7981 16.4698H35.2958V17.4698H35.7981V16.4698ZM35.7935 17.0177L36.13 13.5177L35.1346 13.422L34.7981 16.922L35.7935 17.0177ZM35.6323 13.9698H36.1346V12.9698H35.6323V13.9698ZM36.6323 13.5177L36.6804 13.0177L35.685 12.922L35.6369 13.422L36.6323 13.5177ZM36.1827 12.4698H35.6804V13.4698H36.1827V12.4698ZM36.1781 13.0177L36.5146 9.51768L35.5192 9.42197L35.1827 12.922L36.1781 13.0177ZM36.0169 9.96982H36.5192V8.96982H36.0169V9.96982ZM37.0169 9.51768L37.065 9.01768L36.0696 8.92197L36.0215 9.42197L37.0169 9.51768ZM36.5673 8.46982H36.065V9.46982H36.5673V8.46982ZM35.5673 8.92197L35.5192 9.42197L36.5146 9.51768L36.5627 9.01768L35.5673 8.92197ZM36.0169 8.96982H26V9.96982H36.0169V8.96982ZM25.5 8.96982V9.46982H26.5V8.96982H25.5ZM26 8.46982H25.5V9.46982H26V8.46982ZM26 9.46982V8.96982H25V9.46982H26ZM25.5 8.96982H14.5769V9.96982H25.5V8.96982ZM15.0736 9.41251L15.0159 8.91251L14.0225 9.02714L14.0802 9.52714L15.0736 9.41251ZM14.5192 8.46982H14.0159V9.46982H14.5192V8.46982ZM13.5192 9.02714L13.5769 9.52714L14.5703 9.41251L14.5126 8.91251L13.5192 9.02714ZM14.4775 12.4698H7.66667V13.4698H14.4775V12.4698ZM7.17601 13.066L7.27405 13.566L8.25536 13.3736L8.15732 12.8736L7.17601 13.066ZM7.76471 13.9698H14.5351V12.9698H7.76471V13.9698ZM14.0384 13.5271L14.4423 17.0271L15.4357 16.9125L15.0318 13.4125L14.0384 13.5271ZM14.939 16.4698H8.45098V17.4698H14.939V16.4698ZM7.96032 17.066L8.05836 17.566L9.03968 17.3736L8.94164 16.8736L7.96032 17.066ZM8.54902 17.9698H14.9967V16.9698H8.54902V17.9698ZM14.5 17.5271L14.9038 21.0271L15.8972 20.9125L15.4934 17.4125L14.5 17.5271ZM15.4005 20.4698H9.23529V21.4698H15.4005V20.4698ZM8.74464 21.066L8.84268 21.566L9.82399 21.3736L9.72595 20.8736L8.74464 21.066ZM9.33333 21.9698H15.4582V20.9698H9.33333V21.9698ZM14.9615 21.5271L15.3654 25.0271L16.3588 24.9125L15.9549 21.4125L14.9615 21.5271ZM15.8621 24.4698H10.0196V25.4698H15.8621V24.4698ZM9.52895 25.066L9.62699 25.566L10.6083 25.3736L10.5103 24.8736L9.52895 25.066ZM10.1176 25.9698H15.9198V24.9698H10.1176V25.9698ZM15.4231 25.5271L15.8269 29.0271L16.8203 28.9125L16.4165 25.4125L15.4231 25.5271ZM16.3236 28.4698H10.8039V29.4698H16.3236V28.4698ZM10.3133 29.066L10.4113 29.566L11.3926 29.3736L11.2946 28.8736L10.3133 29.066ZM10.902 29.9698H16.3813V28.9698H10.902V29.9698ZM15.8846 29.5271L16.2884 33.0271L17.2818 32.9125L16.878 29.4125L15.8846 29.5271ZM16.7851 32.4698H11.5882V33.4698H16.7851V32.4698ZM11.0976 33.066L11.1956 33.566L12.1769 33.3736L12.0789 32.8736L11.0976 33.066ZM11.6863 33.9698H16.8428V32.9698H11.6863V33.9698ZM16.3461 33.5271L16.75 37.0271L17.7434 36.9125L17.3395 33.4125L16.3461 33.5271ZM17.2467 36.4698H12.3725V37.4698H17.2467V36.4698ZM11.8819 37.066L11.9799 37.566L12.9612 37.3736L12.8632 36.8736L11.8819 37.066ZM12.4706 37.9698H17.3044V36.9698H12.4706V37.9698ZM16.8077 37.5271L17.2115 41.0271L18.2049 40.9125L17.8011 37.4125L16.8077 37.5271ZM17.7082 40.4698H13.1569V41.4698H17.7082V40.4698ZM12.6662 41.066L12.7642 41.566L13.7456 41.3736L13.6475 40.8736L12.6662 41.066ZM13.2549 41.9698H17.7659V40.9698H13.2549V41.9698ZM17.2692 41.5271L17.6731 45.0271L18.6665 44.9125L18.2626 41.4125L17.2692 41.5271ZM18.1698 44.4698H13.9412V45.4698H18.1698V44.4698ZM13.4505 45.066L13.5486 45.566L14.5299 45.3736L14.4318 44.8736L13.4505 45.066ZM14.0392 45.9698H18.2275V44.9698H14.0392V45.9698ZM17.7307 45.5271L18.1346 49.0271L19.128 48.9125L18.7242 45.4125L17.7307 45.5271ZM18.6313 48.4698H14.7255V49.4698H18.6313V48.4698ZM14.2348 49.066L14.3329 49.566L15.3142 49.3736L15.2161 48.8736L14.2348 49.066ZM14.8235 49.9698H18.689V48.9698H14.8235V49.9698ZM18.1923 49.5271L18.5961 53.0271L19.5895 52.9125L19.1857 49.4125L18.1923 49.5271ZM19.0928 53.4698H19.5962V52.4698H19.0928V53.4698ZM20.0929 52.9125L19.689 49.4125L18.6956 49.5271L19.0994 53.0271L20.0929 52.9125ZM19.1923 49.9698H25.5V48.9698H19.1923V49.9698ZM26 52.9698V49.4698H25V52.9698H26ZM25.5 53.4698H26V52.4698H25.5V53.4698ZM25.5 49.4698V52.9698H26.5V49.4698H25.5ZM26 49.9698H32.1708V48.9698H26V49.9698ZM31.6731 49.422L31.3365 52.922L32.3319 53.0177L32.6685 49.5177L31.6731 49.422ZM31.8342 53.4698H32.3365V52.4698H31.8342V53.4698ZM32.8342 53.0177L33.1708 49.5177L32.1754 49.422L31.8388 52.922L32.8342 53.0177ZM32.6731 49.9698H37.5511V48.9698H32.6731V49.9698ZM38.0435 49.5567L38.1317 49.0567L37.1469 48.8829L37.0587 49.3829L38.0435 49.5567ZM37.6393 48.4698H32.7212V49.4698H37.6393V48.4698ZM33.2189 49.0177L33.5554 45.5177L32.56 45.422L32.2234 48.922L33.2189 49.0177ZM33.0577 45.9698H38.257V44.9698H33.0577V45.9698ZM38.7494 45.5567L38.8376 45.0567L37.8528 44.8829L37.7646 45.3829L38.7494 45.5567ZM38.3452 44.4698H33.1058V45.4698H38.3452V44.4698ZM33.6035 45.0177L33.94 41.5177L32.9446 41.422L32.6081 44.922L33.6035 45.0177ZM33.4423 41.9698H38.9629V40.9698H33.4423V41.9698ZM39.4552 41.5567L39.5435 41.0567L38.5587 40.8829L38.4705 41.3829L39.4552 41.5567ZM39.0511 40.4698H33.4904V41.4698H39.0511V40.4698ZM33.9881 41.0177L34.3246 37.5177L33.3292 37.422L32.9927 40.922L33.9881 41.0177ZM33.8269 36.9698H33.3246V37.9698H33.8269V36.9698ZM33.8223 37.5177L33.8704 37.0177L32.875 36.922L32.8269 37.422L33.8223 37.5177ZM26 37.4698H33.3727V36.4698H26V37.4698ZM25.5 33.4698V36.9698H26.5V33.4698H25.5ZM33.7092 32.9698H26V33.9698H33.7092V32.9698ZM33.2596 32.922L33.2115 33.422L34.2069 33.5177L34.255 33.0177L33.2596 32.922ZM26 33.4698H33.7573V32.4698H26V33.4698ZM25.5 29.4698V32.9698H26.5V29.4698H25.5ZM34.0938 28.9698H26V29.9698H34.0938V28.9698ZM33.6442 28.922L33.5961 29.422L34.5916 29.5177L34.6396 29.0177L33.6442 28.922ZM26 29.4698H34.1419V28.4698H26V29.4698ZM25.5 25.4698V28.9698H26.5V25.4698H25.5ZM34.4785 24.9698H26V25.9698H34.4785V24.9698ZM34.0288 24.922L33.9808 25.422L34.9762 25.5177L35.0242 25.0177L34.0288 24.922ZM26 25.4698H34.5265V24.4698H26V25.4698ZM25.5 21.4698V24.9698H26.5V21.4698H25.5ZM34.8631 20.9698H26V21.9698H34.8631V20.9698ZM34.4135 20.922L34.3654 21.422L35.3608 21.5177L35.4089 21.0177L34.4135 20.922ZM26 21.4698H34.9112V20.4698H26V21.4698ZM25.5 17.4698V20.9698H26.5V17.4698H25.5ZM35.2477 16.9698H26V17.9698H35.2477V16.9698ZM34.7981 16.922L34.75 17.422L35.7454 17.5177L35.7935 17.0177L34.7981 16.922ZM26 17.4698H35.2958V16.4698H26V17.4698ZM25.5 13.4698V16.9698H26.5V13.4698H25.5ZM35.6323 12.9698H26V13.9698H35.6323V12.9698ZM35.1827 12.922L35.1346 13.422L36.13 13.5177L36.1781 13.0177L35.1827 12.922ZM26 13.4698H35.6804V12.4698H26V13.4698ZM25.5 9.46982V12.9698H26.5V9.46982H25.5ZM26 8.96982H25.5V9.96982H26V8.96982ZM26 12.9698V9.46982H25V12.9698H26ZM14.9808 13.4698H25.5V12.4698H14.9808V13.4698ZM14.0802 9.52714L14.4841 13.0271L15.4775 12.9125L15.0736 9.41251L14.0802 9.52714ZM14.0736 9.96982H14.5769V8.96982H14.0736V9.96982ZM13.5769 9.52714L13.9807 13.0271L14.9742 12.9125L14.5703 9.41251L13.5769 9.52714ZM15.5352 13.4125L15.4775 12.9125L14.4841 13.0271L14.5418 13.5271L15.5352 13.4125ZM14.9808 12.4698H14.4775V13.4698H14.9808V12.4698ZM13.9807 13.0271L14.0384 13.5271L15.0318 13.4125L14.9742 12.9125L13.9807 13.0271ZM14.5351 13.9698H15.0385V12.9698H14.5351V13.9698ZM15.4423 16.4698H14.939V17.4698H15.4423V16.4698ZM14.4423 17.0271L14.5 17.5271L15.4934 17.4125L15.4357 16.9125L14.4423 17.0271ZM14.9967 17.9698H15.5V16.9698H14.9967V17.9698ZM15.0033 17.5271L15.4071 21.0271L16.4006 20.9125L15.9967 17.4125L15.0033 17.5271ZM15.9038 20.4698H15.4005V21.4698H15.9038V20.4698ZM14.9038 21.0271L14.9615 21.5271L15.9549 21.4125L15.8972 20.9125L14.9038 21.0271ZM15.4582 21.9698H15.9615V20.9698H15.4582V21.9698ZM15.4648 21.5271L15.8687 25.0271L16.8621 24.9125L16.4582 21.4125L15.4648 21.5271ZM16.3654 24.4698H15.8621V25.4698H16.3654V24.4698ZM15.3654 25.0271L15.4231 25.5271L16.4165 25.4125L16.3588 24.9125L15.3654 25.0271ZM15.9198 25.9698H16.4231V24.9698H15.9198V25.9698ZM15.9264 25.5271L16.3302 29.0271L17.3236 28.9125L16.9198 25.4125L15.9264 25.5271ZM16.8269 28.4698H16.3236V29.4698H16.8269V28.4698ZM15.8269 29.0271L15.8846 29.5271L16.878 29.4125L16.8203 28.9125L15.8269 29.0271ZM16.3813 29.9698H16.8846V28.9698H16.3813V29.9698ZM16.3879 29.5271L16.7918 33.0271L17.7852 32.9125L17.3813 29.4125L16.3879 29.5271ZM17.2885 32.4698H16.7851V33.4698H17.2885V32.4698ZM16.2884 33.0271L16.3461 33.5271L17.3395 33.4125L17.2818 32.9125L16.2884 33.0271ZM16.8428 33.9698H17.3462V32.9698H16.8428V33.9698ZM16.8494 33.5271L17.2533 37.0271L18.2467 36.9125L17.8429 33.4125L16.8494 33.5271ZM17.2467 37.4698H17.75V36.4698H17.2467V37.4698ZM17.8011 37.4125L17.7434 36.9125L16.75 37.0271L16.8077 37.5271L17.8011 37.4125ZM17.8077 36.9698H17.3044V37.9698H17.8077V36.9698ZM18.7082 40.9125L18.3044 37.4125L17.311 37.5271L17.7148 41.0271L18.7082 40.9125ZM17.7082 41.4698H18.2115V40.4698H17.7082V41.4698ZM18.2626 41.4125L18.2049 40.9125L17.2115 41.0271L17.2692 41.5271L18.2626 41.4125ZM18.2692 40.9698H17.7659V41.9698H18.2692V40.9698ZM19.1698 44.9125L18.7659 41.4125L17.7725 41.5271L18.1764 45.0271L19.1698 44.9125ZM18.1698 45.4698H18.6731V44.4698H18.1698V45.4698ZM18.7242 45.4125L18.6665 44.9125L17.6731 45.0271L17.7307 45.5271L18.7242 45.4125ZM18.7308 44.9698H18.2275V45.9698H18.7308V44.9698ZM18.2341 45.5271L18.6379 49.0271L19.6313 48.9125L19.2275 45.4125L18.2341 45.5271ZM19.1346 48.4698H18.6313V49.4698H19.1346V48.4698ZM18.1346 49.0271L18.1923 49.5271L19.1857 49.4125L19.128 48.9125L18.1346 49.0271ZM18.689 49.9698H19.1923V48.9698H18.689V49.9698ZM19.689 49.4125L19.6313 48.9125L18.6379 49.0271L18.6956 49.5271L19.689 49.4125ZM19.1346 49.4698H25.5V48.4698H19.1346V49.4698ZM26 49.4698V48.9698H25V49.4698H26ZM25.5 49.9698H26V48.9698H25.5V49.9698ZM25.5 48.9698V49.4698H26.5V48.9698H25.5ZM26 49.4698H32.2188V48.4698H26V49.4698ZM31.7211 48.922L31.6731 49.422L32.6685 49.5177L32.7166 49.0177L31.7211 48.922ZM32.1708 49.9698H32.6731V48.9698H32.1708V49.9698ZM33.1708 49.5177L33.2189 49.0177L32.2234 48.922L32.1754 49.422L33.1708 49.5177ZM32.7212 48.4698H32.2188V49.4698H32.7212V48.4698ZM32.7166 49.0177L33.0531 45.5177L32.0577 45.422L31.7211 48.922L32.7166 49.0177ZM32.5554 45.9698H33.0577V44.9698H32.5554V45.9698ZM33.5554 45.5177L33.6035 45.0177L32.6081 44.922L32.56 45.422L33.5554 45.5177ZM33.1058 44.4698H32.6035V45.4698H33.1058V44.4698ZM32.4423 41.422L32.1058 44.922L33.1012 45.0177L33.4377 41.5177L32.4423 41.422ZM32.94 41.9698H33.4423V40.9698H32.94V41.9698ZM33.94 41.5177L33.9881 41.0177L32.9927 40.922L32.9446 41.422L33.94 41.5177ZM33.4904 40.4698H32.9881V41.4698H33.4904V40.4698ZM32.8269 37.422L32.4904 40.922L33.4858 41.0177L33.8223 37.5177L32.8269 37.422ZM26 37.9698H33.3246V36.9698H26V37.9698ZM25.5 36.9698V37.4698H26.5V36.9698H25.5ZM25.5 37.4698H26V36.4698H25.5V37.4698ZM26 36.9698V33.4698H25V36.9698H26ZM26 32.9698H25.5V33.9698H26V32.9698ZM25.5 32.9698V33.4698H26.5V32.9698H25.5ZM25.5 33.4698H26V32.4698H25.5V33.4698ZM26 32.9698V29.4698H25V32.9698H26ZM26 28.9698H25.5V29.9698H26V28.9698ZM25.5 28.9698V29.4698H26.5V28.9698H25.5ZM25.5 29.4698H26V28.4698H25.5V29.4698ZM26 28.9698V25.4698H25V28.9698H26ZM26 24.9698H25.5V25.9698H26V24.9698ZM25.5 24.9698V25.4698H26.5V24.9698H25.5ZM25.5 25.4698H26V24.4698H25.5V25.4698ZM26 24.9698V21.4698H25V24.9698H26ZM26 20.9698H25.5V21.9698H26V20.9698ZM25.5 20.9698V21.4698H26.5V20.9698H25.5ZM25.5 21.4698H26V20.4698H25.5V21.4698ZM26 20.9698V17.4698H25V20.9698H26ZM26 16.9698H25.5V17.9698H26V16.9698ZM25.5 16.9698V17.4698H26.5V16.9698H25.5ZM25.5 17.4698H26V16.4698H25.5V17.4698ZM26 16.9698V13.4698H25V16.9698H26ZM26 12.9698H25.5V13.9698H26V12.9698ZM25.5 12.9698V13.4698H26.5V12.9698H25.5ZM25.5 13.4698H26V12.4698H25.5V13.4698ZM26 13.4698V12.9698H25V13.4698H26ZM25.5 12.9698H15.0385V13.9698H25.5V12.9698ZM14.5418 13.5271L14.9456 17.0271L15.939 16.9125L15.5352 13.4125L14.5418 13.5271ZM15.4423 17.4698H25.5V16.4698H15.4423V17.4698ZM26 17.4698V16.9698H25V17.4698H26ZM25.5 16.9698H15.5V17.9698H25.5V16.9698ZM15.9967 17.4125L15.939 16.9125L14.9456 17.0271L15.0033 17.5271L15.9967 17.4125ZM15.9038 21.4698H25.5V20.4698H15.9038V21.4698ZM16.4582 21.4125L16.4006 20.9125L15.4071 21.0271L15.4648 21.5271L16.4582 21.4125ZM25.5 20.9698H15.9615V21.9698H25.5V20.9698ZM26 21.4698V20.9698H25V21.4698H26ZM16.3654 25.4698H25.5V24.4698H16.3654V25.4698ZM16.9198 25.4125L16.8621 24.9125L15.8687 25.0271L15.9264 25.5271L16.9198 25.4125ZM25.5 24.9698H16.4231V25.9698H25.5V24.9698ZM26 25.4698V24.9698H25V25.4698H26ZM16.8269 29.4698H25.5V28.4698H16.8269V29.4698ZM17.3813 29.4125L17.3236 28.9125L16.3302 29.0271L16.3879 29.5271L17.3813 29.4125ZM25.5 28.9698H16.8846V29.9698H25.5V28.9698ZM26 29.4698V28.9698H25V29.4698H26ZM17.2885 33.4698H25.5V32.4698H17.2885V33.4698ZM17.8429 33.4125L17.7852 32.9125L16.7918 33.0271L16.8494 33.5271L17.8429 33.4125ZM25.5 32.9698H17.3462V33.9698H25.5V32.9698ZM26 33.4698V32.9698H25V33.4698H26ZM25.5 37.9698H26V36.9698H25.5V37.9698ZM25.5 37.4698V40.9698H26.5V37.4698H25.5ZM26 40.4698H25.5V41.4698H26V40.4698ZM26 40.9698V37.4698H25V40.9698H26ZM18.2692 41.9698H25.5V40.9698H18.2692V41.9698ZM17.7148 41.0271L17.7725 41.5271L18.7659 41.4125L18.7082 40.9125L17.7148 41.0271ZM25.5 40.4698H18.2115V41.4698H25.5V40.4698ZM26 41.4698V40.9698H25V41.4698H26ZM25.5 44.4698H18.6731V45.4698H25.5V44.4698ZM18.1764 45.0271L18.2341 45.5271L19.2275 45.4125L19.1698 44.9125L18.1764 45.0271ZM25.5 44.9698H18.7308V45.9698H25.5V44.9698ZM26 48.9698V45.4698H25V48.9698H26ZM25.5 49.4698H26V48.4698H25.5V49.4698ZM25.5 45.4698V48.9698H26.5V45.4698H25.5ZM32.5554 44.9698H26V45.9698H32.5554V44.9698ZM32.1058 44.922L32.0577 45.422L33.0531 45.5177L33.1012 45.0177L32.1058 44.922ZM32.6035 44.4698H26V45.4698H32.6035V44.4698ZM25.5 41.4698V44.9698H26.5V41.4698H25.5ZM26 41.9698H32.94V40.9698H26V41.9698ZM32.4904 40.922L32.4423 41.422L33.4377 41.5177L33.4858 41.0177L32.4904 40.922ZM32.9881 40.4698H26V41.4698H32.9881V40.4698ZM25.5 40.9698V41.4698H26.5V40.9698H25.5ZM25.5 41.9698H26V40.9698H25.5V41.9698ZM26 44.9698V41.4698H25V44.9698H26ZM26 44.4698H25.5V45.4698H26V44.4698ZM26 45.4698V44.9698H25V45.4698H26ZM26 44.9698H25.5V45.9698H26V44.9698ZM25.5 44.9698V45.4698H26.5V44.9698H25.5ZM17.8077 37.9698H25.5V36.9698H17.8077V37.9698ZM17.2533 37.0271L17.311 37.5271L18.3044 37.4125L18.2467 36.9125L17.2533 37.0271ZM17.75 37.4698H25.5V36.4698H17.75V37.4698ZM26 37.4698V36.9698H25V37.4698H26Z" fill="black" mask="url(#path-1-inside-1_9_160)"/>
<path d="M13.2067 40.7198L8.80241 17.7198H43.1976L38.7933 40.7198H13.2067Z" fill="#C6C3C3" stroke="black" stroke-width="0.5"/>
<ellipse cx="22.7059" cy="21.1365" rx="1.88235" ry="1.66667" fill="black"/>
<path d="M20.8235 24.4698H34L25.5294 26.9698H24.5882V31.1365V39.4698L22.7059 36.1365H21.2941L19.8824 39.4698L18 29.8865L20.8235 24.4698Z" fill="black"/>
<mask id="path-6-inside-2_9_160" fill="white">
<path d="M34 28.6365C34 29.557 32.5252 30.3032 30.7059 30.3032C28.8866 30.3032 27.4118 29.557 27.4118 28.6365C27.4118 27.716 28.8866 26.9698 30.7059 26.9698C32.5252 26.9698 34 27.716 34 28.6365ZM30.1943 28.6365C30.1943 28.7795 30.4233 28.8953 30.7059 28.8953C30.9884 28.8953 31.2175 28.7795 31.2175 28.6365C31.2175 28.4936 30.9884 28.3777 30.7059 28.3777C30.4233 28.3777 30.1943 28.4936 30.1943 28.6365Z"/>
</mask>
<path d="M34 28.6365C34 29.557 32.5252 30.3032 30.7059 30.3032C28.8866 30.3032 27.4118 29.557 27.4118 28.6365C27.4118 27.716 28.8866 26.9698 30.7059 26.9698C32.5252 26.9698 34 27.716 34 28.6365ZM30.1943 28.6365C30.1943 28.7795 30.4233 28.8953 30.7059 28.8953C30.9884 28.8953 31.2175 28.7795 31.2175 28.6365C31.2175 28.4936 30.9884 28.3777 30.7059 28.3777C30.4233 28.3777 30.1943 28.4936 30.1943 28.6365Z" fill="#ECCF38" stroke="black" stroke-width="0.4" mask="url(#path-6-inside-2_9_160)"/>
<path d="M27.4118 31.1365H34L33.0588 38.6365H28.8235L27.4118 31.1365Z" fill="black"/>
</svg>
