<svg width="109" height="38" viewBox="0 0 109 38" fill="none" xmlns="http://www.w3.org/2000/svg">
				<path d="M86.25 9.5V0.25H108.75V24.75H54.5H54.2086L54.2529 25.038L54.4193 26.1197C54.9201 29.375 53.619 32.6463 51.0192 34.6683C50.9174 34.7476 50.8079 34.8165 50.6925 34.8742L50.4616 34.9897C49.4465 35.4973 48.3509 35.8246 47.2238 35.9572L40.4799 36.7506L28.9891 37.2502L28.9881 37.2503L18.5003 37.7497L8.56179 37.2528L7.79741 36.8931C3.19048 34.7251 0.25 30.0915 0.25 25C0.25 20.1246 2.80798 15.6068 6.98857 13.0984L10.0634 11.2535L28.4257 12.1833C42.4602 12.8939 56.5279 12.5772 70.5162 11.2359L86.0239 9.74886L86.25 9.72717V9.5Z" fill="url(#paint0_linear_8_120)" stroke="black" stroke-width="0.5"/>
				<defs>
					<linearGradient id="paint0_linear_8_120" x1="1" y1="12" x2="109" y2="12" gradientUnits="userSpaceOnUse">
						<stop stop-color="#D5DEE7"/>
						<stop offset="0.5" stop-color="#E8EBF2"/>
						<stop offset="1" stop-color="#E2E7ED"/>
					</linearGradient>
				</defs>
			</svg>
