<svg width="315" height="27" viewBox="0 0 315 27" fill="none" xmlns="http://www.w3.org/2000/svg">
<rect x="0.25" y="0.25" width="314.5" height="26.5" fill="#BEEBFF" stroke="black" stroke-width="0.5"/>
<line x1="9.5" y1="1" x2="9.5" y2="9" stroke="black"/>
<line x1="29.5" y1="1" x2="29.5" y2="9" stroke="black"/>
<line x1="29.5" y1="1" x2="29.5" y2="16" stroke="black"/>
<line x1="19.5" y1="1" x2="19.5" y2="9" stroke="black"/>
<line x1="39.5" y1="1" x2="39.5" y2="9" stroke="black"/>
<line x1="49.5" y1="1" x2="49.5" y2="9" stroke="black"/>
<line x1="59.5" y1="1" x2="59.5" y2="16" stroke="black"/>
<line x1="69.5" y1="1" x2="69.5" y2="9" stroke="black"/>
<line x1="89.5" y1="1" x2="89.5" y2="16" stroke="black"/>
<line x1="79.5" y1="1" x2="79.5" y2="9" stroke="black"/>
<line x1="99.5" y1="1" x2="99.5" y2="9" stroke="black"/>
<line x1="109.5" y1="1" x2="109.5" y2="9" stroke="black"/>
<line x1="119.5" y1="1" x2="119.5" y2="16" stroke="black"/>
<line x1="129.5" y1="1" x2="129.5" y2="9" stroke="black"/>
<line x1="149.5" y1="1" x2="149.5" y2="16" stroke="black"/>
<line x1="139.5" y1="1" x2="139.5" y2="9" stroke="black"/>
<line x1="159.5" y1="1" x2="159.5" y2="9" stroke="black"/>
<line x1="169.5" y1="1" x2="169.5" y2="9" stroke="black"/>
<line x1="179.5" y1="1" x2="179.5" y2="16" stroke="black"/>
<path d="M25 19V19C25.3064 18.3871 25.9328 18 26.618 18H27.3707C27.7564 18 28.1094 18.2189 28.2819 18.5638V18.5638C28.4251 18.8502 28.5 19.1667 28.5 19.4868V19.4868C28.5 20.1198 28.1837 20.7109 27.657 21.062L25.5 22.5H29" stroke="black"/>
<path d="M180 19V19C180.306 18.3871 180.933 18 181.618 18H182.371C182.756 18 183.109 18.2189 183.282 18.5638V18.5638C183.425 18.8502 183.5 19.1667 183.5 19.4868V19.4868C183.5 20.1198 183.184 20.7109 182.657 21.062L180.5 22.5H184" stroke="black"/>
<path d="M291 19V19C291.306 18.3871 291.933 18 292.618 18H293.371C293.756 18 294.109 18.2189 294.282 18.5638V18.5638C294.425 18.8502 294.5 19.1667 294.5 19.4868V19.4868C294.5 20.1198 294.184 20.7109 293.657 21.062L291.5 22.5H295" stroke="black"/>
<path d="M56 17V19V19C56 19.5523 56.4477 20 57 20H59M59 22.5V20M59 17V20" stroke="black"/>
<path d="M89 18H87.1701C86.7594 18 86.384 18.232 86.2003 18.5994V18.5994C86.0686 18.8628 86 19.1534 86 19.4479V20M86 20V21.3837C86 22.0002 86.4998 22.5 87.1163 22.5H88C88.5523 22.5 89 22.0523 89 21.5V21.5V21.5C89 20.6716 88.3284 20 87.5 20H86Z" stroke="black"/>
<path d="M118.5 20H117M118.5 20L119.198 20.6976C119.391 20.8912 119.5 21.1539 119.5 21.4277V21.4277C119.5 22.0199 119.02 22.5 118.428 22.5H117.061C116.475 22.5 116 22.0251 116 21.4393V21.4393C116 21.158 116.112 20.8883 116.311 20.6893L117 20M118.5 20L119.09 19.4098C119.335 19.1651 119.396 18.7912 119.241 18.4816V18.4816C119.093 18.1864 118.792 18 118.462 18H117.119C117.041 18 116.964 18.0182 116.894 18.0532V18.0532C116.419 18.2904 116.26 18.8899 116.554 19.3313L117 20" stroke="black"/>
<path d="M145 17V22.5" stroke="black"/>
<path d="M204 17V22.5" stroke="black"/>
<path d="M233 17V22.5" stroke="black"/>
<path d="M263 17V22.5" stroke="black"/>
<path d="M177 17V22.5" stroke="black"/>
<path d="M151 19.4472C151 21.104 150.657 22.5 149 22.5C147.343 22.5 147 21.1569 147 19.5C147 17.8431 147.5 17 149 17C150.5 17 151 17.7903 151 19.4472ZM148 20C148 20.5 147.925 21.4472 149 21.4472C150.075 21.4472 150 20.5 150 20C150 18.9246 150 18 149 18C147.925 18 148 18.9246 148 20Z" fill="black"/>
<line x1="189.5" y1="1" x2="189.5" y2="9" stroke="black"/>
<line x1="199.5" y1="1" x2="199.5" y2="9" stroke="black"/>
<line x1="209.5" y1="1" x2="209.5" y2="16" stroke="black"/>
<line x1="219.5" y1="1" x2="219.5" y2="9" stroke="black"/>
<line x1="239.5" y1="1" x2="239.5" y2="16" stroke="black"/>
<line x1="229.5" y1="1" x2="229.5" y2="9" stroke="black"/>
<line x1="249.5" y1="1" x2="249.5" y2="9" stroke="black"/>
<line x1="259.5" y1="1" x2="259.5" y2="9" stroke="black"/>
<line x1="269.5" y1="1" x2="269.5" y2="16" stroke="black"/>
<line x1="279.5" y1="1" x2="279.5" y2="9" stroke="black"/>
<line x1="289.5" y1="1" x2="289.5" y2="9" stroke="black"/>
<line x1="299.5" y1="1" x2="299.5" y2="16" stroke="black"/>
<path d="M206 17V19V19C206 19.5523 206.448 20 207 20H209M209 22.5V20M209 17V20" stroke="black"/>
<path d="M239 18H237.17C236.759 18 236.384 18.232 236.2 18.5994V18.5994C236.069 18.8628 236 19.1534 236 19.4479V20M236 20V21.3837C236 22.0002 236.5 22.5 237.116 22.5H238C238.552 22.5 239 22.0523 239 21.5V21.5V21.5C239 20.6716 238.328 20 237.5 20H236Z" stroke="black"/>
<path d="M268.5 20H267M268.5 20L269.198 20.6976C269.391 20.8912 269.5 21.1539 269.5 21.4277V21.4277C269.5 22.0199 269.02 22.5 268.428 22.5H267.061C266.475 22.5 266 22.0251 266 21.4393V21.4393C266 21.158 266.112 20.8883 266.311 20.6893L267 20M268.5 20L269.09 19.4098C269.335 19.1651 269.396 18.7912 269.241 18.4816V18.4816C269.093 18.1864 268.792 18 268.462 18H267.119C267.041 18 266.964 18.0182 266.894 18.0532V18.0532C266.419 18.2904 266.26 18.8899 266.554 19.3313L267 20" stroke="black"/>
<path d="M301 19.4472C301 21.104 300.657 22.5 299 22.5C297.343 22.5 297 21.1569 297 19.5C297 17.8431 297.5 17 299 17C300.5 17 301 17.7903 301 19.4472ZM298 20C298 20.5 297.925 21.4472 299 21.4472C300.075 21.4472 300 20.5 300 20C300 18.9246 300 18 299 18C297.925 18 298 18.9246 298 20Z" fill="black"/>
</svg>
