<svg width="225" height="145" viewBox="0 0 225 145" fill="none" xmlns="http://www.w3.org/2000/svg">
<rect width="225" height="145" fill="#8F6D59"/>
<path d="M38.104 21.048C38.008 21.048 37.9333 21.016 37.88 20.952C37.8373 20.8773 37.816 20.792 37.816 20.696C37.8267 20.536 37.8587 20.44 37.912 20.408C37.9653 20.376 38.0667 20.36 38.216 20.36C38.5253 20.36 38.7547 20.3067 38.904 20.2C39.0533 20.0827 39.144 19.944 39.176 19.784C39.2187 19.6133 39.2453 19.3947 39.256 19.128V12.776C39.2453 12.5093 39.2187 12.296 39.176 12.136C39.144 11.9653 39.0533 11.8267 38.904 11.72C38.7547 11.6027 38.5253 11.544 38.216 11.544H38.12C38.0133 11.544 37.9387 11.528 37.896 11.496C37.8533 11.4533 37.8267 11.3573 37.816 11.208C37.816 11.112 37.8373 11.032 37.88 10.968C37.9333 10.8933 38.008 10.856 38.104 10.856C38.7867 10.888 39.416 10.904 39.992 10.904H46.216C46.8453 10.904 47.5067 10.888 48.2 10.856C48.296 10.856 48.3653 10.8933 48.408 10.968C48.4613 11.032 48.488 11.112 48.488 11.208C48.4773 11.368 48.44 11.464 48.376 11.496C48.3227 11.528 48.2213 11.544 48.072 11.544C47.7627 11.544 47.5333 11.6027 47.384 11.72C47.2347 11.8267 47.1387 11.9653 47.096 12.136C47.064 12.296 47.0427 12.5093 47.032 12.776V19.128C47.0427 19.3947 47.064 19.6133 47.096 19.784C47.1387 19.944 47.2347 20.0827 47.384 20.2C47.5333 20.3067 47.7627 20.36 48.072 20.36H48.168C48.2747 20.36 48.3493 20.3813 48.392 20.424C48.4453 20.456 48.4773 20.5467 48.488 20.696C48.488 20.792 48.4613 20.8773 48.408 20.952C48.3653 21.016 48.296 21.048 48.2 21.048C47.5173 21.016 46.8507 21 46.2 21C45.624 21 44.9893 21.016 44.296 21.048C44.2 21.048 44.1253 21.016 44.072 20.952C44.0293 20.8773 44.008 20.792 44.008 20.696C44.0187 20.536 44.0507 20.44 44.104 20.408C44.168 20.376 44.2693 20.36 44.408 20.36C44.7173 20.36 44.9467 20.3067 45.096 20.2C45.2453 20.0827 45.3413 19.944 45.384 19.784C45.4267 19.624 45.4533 19.4053 45.464 19.128V11.544H41.88C41.5387 11.5333 41.2933 11.5813 41.144 11.688C40.9947 11.7947 40.904 11.928 40.872 12.088C40.8507 12.2373 40.84 12.4667 40.84 12.776V19.128C40.8507 19.3947 40.872 19.6133 40.904 19.784C40.9467 19.944 41.0427 20.0827 41.192 20.2C41.3413 20.3067 41.5707 20.36 41.88 20.36H41.976C42.0827 20.36 42.1573 20.3813 42.2 20.424C42.2427 20.456 42.2693 20.5467 42.28 20.696C42.28 20.792 42.2533 20.8773 42.2 20.952C42.1573 21.016 42.088 21.048 41.992 21.048C41.2987 21.016 40.6373 21 40.008 21C39.432 21 38.7973 21.016 38.104 21.048ZM52.7746 21.192C52.0493 21.192 51.404 21.0213 50.8386 20.68C50.2733 20.328 49.8306 19.8693 49.5106 19.304C49.2013 18.728 49.0466 18.12 49.0466 17.48C49.0466 16.68 49.2333 15.9867 49.6066 15.4C49.98 14.8027 50.4546 14.3493 51.0306 14.04C51.6066 13.72 52.188 13.56 52.7746 13.56C53.5 13.56 54.1453 13.736 54.7106 14.088C55.276 14.4293 55.7133 14.888 56.0226 15.464C56.3426 16.0293 56.5026 16.632 56.5026 17.272C56.5026 18.072 56.3106 18.7707 55.9266 19.368C55.5533 19.9547 55.0786 20.408 54.5026 20.728C53.9266 21.0373 53.3506 21.192 52.7746 21.192ZM52.7746 20.6C53.5 20.6 54.028 20.2907 54.3586 19.672C54.7 19.0533 54.8706 18.2533 54.8706 17.272C54.8706 16.3547 54.6946 15.608 54.3426 15.032C54.0013 14.4453 53.4786 14.152 52.7746 14.152C52.0386 14.152 51.5053 14.456 51.1746 15.064C50.844 15.672 50.6786 16.4667 50.6786 17.448C50.6786 18.3653 50.8493 19.1227 51.1906 19.72C51.532 20.3067 52.06 20.6 52.7746 20.6ZM58.728 21.112C58.3227 21.112 57.9707 20.9627 57.672 20.664C57.384 20.3547 57.24 20.0027 57.24 19.608C57.24 19.3413 57.32 19.1173 57.48 18.936C57.6507 18.744 57.8747 18.648 58.152 18.648C58.2587 18.648 58.344 18.6587 58.408 18.68C58.472 18.7013 58.5093 18.728 58.52 18.76C58.52 18.7813 58.504 18.8347 58.472 18.92C58.44 19.0053 58.424 19.1067 58.424 19.224C58.424 19.4053 58.4933 19.576 58.632 19.736C58.7707 19.896 58.9467 19.976 59.16 19.976C59.5973 19.976 59.9067 19.6453 60.088 18.984C60.28 18.3227 60.408 17.6133 60.472 16.856C60.504 16.4827 60.52 15.9493 60.52 15.256C60.52 14.9573 60.4667 14.7387 60.36 14.6C60.264 14.4507 60.04 14.376 59.688 14.376H59.592C59.5067 14.376 59.4427 14.36 59.4 14.328C59.3573 14.296 59.3307 14.216 59.32 14.088C59.32 13.992 59.3413 13.9067 59.384 13.832C59.4267 13.7467 59.4907 13.704 59.576 13.704C60.2053 13.736 60.7547 13.752 61.224 13.752H64.376C64.856 13.752 65.4107 13.736 66.04 13.704C66.1253 13.704 66.1893 13.7467 66.232 13.832C66.2747 13.9067 66.296 13.992 66.296 14.088C66.2853 14.2267 66.2533 14.312 66.2 14.344C66.1573 14.3653 66.0667 14.376 65.928 14.376C65.6507 14.376 65.4533 14.424 65.336 14.52C65.2187 14.616 65.1493 14.728 65.128 14.856C65.1067 14.984 65.096 15.1867 65.096 15.464V19.352C65.096 19.6293 65.1067 19.832 65.128 19.96C65.1493 20.088 65.2187 20.2 65.336 20.296C65.4533 20.392 65.6507 20.44 65.928 20.44H66.024C66.1093 20.44 66.1733 20.456 66.216 20.488C66.2587 20.52 66.2853 20.6 66.296 20.728C66.296 20.8133 66.2747 20.888 66.232 20.952C66.1893 21.016 66.1253 21.048 66.04 21.048C65.4213 21.016 64.8667 21 64.376 21C63.9493 21 63.4373 21.016 62.84 21.048C62.7547 21.048 62.6907 21.016 62.648 20.952C62.6053 20.888 62.584 20.8133 62.584 20.728C62.5947 20.5893 62.6213 20.5093 62.664 20.488C62.7173 20.456 62.808 20.44 62.936 20.44C63.1813 20.4507 63.352 20.4187 63.448 20.344C63.544 20.2587 63.5973 20.1627 63.608 20.056C63.6187 19.9493 63.6293 19.7147 63.64 19.352V14.264H62.088C61.736 14.264 61.512 14.3387 61.416 14.488C61.3307 14.6373 61.288 14.808 61.288 15C61.288 15.1813 61.288 15.2987 61.288 15.352C61.2453 16.504 61.176 17.3787 61.08 17.976C60.9307 18.8933 60.696 19.6453 60.376 20.232C60.056 20.8187 59.5067 21.112 58.728 21.112ZM74.491 21.112C74.075 21.1227 73.7337 21.0427 73.467 20.872C73.2003 20.7013 72.987 20.488 72.827 20.232C72.667 19.9653 72.4963 19.6187 72.315 19.192C72.1337 18.7867 71.9737 18.472 71.835 18.248C71.707 18.0133 71.531 17.816 71.307 17.656C71.083 17.496 70.8057 17.416 70.475 17.416H69.979V19.352C69.979 19.6293 69.9897 19.832 70.011 19.96C70.0323 20.088 70.1017 20.2 70.219 20.296C70.3363 20.392 70.5337 20.44 70.811 20.44H70.907C70.9923 20.44 71.0563 20.456 71.099 20.488C71.1417 20.52 71.1683 20.6 71.179 20.728C71.179 20.8133 71.1577 20.888 71.115 20.952C71.0723 21.016 71.0083 21.048 70.923 21.048C70.3043 21.016 69.7443 21 69.243 21C68.8163 21 68.299 21.016 67.691 21.048C67.6163 21.048 67.5577 21.016 67.515 20.952C67.4723 20.888 67.451 20.8133 67.451 20.728C67.4617 20.5893 67.4883 20.5093 67.531 20.488C67.5843 20.456 67.675 20.44 67.803 20.44C68.0483 20.4507 68.219 20.4187 68.315 20.344C68.411 20.2587 68.4643 20.1627 68.475 20.056C68.4857 19.9493 68.4963 19.7147 68.507 19.352V15.4C68.507 15.336 68.5017 15.1813 68.491 14.936C68.491 14.6907 68.4377 14.5253 68.331 14.44C68.2243 14.344 68.0483 14.3013 67.803 14.312H67.707C67.6217 14.312 67.5577 14.296 67.515 14.264C67.483 14.232 67.4617 14.152 67.451 14.024C67.451 13.9387 67.4723 13.864 67.515 13.8C67.5577 13.736 67.6163 13.704 67.691 13.704C68.299 13.736 68.8163 13.752 69.243 13.752C69.7337 13.752 70.2937 13.736 70.923 13.704C71.0083 13.704 71.0723 13.736 71.115 13.8C71.1577 13.864 71.179 13.9387 71.179 14.024C71.1683 14.1627 71.1363 14.248 71.083 14.28C71.0403 14.3013 70.9497 14.312 70.811 14.312C70.5337 14.312 70.3363 14.36 70.219 14.456C70.1017 14.552 70.0323 14.664 70.011 14.792C69.9897 14.92 69.979 15.1227 69.979 15.4V16.936H70.715C71.1737 16.936 71.563 16.6267 71.883 16.008C71.9577 15.8693 72.0163 15.7413 72.059 15.624C72.1123 15.5067 72.1603 15.4053 72.203 15.32C72.3523 14.9573 72.491 14.664 72.619 14.44C72.747 14.216 72.9177 14.0187 73.131 13.848C73.355 13.6773 73.627 13.5813 73.947 13.56C74.3417 13.56 74.6563 13.6827 74.891 13.928C75.1363 14.1627 75.259 14.4347 75.259 14.744C75.259 14.936 75.2057 15.1013 75.099 15.24C75.003 15.3787 74.8857 15.4907 74.747 15.576C74.619 15.6507 74.507 15.688 74.411 15.688C74.379 15.688 74.347 15.6827 74.315 15.672C74.2937 15.6613 74.283 15.6347 74.283 15.592C74.283 15.368 74.2297 15.1813 74.123 15.032C74.0163 14.872 73.8723 14.792 73.691 14.792C73.4137 14.792 73.195 14.888 73.035 15.08C72.8857 15.272 72.7683 15.4747 72.683 15.688C72.5977 15.8907 72.5337 16.0347 72.491 16.12C72.2243 16.6 71.9417 16.9093 71.643 17.048V17.08C72.0803 17.1013 72.443 17.224 72.731 17.448C73.0297 17.6613 73.2643 17.9173 73.435 18.216C73.6057 18.504 73.787 18.872 73.979 19.32C74.139 19.7147 74.2777 20.008 74.395 20.2C74.523 20.3813 74.6777 20.472 74.859 20.472C74.9977 20.472 75.1043 20.44 75.179 20.376C75.2537 20.312 75.3283 20.2213 75.403 20.104C75.4883 19.976 75.5577 19.912 75.611 19.912H75.627C75.7123 19.912 75.7763 19.944 75.819 20.008C75.8617 20.072 75.8723 20.1467 75.851 20.232C75.7977 20.52 75.6323 20.7387 75.355 20.888C75.0777 21.0373 74.7897 21.112 74.491 21.112ZM78.688 21.192C78.048 21.192 77.5307 21.0107 77.136 20.648C76.7413 20.2853 76.544 19.832 76.544 19.288C76.544 18.616 76.768 18.1147 77.216 17.784C77.664 17.4427 78.1973 17.224 78.816 17.128C79.4347 17.0213 80.2347 16.9413 81.216 16.888V15.624C81.216 15.1013 81.0827 14.7067 80.816 14.44C80.56 14.1627 80.144 14.024 79.568 14.024C79.2373 14.024 78.9493 14.1253 78.704 14.328C78.4587 14.5307 78.336 14.8027 78.336 15.144C78.336 15.3147 78.3733 15.4587 78.448 15.576C78.5333 15.6827 78.6187 15.7733 78.704 15.848C78.8 15.9227 78.848 15.9653 78.848 15.976C78.848 16.04 78.7787 16.1253 78.64 16.232C78.512 16.328 78.352 16.376 78.16 16.376C77.84 16.376 77.584 16.2587 77.392 16.024C77.2107 15.7893 77.12 15.512 77.12 15.192C77.12 14.6373 77.3653 14.2267 77.856 13.96C78.3573 13.6933 78.96 13.56 79.664 13.56C80.5387 13.56 81.248 13.7253 81.792 14.056C82.3467 14.3867 82.624 15 82.624 15.896V19.624C82.6347 19.848 82.704 20.0613 82.832 20.264C82.96 20.4667 83.168 20.568 83.456 20.568C83.5413 20.568 83.6 20.584 83.632 20.616C83.6747 20.648 83.696 20.7173 83.696 20.824C83.696 20.952 83.5947 21.0427 83.392 21.096C83.2 21.16 83.008 21.192 82.816 21.192C82.4107 21.192 82.0533 21.0747 81.744 20.84C81.4347 20.6053 81.2587 20.2907 81.216 19.896C80.992 20.312 80.6453 20.632 80.176 20.856C79.7173 21.08 79.2213 21.192 78.688 21.192ZM79.2 20.328C79.5627 20.328 79.8987 20.2373 80.208 20.056C80.5173 19.8747 80.7627 19.6293 80.944 19.32C81.1253 19 81.216 18.648 81.216 18.264V17.352C80.096 17.4373 79.3067 17.6187 78.848 17.896C78.3893 18.1733 78.16 18.6213 78.16 19.24C78.16 19.9653 78.5067 20.328 79.2 20.328ZM88.0261 23.064C87.9301 23.064 87.8448 23.0373 87.7701 22.984C87.7061 22.9413 87.6741 22.872 87.6741 22.776V20.744C87.6741 20.4987 87.7968 20.376 88.0421 20.376H88.4581C89.0021 19.768 89.3861 19.0587 89.6101 18.248C89.8448 17.4267 89.9888 16.4987 90.0421 15.464C90.0421 15.1867 90.0315 14.984 90.0101 14.856C89.9888 14.728 89.9195 14.616 89.8021 14.52C89.6848 14.424 89.4875 14.376 89.2101 14.376H89.1141C89.0288 14.376 88.9648 14.36 88.9221 14.328C88.8795 14.296 88.8528 14.216 88.8421 14.088C88.8421 13.992 88.8635 13.9067 88.9061 13.832C88.9488 13.7467 89.0128 13.704 89.0981 13.704C89.7168 13.736 90.2661 13.752 90.7461 13.752H93.8981C94.3888 13.752 94.9435 13.736 95.5621 13.704C95.6475 13.704 95.7115 13.7467 95.7541 13.832C95.7968 13.9067 95.8181 13.992 95.8181 14.088C95.8075 14.2267 95.7755 14.312 95.7221 14.344C95.6795 14.3653 95.5888 14.376 95.4501 14.376C95.1728 14.376 94.9755 14.424 94.8581 14.52C94.7408 14.616 94.6715 14.728 94.6501 14.856C94.6288 14.984 94.6181 15.1867 94.6181 15.464V19.272C94.6181 19.5813 94.6341 19.8053 94.6661 19.944C94.6981 20.0827 94.7781 20.1893 94.9061 20.264C95.0448 20.3387 95.2635 20.376 95.5621 20.376C95.8075 20.376 95.9301 20.4987 95.9301 20.744V22.776C95.9301 22.872 95.8928 22.9413 95.8181 22.984C95.7541 23.0373 95.6741 23.064 95.5781 23.064C95.4608 23.064 95.3541 23.0427 95.2581 23C95.1728 22.9573 95.1248 22.8933 95.1141 22.808C95.0395 22.3067 94.9595 21.9387 94.8741 21.704C94.7995 21.4693 94.6768 21.2933 94.5061 21.176C94.3355 21.0587 94.0795 21 93.7381 21H89.8661C89.5248 21 89.2688 21.0587 89.0981 21.176C88.9275 21.2933 88.7995 21.4693 88.7141 21.704C88.6395 21.9387 88.5648 22.3067 88.4901 22.808C88.4795 22.8933 88.4261 22.9573 88.3301 23C88.2448 23.0427 88.1435 23.064 88.0261 23.064ZM92.5061 20.376C92.7408 20.376 92.9061 20.328 93.0021 20.232C93.1088 20.136 93.1621 19.9227 93.1621 19.592V14.264H91.6421C91.2901 14.264 91.0661 14.3387 90.9701 14.488C90.8848 14.6373 90.8421 14.808 90.8421 15C90.8421 15.1813 90.8421 15.2987 90.8421 15.352C90.7781 16.5253 90.6448 17.512 90.4421 18.312C90.2395 19.112 89.8875 19.8 89.3861 20.376H92.5061ZM98.2124 21.112C97.807 21.112 97.455 20.9627 97.1564 20.664C96.8684 20.3547 96.7244 20.0027 96.7244 19.608C96.7244 19.3413 96.8044 19.1173 96.9644 18.936C97.135 18.744 97.359 18.648 97.6364 18.648C97.743 18.648 97.8284 18.6587 97.8924 18.68C97.9564 18.7013 97.9937 18.728 98.0044 18.76C98.0044 18.7813 97.9884 18.8347 97.9564 18.92C97.9244 19.0053 97.9084 19.1067 97.9084 19.224C97.9084 19.4053 97.9777 19.576 98.1164 19.736C98.255 19.896 98.431 19.976 98.6444 19.976C99.0817 19.976 99.391 19.6453 99.5724 18.984C99.7644 18.3227 99.8924 17.6133 99.9564 16.856C99.9884 16.4827 100.004 15.9493 100.004 15.256C100.004 14.9573 99.951 14.7387 99.8444 14.6C99.7484 14.4507 99.5244 14.376 99.1724 14.376H99.0764C98.991 14.376 98.927 14.36 98.8844 14.328C98.8417 14.296 98.815 14.216 98.8044 14.088C98.8044 13.992 98.8257 13.9067 98.8684 13.832C98.911 13.7467 98.975 13.704 99.0604 13.704C99.6897 13.736 100.239 13.752 100.708 13.752H103.86C104.34 13.752 104.895 13.736 105.524 13.704C105.61 13.704 105.674 13.7467 105.716 13.832C105.759 13.9067 105.78 13.992 105.78 14.088C105.77 14.2267 105.738 14.312 105.684 14.344C105.642 14.3653 105.551 14.376 105.412 14.376C105.135 14.376 104.938 14.424 104.82 14.52C104.703 14.616 104.634 14.728 104.612 14.856C104.591 14.984 104.58 15.1867 104.58 15.464V19.352C104.58 19.6293 104.591 19.832 104.612 19.96C104.634 20.088 104.703 20.2 104.82 20.296C104.938 20.392 105.135 20.44 105.412 20.44H105.508C105.594 20.44 105.658 20.456 105.7 20.488C105.743 20.52 105.77 20.6 105.78 20.728C105.78 20.8133 105.759 20.888 105.716 20.952C105.674 21.016 105.61 21.048 105.524 21.048C104.906 21.016 104.351 21 103.86 21C103.434 21 102.922 21.016 102.324 21.048C102.239 21.048 102.175 21.016 102.132 20.952C102.09 20.888 102.068 20.8133 102.068 20.728C102.079 20.5893 102.106 20.5093 102.148 20.488C102.202 20.456 102.292 20.44 102.42 20.44C102.666 20.4507 102.836 20.4187 102.932 20.344C103.028 20.2587 103.082 20.1627 103.092 20.056C103.103 19.9493 103.114 19.7147 103.124 19.352V14.264H101.572C101.22 14.264 100.996 14.3387 100.9 14.488C100.815 14.6373 100.772 14.808 100.772 15C100.772 15.1813 100.772 15.2987 100.772 15.352C100.73 16.504 100.66 17.3787 100.564 17.976C100.415 18.8933 100.18 19.6453 99.8604 20.232C99.5404 20.8187 98.991 21.112 98.2124 21.112ZM107.879 21.112C107.613 21.112 107.373 21.064 107.159 20.968C106.946 20.8613 106.775 20.7333 106.647 20.584C106.53 20.4347 106.471 20.296 106.471 20.168C106.471 19.9973 106.557 19.912 106.727 19.912C106.802 19.912 106.887 19.9813 106.983 20.12C107.058 20.2267 107.133 20.312 107.207 20.376C107.282 20.44 107.378 20.472 107.495 20.472C107.709 20.472 107.89 20.3813 108.039 20.2C108.199 20.0187 108.397 19.7307 108.631 19.336C108.695 19.24 108.754 19.1493 108.807 19.064C108.861 18.968 108.909 18.888 108.951 18.824C109.175 18.4827 109.41 18.2213 109.655 18.04C109.901 17.848 110.205 17.704 110.567 17.608V17.576C110.247 17.5653 109.927 17.5067 109.607 17.4C109.287 17.2933 109.01 17.144 108.775 16.952C108.381 16.6213 108.183 16.2 108.183 15.688C108.183 15.0373 108.445 14.552 108.967 14.232C109.501 13.912 110.215 13.752 111.111 13.752H113.367C113.858 13.752 114.413 13.736 115.031 13.704C115.106 13.704 115.165 13.736 115.207 13.8C115.25 13.864 115.271 13.9387 115.271 14.024C115.261 14.1627 115.229 14.248 115.175 14.28C115.133 14.3013 115.042 14.312 114.903 14.312C114.626 14.312 114.429 14.36 114.311 14.456C114.194 14.552 114.125 14.664 114.103 14.792C114.093 14.92 114.087 15.1227 114.087 15.4V19.352C114.087 19.6293 114.093 19.832 114.103 19.96C114.125 20.088 114.194 20.2 114.311 20.296C114.429 20.392 114.626 20.44 114.903 20.44H114.999C115.095 20.44 115.159 20.456 115.191 20.488C115.234 20.52 115.261 20.6 115.271 20.728C115.271 20.8133 115.25 20.888 115.207 20.952C115.165 21.016 115.106 21.048 115.031 21.048C114.413 21.016 113.858 21 113.367 21C112.941 21 112.423 21.016 111.815 21.048C111.73 21.048 111.666 21.016 111.623 20.952C111.581 20.888 111.559 20.8133 111.559 20.728C111.57 20.5893 111.597 20.5093 111.639 20.488C111.693 20.456 111.783 20.44 111.911 20.44C112.231 20.4507 112.429 20.3973 112.503 20.28C112.578 20.152 112.615 19.9867 112.615 19.784C112.615 19.5707 112.615 19.4267 112.615 19.352V17.72H112.247C111.778 17.72 111.405 17.8533 111.127 18.12C110.861 18.376 110.578 18.7653 110.279 19.288C110.045 19.704 109.837 20.0293 109.655 20.264C109.474 20.4987 109.239 20.7013 108.951 20.872C108.663 21.032 108.306 21.112 107.879 21.112ZM112.615 17.272V14.824C112.615 14.6 112.525 14.456 112.343 14.392C112.173 14.328 111.89 14.296 111.495 14.296C110.962 14.296 110.541 14.424 110.231 14.68C109.922 14.936 109.767 15.3093 109.767 15.8C109.767 16.2907 109.981 16.68 110.407 16.968C110.759 17.1707 111.261 17.272 111.911 17.272H112.615ZM119.854 23.064C119.758 23.064 119.673 23.0373 119.598 22.984C119.534 22.9413 119.502 22.872 119.502 22.776V20.744C119.502 20.4987 119.625 20.376 119.87 20.376H120.286C120.83 19.768 121.214 19.0587 121.438 18.248C121.673 17.4267 121.817 16.4987 121.87 15.464C121.87 15.1867 121.86 14.984 121.838 14.856C121.817 14.728 121.748 14.616 121.63 14.52C121.513 14.424 121.316 14.376 121.038 14.376H120.942C120.857 14.376 120.793 14.36 120.75 14.328C120.708 14.296 120.681 14.216 120.67 14.088C120.67 13.992 120.692 13.9067 120.734 13.832C120.777 13.7467 120.841 13.704 120.926 13.704C121.545 13.736 122.094 13.752 122.574 13.752H125.726C126.217 13.752 126.772 13.736 127.39 13.704C127.476 13.704 127.54 13.7467 127.582 13.832C127.625 13.9067 127.646 13.992 127.646 14.088C127.636 14.2267 127.604 14.312 127.55 14.344C127.508 14.3653 127.417 14.376 127.278 14.376C127.001 14.376 126.804 14.424 126.686 14.52C126.569 14.616 126.5 14.728 126.478 14.856C126.457 14.984 126.446 15.1867 126.446 15.464V19.272C126.446 19.5813 126.462 19.8053 126.494 19.944C126.526 20.0827 126.606 20.1893 126.734 20.264C126.873 20.3387 127.092 20.376 127.39 20.376C127.636 20.376 127.758 20.4987 127.758 20.744V22.776C127.758 22.872 127.721 22.9413 127.646 22.984C127.582 23.0373 127.502 23.064 127.406 23.064C127.289 23.064 127.182 23.0427 127.086 23C127.001 22.9573 126.953 22.8933 126.942 22.808C126.868 22.3067 126.788 21.9387 126.702 21.704C126.628 21.4693 126.505 21.2933 126.334 21.176C126.164 21.0587 125.908 21 125.566 21H121.694C121.353 21 121.097 21.0587 120.926 21.176C120.756 21.2933 120.628 21.4693 120.542 21.704C120.468 21.9387 120.393 22.3067 120.318 22.808C120.308 22.8933 120.254 22.9573 120.158 23C120.073 23.0427 119.972 23.064 119.854 23.064ZM124.334 20.376C124.569 20.376 124.734 20.328 124.83 20.232C124.937 20.136 124.99 19.9227 124.99 19.592V14.264H123.47C123.118 14.264 122.894 14.3387 122.798 14.488C122.713 14.6373 122.67 14.808 122.67 15C122.67 15.1813 122.67 15.2987 122.67 15.352C122.606 16.5253 122.473 17.512 122.27 18.312C122.068 19.112 121.716 19.8 121.214 20.376H124.334ZM132.228 21.192C131.428 21.192 130.745 21.0213 130.18 20.68C129.625 20.3387 129.204 19.8747 128.916 19.288C128.628 18.7013 128.484 18.0507 128.484 17.336C128.484 16.7067 128.628 16.104 128.916 15.528C129.215 14.9413 129.636 14.4667 130.18 14.104C130.724 13.7413 131.348 13.56 132.052 13.56C133.001 13.56 133.732 13.8053 134.244 14.296C134.756 14.776 135.049 15.4267 135.124 16.248C135.124 16.6 135.028 16.84 134.836 16.968C134.644 17.096 134.367 17.16 134.004 17.16H130.116C130.116 18.152 130.319 18.9413 130.724 19.528C131.14 20.104 131.78 20.392 132.644 20.392C133.103 20.392 133.492 20.296 133.812 20.104C134.132 19.9013 134.436 19.5653 134.724 19.096C134.777 19.0427 134.831 19.016 134.884 19.016C134.959 19.016 135.023 19.0373 135.076 19.08C135.183 19.144 135.236 19.24 135.236 19.368C135.236 19.432 135.225 19.48 135.204 19.512C134.873 20.0453 134.452 20.4613 133.94 20.76C133.439 21.048 132.868 21.192 132.228 21.192ZM132.724 16.552C133.268 16.552 133.556 16.328 133.588 15.88C133.588 15.3893 133.455 14.9733 133.188 14.632C132.921 14.2907 132.543 14.12 132.052 14.12C131.508 14.12 131.06 14.3387 130.708 14.776C130.356 15.2027 130.159 15.7947 130.116 16.552H132.724ZM138.195 21.048C138.121 21.048 138.057 21.016 138.003 20.952C137.961 20.888 137.939 20.8133 137.939 20.728C137.95 20.5893 137.977 20.5093 138.019 20.488C138.073 20.456 138.169 20.44 138.307 20.44C138.585 20.44 138.782 20.392 138.899 20.296C139.017 20.2 139.086 20.088 139.107 19.96C139.129 19.832 139.139 19.6293 139.139 19.352V14.264H138.435C138.105 14.264 137.854 14.3333 137.683 14.472C137.513 14.6 137.39 14.792 137.315 15.048C137.241 15.2933 137.166 15.672 137.091 16.184C137.081 16.2693 137.027 16.3333 136.931 16.376C136.835 16.4187 136.729 16.44 136.611 16.44C136.526 16.44 136.446 16.4133 136.371 16.36C136.297 16.3067 136.259 16.2373 136.259 16.152L136.307 14.12C136.307 13.8747 136.435 13.752 136.691 13.752H143.043C143.299 13.752 143.427 13.8747 143.427 14.12L143.475 16.152C143.475 16.2373 143.438 16.3067 143.363 16.36C143.289 16.4133 143.209 16.44 143.123 16.44C143.006 16.44 142.899 16.4187 142.803 16.376C142.707 16.3333 142.654 16.2693 142.643 16.184C142.569 15.6933 142.489 15.32 142.403 15.064C142.318 14.7973 142.185 14.6 142.003 14.472C141.822 14.3333 141.566 14.264 141.235 14.264H140.595V19.352C140.595 19.416 140.595 19.5707 140.595 19.816C140.606 20.0613 140.665 20.232 140.771 20.328C140.878 20.4133 141.054 20.4507 141.299 20.44H141.395C141.481 20.44 141.539 20.456 141.571 20.488C141.614 20.52 141.641 20.6 141.651 20.728C141.651 20.8133 141.63 20.888 141.587 20.952C141.545 21.016 141.486 21.048 141.411 21.048C140.803 21.016 140.286 21 139.859 21C139.379 21 138.825 21.016 138.195 21.048ZM146.563 21.192C145.923 21.192 145.406 21.0107 145.011 20.648C144.616 20.2853 144.419 19.832 144.419 19.288C144.419 18.616 144.643 18.1147 145.091 17.784C145.539 17.4427 146.072 17.224 146.691 17.128C147.31 17.0213 148.11 16.9413 149.091 16.888V15.624C149.091 15.1013 148.958 14.7067 148.691 14.44C148.435 14.1627 148.019 14.024 147.443 14.024C147.112 14.024 146.824 14.1253 146.579 14.328C146.334 14.5307 146.211 14.8027 146.211 15.144C146.211 15.3147 146.248 15.4587 146.323 15.576C146.408 15.6827 146.494 15.7733 146.579 15.848C146.675 15.9227 146.723 15.9653 146.723 15.976C146.723 16.04 146.654 16.1253 146.515 16.232C146.387 16.328 146.227 16.376 146.035 16.376C145.715 16.376 145.459 16.2587 145.267 16.024C145.086 15.7893 144.995 15.512 144.995 15.192C144.995 14.6373 145.24 14.2267 145.731 13.96C146.232 13.6933 146.835 13.56 147.539 13.56C148.414 13.56 149.123 13.7253 149.667 14.056C150.222 14.3867 150.499 15 150.499 15.896V19.624C150.51 19.848 150.579 20.0613 150.707 20.264C150.835 20.4667 151.043 20.568 151.331 20.568C151.416 20.568 151.475 20.584 151.507 20.616C151.55 20.648 151.571 20.7173 151.571 20.824C151.571 20.952 151.47 21.0427 151.267 21.096C151.075 21.16 150.883 21.192 150.691 21.192C150.286 21.192 149.928 21.0747 149.619 20.84C149.31 20.6053 149.134 20.2907 149.091 19.896C148.867 20.312 148.52 20.632 148.051 20.856C147.592 21.08 147.096 21.192 146.563 21.192ZM147.075 20.328C147.438 20.328 147.774 20.2373 148.083 20.056C148.392 19.8747 148.638 19.6293 148.819 19.32C149 19 149.091 18.648 149.091 18.264V17.352C147.971 17.4373 147.182 17.6187 146.723 17.896C146.264 18.1733 146.035 18.6213 146.035 19.24C146.035 19.9653 146.382 20.328 147.075 20.328ZM153.619 21.112C153.213 21.112 152.861 20.9627 152.563 20.664C152.275 20.3547 152.131 20.0027 152.131 19.608C152.131 19.3413 152.211 19.1173 152.371 18.936C152.541 18.744 152.765 18.648 153.043 18.648C153.149 18.648 153.235 18.6587 153.299 18.68C153.363 18.7013 153.4 18.728 153.411 18.76C153.411 18.7813 153.395 18.8347 153.363 18.92C153.331 19.0053 153.315 19.1067 153.315 19.224C153.315 19.4053 153.384 19.576 153.523 19.736C153.661 19.896 153.837 19.976 154.051 19.976C154.488 19.976 154.797 19.6453 154.979 18.984C155.171 18.3227 155.299 17.6133 155.363 16.856C155.395 16.4827 155.411 15.9493 155.411 15.256C155.411 14.9573 155.357 14.7387 155.251 14.6C155.155 14.4507 154.931 14.376 154.579 14.376H154.483C154.397 14.376 154.333 14.36 154.291 14.328C154.248 14.296 154.221 14.216 154.211 14.088C154.211 13.992 154.232 13.9067 154.275 13.832C154.317 13.7467 154.381 13.704 154.467 13.704C155.096 13.736 155.645 13.752 156.115 13.752H159.267C159.747 13.752 160.301 13.736 160.931 13.704C161.016 13.704 161.08 13.7467 161.123 13.832C161.165 13.9067 161.187 13.992 161.187 14.088C161.176 14.2267 161.144 14.312 161.091 14.344C161.048 14.3653 160.957 14.376 160.819 14.376C160.541 14.376 160.344 14.424 160.227 14.52C160.109 14.616 160.04 14.728 160.019 14.856C159.997 14.984 159.987 15.1867 159.987 15.464V19.352C159.987 19.6293 159.997 19.832 160.019 19.96C160.04 20.088 160.109 20.2 160.227 20.296C160.344 20.392 160.541 20.44 160.819 20.44H160.915C161 20.44 161.064 20.456 161.107 20.488C161.149 20.52 161.176 20.6 161.187 20.728C161.187 20.8133 161.165 20.888 161.123 20.952C161.08 21.016 161.016 21.048 160.931 21.048C160.312 21.016 159.757 21 159.267 21C158.84 21 158.328 21.016 157.731 21.048C157.645 21.048 157.581 21.016 157.539 20.952C157.496 20.888 157.475 20.8133 157.475 20.728C157.485 20.5893 157.512 20.5093 157.555 20.488C157.608 20.456 157.699 20.44 157.827 20.44C158.072 20.4507 158.243 20.4187 158.339 20.344C158.435 20.2587 158.488 20.1627 158.499 20.056C158.509 19.9493 158.52 19.7147 158.531 19.352V14.264H156.979C156.627 14.264 156.403 14.3387 156.307 14.488C156.221 14.6373 156.179 14.808 156.179 15C156.179 15.1813 156.179 15.2987 156.179 15.352C156.136 16.504 156.067 17.3787 155.971 17.976C155.821 18.8933 155.587 19.6453 155.267 20.232C154.947 20.8187 154.397 21.112 153.619 21.112ZM166.088 21.192C165.288 21.192 164.605 21.0213 164.039 20.68C163.485 20.3387 163.064 19.8747 162.776 19.288C162.488 18.7013 162.344 18.0507 162.344 17.336C162.344 16.7067 162.488 16.104 162.776 15.528C163.074 14.9413 163.496 14.4667 164.039 14.104C164.584 13.7413 165.208 13.56 165.911 13.56C166.861 13.56 167.592 13.8053 168.104 14.296C168.616 14.776 168.909 15.4267 168.984 16.248C168.984 16.6 168.888 16.84 168.696 16.968C168.504 17.096 168.226 17.16 167.864 17.16H163.976C163.976 18.152 164.178 18.9413 164.584 19.528C165 20.104 165.64 20.392 166.504 20.392C166.962 20.392 167.352 20.296 167.672 20.104C167.992 19.9013 168.296 19.5653 168.584 19.096C168.637 19.0427 168.69 19.016 168.744 19.016C168.818 19.016 168.882 19.0373 168.936 19.08C169.042 19.144 169.096 19.24 169.096 19.368C169.096 19.432 169.085 19.48 169.064 19.512C168.733 20.0453 168.312 20.4613 167.8 20.76C167.298 21.048 166.728 21.192 166.088 21.192ZM166.584 16.552C167.128 16.552 167.416 16.328 167.448 15.88C167.448 15.3893 167.314 14.9733 167.048 14.632C166.781 14.2907 166.402 14.12 165.911 14.12C165.368 14.12 164.92 14.3387 164.568 14.776C164.216 15.2027 164.018 15.7947 163.976 16.552H166.584ZM170.551 21.048C170.465 21.048 170.401 21.016 170.359 20.952C170.316 20.888 170.295 20.8133 170.295 20.728C170.305 20.5893 170.332 20.5093 170.375 20.488C170.428 20.456 170.524 20.44 170.663 20.44C170.94 20.44 171.137 20.392 171.255 20.296C171.372 20.2 171.436 20.0933 171.447 19.976C171.468 19.848 171.479 19.64 171.479 19.352V15.4C171.479 15.3573 171.479 15.224 171.479 15C171.479 14.7653 171.409 14.5947 171.271 14.488C171.143 14.3707 170.94 14.312 170.663 14.312H170.567C170.471 14.312 170.401 14.296 170.359 14.264C170.327 14.232 170.305 14.152 170.295 14.024C170.295 13.9387 170.316 13.864 170.359 13.8C170.401 13.736 170.465 13.704 170.551 13.704C171.159 13.736 171.713 13.752 172.215 13.752C172.631 13.752 173.143 13.736 173.751 13.704C173.836 13.704 173.9 13.736 173.943 13.8C173.985 13.864 174.007 13.9387 174.007 14.024C173.996 14.1627 173.964 14.248 173.911 14.28C173.868 14.3013 173.783 14.312 173.655 14.312C173.409 14.3013 173.239 14.3387 173.143 14.424C173.047 14.4987 172.993 14.5893 172.983 14.696C172.972 14.8027 172.961 15.0373 172.951 15.4V19.16L175.991 15.016C176.375 14.536 176.711 14.2107 176.999 14.04C177.297 13.8693 177.596 13.768 177.895 13.736L178.599 13.704C178.684 13.704 178.748 13.736 178.791 13.8C178.833 13.864 178.855 13.9387 178.855 14.024C178.844 14.1627 178.812 14.248 178.759 14.28C178.716 14.3013 178.625 14.312 178.487 14.312C178.209 14.312 178.012 14.36 177.895 14.456C177.777 14.552 177.708 14.664 177.687 14.792C177.665 14.92 177.655 15.1227 177.655 15.4V19.352C177.655 19.6293 177.665 19.832 177.687 19.96C177.708 20.088 177.777 20.2 177.895 20.296C178.012 20.392 178.209 20.44 178.487 20.44H178.583C178.668 20.44 178.732 20.456 178.775 20.488C178.817 20.52 178.844 20.6 178.855 20.728C178.855 20.8133 178.833 20.888 178.791 20.952C178.748 21.016 178.684 21.048 178.599 21.048C177.98 21.016 177.425 21 176.935 21C176.508 21 175.991 21.016 175.383 21.048C175.308 21.048 175.249 21.016 175.207 20.952C175.164 20.888 175.143 20.8133 175.143 20.728C175.153 20.5893 175.18 20.5093 175.223 20.488C175.276 20.456 175.367 20.44 175.495 20.44C175.74 20.4507 175.911 20.4187 176.007 20.344C176.103 20.2587 176.156 20.1627 176.167 20.056C176.177 19.9493 176.188 19.7147 176.199 19.352V15.8L173.143 19.912C172.855 20.2747 172.551 20.5467 172.231 20.728C171.911 20.8987 171.612 20.9947 171.335 21.016C170.993 21.0373 170.732 21.048 170.551 21.048ZM174.903 12.376C174.22 12.376 173.617 12.2427 173.095 11.976C172.583 11.6987 172.327 11.336 172.327 10.888C172.327 10.6853 172.396 10.52 172.535 10.392C172.684 10.2533 172.892 10.184 173.159 10.184C173.319 10.184 173.431 10.2373 173.495 10.344C173.559 10.44 173.617 10.5947 173.671 10.808C173.735 11.032 173.799 11.2133 173.863 11.352C173.927 11.48 174.039 11.5973 174.199 11.704C174.369 11.8 174.604 11.848 174.903 11.848C175.308 11.848 175.585 11.7627 175.735 11.592C175.884 11.4107 175.996 11.16 176.071 10.84C176.135 10.616 176.199 10.4507 176.263 10.344C176.337 10.2373 176.455 10.184 176.615 10.184C176.871 10.184 177.073 10.2533 177.223 10.392C177.372 10.52 177.447 10.6853 177.447 10.888C177.447 11.336 177.191 11.6987 176.679 11.976C176.167 12.2427 175.575 12.376 174.903 12.376Z" fill="#D2C1B5"/>
<path d="M41.4237 118.636H191.061L216 135H10L41.4237 118.636Z" fill="#D0B9A8"/>
<path d="M41.4237 118.636H191.061L216 135H10L41.4237 118.636Z" fill="black" fill-opacity="0.25"/>
<path d="M191 90H216V135L191 118.636V90Z" fill="#C2AA9A"/>
<path d="M10 90H41V118.636L10 135V90Z" fill="#C2AA9A"/>
<rect x="41" y="90" width="150" height="28.6364" fill="#BBA08D"/>
<line y1="-0.15" x2="35.0538" y2="-0.15" transform="matrix(0.884355 -0.466815 0.125173 0.992135 10 135)" stroke="black" stroke-width="0.3"/>
<line x1="41" y1="118.486" x2="191" y2="118.486" stroke="black" stroke-width="0.3"/>
<line y1="-0.15" x2="29.8792" y2="-0.15" transform="matrix(0.836702 0.547659 -0.154564 0.987983 191 118.636)" stroke="black" stroke-width="0.3"/>
<line x1="41.15" y1="90" x2="41.15" y2="118.636" stroke="black" stroke-width="0.3"/>
<line x1="191.15" y1="90" x2="191.15" y2="118.636" stroke="black" stroke-width="0.3"/>
<path d="M41.4237 63.6364H191.061L216 80H10L41.4237 63.6364Z" fill="#D0B9A8"/>
<path d="M41.4237 63.6364H191.061L216 80H10L41.4237 63.6364Z" fill="black" fill-opacity="0.25"/>
<path d="M191 35H216V80L191 63.6364V35Z" fill="#C2AA9A"/>
<path d="M10 35H41V63.6364L10 80V35Z" fill="#C2AA9A"/>
<rect x="41" y="35" width="150" height="28.6364" fill="#BBA08D"/>
<line y1="-0.15" x2="35.0538" y2="-0.15" transform="matrix(0.884355 -0.466815 0.125173 0.992135 10 80)" stroke="black" stroke-width="0.3"/>
<line x1="41" y1="63.4864" x2="191" y2="63.4864" stroke="black" stroke-width="0.3"/>
<line y1="-0.15" x2="29.8792" y2="-0.15" transform="matrix(0.836702 0.547659 -0.154564 0.987983 191 63.6364)" stroke="black" stroke-width="0.3"/>
<line x1="41.15" y1="35" x2="41.15" y2="63.6364" stroke="black" stroke-width="0.3"/>
<line x1="191.15" y1="35" x2="191.15" y2="63.6364" stroke="black" stroke-width="0.3"/>
</svg>
