<svg width="196" height="55" viewBox="0 0 196 55" fill="none" xmlns="http://www.w3.org/2000/svg">
<mask id="path-1-inside-1_8_119" fill="white">
<path d="M67.4481 27.5C67.4481 42.6878 55.4175 55 40.5771 55C25.7367 55 13.7061 42.6878 13.7061 27.5C13.7061 12.3122 25.7367 0 40.5771 0C55.4175 0 67.4481 12.3122 67.4481 27.5ZM22.9468 27.5C22.9468 37.4649 30.8401 45.543 40.5771 45.543C50.314 45.543 58.2074 37.4649 58.2074 27.5C58.2074 17.5351 50.314 9.45699 40.5771 9.45699C30.8401 9.45699 22.9468 17.5351 22.9468 27.5Z"/>
</mask>
<path d="M67.4481 27.5C67.4481 42.6878 55.4175 55 40.5771 55C25.7367 55 13.7061 42.6878 13.7061 27.5C13.7061 12.3122 25.7367 0 40.5771 0C55.4175 0 67.4481 12.3122 67.4481 27.5ZM22.9468 27.5C22.9468 37.4649 30.8401 45.543 40.5771 45.543C50.314 45.543 58.2074 37.4649 58.2074 27.5C58.2074 17.5351 50.314 9.45699 40.5771 9.45699C30.8401 9.45699 22.9468 17.5351 22.9468 27.5Z" fill="#3A8BEB" stroke="black" mask="url(#path-1-inside-1_8_119)"/>
<path d="M83.8399 7.69501L73.573 11.359C71.0046 12.2757 68.5612 13.5105 66.2999 15.0346C61.4367 18.3123 56.853 21.9867 52.5957 26.0201L39.687 38.25L1.92642 38.25L22.4772 31.8998C27.2193 30.4345 31.7787 28.4329 36.0669 25.9338L52.5525 16.3262L56.2554 14.4018C64.7806 9.97144 74.2454 7.67351 83.8399 7.69501Z" fill="#3A8BEB" stroke="black" stroke-width="0.5"/>
<path d="M102.861 29.9124L106.373 14.3929H116.198V39.8215H110.364L109.585 23.5595L109.09 23.5244L105.967 39.8215H102.617H99.2535L94.9558 23.5078L94.4641 23.5715V39.8215H88.2463V14.3929H98.0803L102.376 29.9238L102.861 29.9124Z" fill="#3A8BEB" stroke="black" stroke-width="0.5"/>
<mask id="path-4-inside-2_8_119" fill="white">
<path fill-rule="evenodd" clip-rule="evenodd" d="M136.601 14.9286H132.65H127.908L118.424 40.0714H127.512V36.1429H132.65H136.996V40.0714H146.48L136.601 14.9286ZM132.65 22.3929H131.859L129.093 30.6429H135.811L132.65 22.3929Z"/>
</mask>
<path fill-rule="evenodd" clip-rule="evenodd" d="M136.601 14.9286H132.65H127.908L118.424 40.0714H127.512V36.1429H132.65H136.996V40.0714H146.48L136.601 14.9286ZM132.65 22.3929H131.859L129.093 30.6429H135.811L132.65 22.3929Z" fill="#3A8BEB"/>
<path d="M136.601 14.9286L137.067 14.7457L136.942 14.4286H136.601V14.9286ZM127.908 14.9286V14.4286H127.562L127.44 14.7521L127.908 14.9286ZM118.424 40.0714L117.956 39.895L117.701 40.5714H118.424V40.0714ZM127.512 40.0714V40.5714H128.012V40.0714H127.512ZM127.512 36.1429V35.6429H127.012V36.1429H127.512ZM136.996 36.1429H137.496V35.6429H136.996V36.1429ZM136.996 40.0714H136.496V40.5714H136.996V40.0714ZM146.48 40.0714V40.5714H147.214L146.946 39.8886L146.48 40.0714ZM131.859 22.3929V21.8929H131.5L131.385 22.2339L131.859 22.3929ZM132.65 22.3929L133.116 22.214L132.993 21.8929H132.65V22.3929ZM129.093 30.6429L128.619 30.4839L128.398 31.1429H129.093V30.6429ZM135.811 30.6429V31.1429H136.538L136.278 30.464L135.811 30.6429ZM132.65 15.4286H136.601V14.4286H132.65V15.4286ZM127.908 15.4286H132.65V14.4286H127.908V15.4286ZM118.892 40.2479L128.375 15.1051L127.44 14.7521L117.956 39.895L118.892 40.2479ZM127.512 39.5714H118.424V40.5714H127.512V39.5714ZM127.012 36.1429V40.0714H128.012V36.1429H127.012ZM132.65 35.6429H127.512V36.6429H132.65V35.6429ZM136.996 35.6429H132.65V36.6429H136.996V35.6429ZM137.496 40.0714V36.1429H136.496V40.0714H137.496ZM146.48 39.5714H136.996V40.5714H146.48V39.5714ZM136.136 15.1114L146.015 40.2543L146.946 39.8886L137.067 14.7457L136.136 15.1114ZM131.859 22.8929H132.65V21.8929H131.859V22.8929ZM129.567 30.8018L132.333 22.5518L131.385 22.2339L128.619 30.4839L129.567 30.8018ZM135.811 30.1429H129.093V31.1429H135.811V30.1429ZM132.183 22.5718L135.344 30.8218L136.278 30.464L133.116 22.214L132.183 22.5718Z" fill="black" mask="url(#path-4-inside-2_8_119)"/>
<path d="M152.532 20.9643H144.879V15.1786H168.089V20.9643H160.435H160.185V21.2143V39.8214H152.782V21.2143V20.9643H152.532Z" fill="#3A8BEB" stroke="black" stroke-width="0.5"/>
<path d="M179.268 39.8214H171.75V15.1786H179.153V28.6786V29.5767L179.617 28.8078L187.843 15.1786H195.75V39.8214H188.347V26.7143V25.8719L187.887 26.5779L179.268 39.8214Z" fill="#3A8BEB" stroke="black" stroke-width="0.5"/>
</svg>
