<svg width="53" height="132" viewBox="0 0 53 132" fill="none" xmlns="http://www.w3.org/2000/svg">
				<path d="M52.75 26.5C52.75 12.0025 40.9975 0.25 26.5 0.25H0.25V131.75H52.75V26.5Z" fill="url(#paint0_linear_9_173)" stroke="black" stroke-width="0.5"/>
				<mask id="path-2-inside-1_9_173" fill="white">
					<path d="M39 79C39 86.1797 33.1797 92 26 92C18.8203 92 13 86.1797 13 79C13 71.8203 18.8203 66 26 66C33.1797 66 39 71.8203 39 79ZM17.4706 79C17.4706 83.7107 21.2893 87.5294 26 87.5294C30.7107 87.5294 34.5294 83.7107 34.5294 79C34.5294 74.2893 30.7107 70.4706 26 70.4706C21.2893 70.4706 17.4706 74.2893 17.4706 79Z"/>
				</mask>
				<path d="M39 79C39 86.1797 33.1797 92 26 92C18.8203 92 13 86.1797 13 79C13 71.8203 18.8203 66 26 66C33.1797 66 39 71.8203 39 79ZM17.4706 79C17.4706 83.7107 21.2893 87.5294 26 87.5294C30.7107 87.5294 34.5294 83.7107 34.5294 79C34.5294 74.2893 30.7107 70.4706 26 70.4706C21.2893 70.4706 17.4706 74.2893 17.4706 79Z" fill="#3A8BEB" stroke="black" mask="url(#path-2-inside-1_9_173)"/>
				<path d="M31.1212 78.2148L24.9805 83.95L7.80849 83.95L13.1781 82.3144C17.8792 80.8823 22.4033 78.9237 26.6643 76.4757L31.2624 73.834L33.0163 72.9355C36.8627 70.965 41.0979 69.8888 45.4064 69.7788L41.2265 71.2493C39.9925 71.6835 38.8172 72.2692 37.7277 72.9931C35.3858 74.5492 33.1761 76.2956 31.1212 78.2148Z" fill="#3A8BEB" stroke="black" stroke-width="0.5"/>
				<path d="M8.41151 106.323L9.87037 99.25H13.75V110.75H11.5727L11.2498 103.353L10.7537 103.321L9.45654 110.75H8.16667H6.86375L5.07643 103.305L4.58333 103.364V110.75H2.25V99.25H6.13853L7.92425 106.334L8.41151 106.323Z" fill="#3A8BEB" stroke="black" stroke-width="0.5"/>
				<mask id="path-5-inside-2_9_173" fill="white">
					<path fill-rule="evenodd" clip-rule="evenodd" d="M23.4225 99H21.5915H19.3944L15 111H19.2113V109.125H21.5915H23.6056V111H28L23.4225 99ZM21.5915 102.562H21.2254L19.9437 106.5H23.0563L21.5915 102.562Z"/>
				</mask>
				<path fill-rule="evenodd" clip-rule="evenodd" d="M23.4225 99H21.5915H19.3944L15 111H19.2113V109.125H21.5915H23.6056V111H28L23.4225 99ZM21.5915 102.562H21.2254L19.9437 106.5H23.0563L21.5915 102.562Z" fill="#3A8BEB"/>
				<path d="M23.4225 99L23.8897 98.8218L23.7669 98.5H23.4225V99ZM19.3944 99V98.5H19.045L18.9249 98.8281L19.3944 99ZM15 111L14.5305 110.828L14.2844 111.5H15V111ZM19.2113 111V111.5H19.7113V111H19.2113ZM19.2113 109.125V108.625H18.7113V109.125H19.2113ZM23.6056 109.125H24.1056V108.625H23.6056V109.125ZM23.6056 111H23.1056V111.5H23.6056V111ZM28 111V111.5H28.7259L28.4672 110.822L28 111ZM21.2254 102.562V102.062H20.8623L20.7499 102.408L21.2254 102.562ZM21.5915 102.562L22.0602 102.388L21.939 102.062H21.5915V102.562ZM19.9437 106.5L19.4682 106.345L19.2551 107H19.9437V106.5ZM23.0563 106.5V107H23.7758L23.525 106.326L23.0563 106.5ZM21.5915 99.5H23.4225V98.5H21.5915V99.5ZM19.3944 99.5H21.5915V98.5H19.3944V99.5ZM15.4695 111.172L19.8639 99.1719L18.9249 98.8281L14.5305 110.828L15.4695 111.172ZM19.2113 110.5H15V111.5H19.2113V110.5ZM18.7113 109.125V111H19.7113V109.125H18.7113ZM21.5915 108.625H19.2113V109.625H21.5915V108.625ZM23.6056 108.625H21.5915V109.625H23.6056V108.625ZM24.1056 111V109.125H23.1056V111H24.1056ZM28 110.5H23.6056V111.5H28V110.5ZM22.9554 99.1782L27.5328 111.178L28.4672 110.822L23.8897 98.8218L22.9554 99.1782ZM21.2254 103.062H21.5915V102.062H21.2254V103.062ZM20.4191 106.655L21.7008 102.717L20.7499 102.408L19.4682 106.345L20.4191 106.655ZM23.0563 106H19.9437V107H23.0563V106ZM21.1229 102.737L22.5877 106.674L23.525 106.326L22.0602 102.388L21.1229 102.737Z" fill="black" mask="url(#path-5-inside-2_9_173)"/>
				<path d="M30.6667 101.75H27.25V99.25H37.75V101.75H34.3333H34.0833V102V110.75H30.9167V102V101.75H30.6667Z" fill="#3A8BEB" stroke="black" stroke-width="0.5"/>
				<path d="M42.4083 110.75H39.25V99.25H42.2984V105.562V106.509L42.7658 105.686L46.4197 99.25H49.75V110.75H46.7016V104.625V103.738L46.2384 104.494L42.4083 110.75Z" fill="#3A8BEB" stroke="black" stroke-width="0.5"/>
				<defs>
					<linearGradient id="paint0_linear_9_173" x1="53" y1="66" x2="0" y2="66" gradientUnits="userSpaceOnUse">
						<stop stop-color="#D5DEE7"/>
						<stop offset="0.5" stop-color="#E8EBF2"/>
						<stop offset="1" stop-color="#E2E7ED"/>
					</linearGradient>
				</defs>
			</svg>
