<svg width="27" height="90" viewBox="0 0 27 90" fill="none" xmlns="http://www.w3.org/2000/svg">
				<rect x="0.25" y="89.75" width="89.5" height="26.5" transform="rotate(-90 0.25 89.75)" fill="#BEEBFF" stroke="black" stroke-width="0.5"/>
				<line x1="26" y1="73" x2="15" y2="73" stroke="black"/>
				<line x1="26" y1="63" x2="15" y2="63" stroke="black"/>
				<line x1="26" y1="53" x2="15" y2="53" stroke="black"/>
				<line x1="11.5" y1="50.5" x2="11.5" y2="55.5" stroke="black"/>
				<line x1="11.5" y1="70.5" x2="11.5" y2="75.5" stroke="black"/>
				<path d="M14 62.5C14 64.1569 12.8807 65.5 11.5 65.5C10.1193 65.5 9 64.1569 9 62.5C9 60.8431 10.1193 59.5 11.5 59.5C12.8807 59.5 14 60.8431 14 62.5ZM10.2269 62.5C10.2269 63.3437 10.7969 64.0277 11.5 64.0277C12.2031 64.0277 12.7731 63.3437 12.7731 62.5C12.7731 61.6563 12.2031 60.9723 11.5 60.9723C10.7969 60.9723 10.2269 61.6563 10.2269 62.5Z" fill="black"/>
			</svg>
