<svg width="375" height="253" viewBox="0 0 375 253" fill="none" xmlns="http://www.w3.org/2000/svg">
<rect x="0.25" y="68.25" width="374.5" height="184.5" rx="21.75" fill="url(#paint0_linear_9_127)" stroke="black" stroke-width="0.5"/>
<mask id="path-2-inside-1_9_127" fill="white">
<path fill-rule="evenodd" clip-rule="evenodd" d="M163.493 20.8114L159.5 30.0233V54.4169C157.234 59.7939 153.21 64.2429 148.088 67.0363L145 68.7199H230L226.958 67.7483C220.771 65.7718 216.053 60.724 214.5 54.4169V30.0233L212.308 24.1225C209.793 17.3544 205.995 11.1354 201.123 5.80683L200.774 5.42502C197.149 1.46082 191.837 -0.515392 186.503 0.115682L183.254 0.500037C178.312 1.08466 173.842 3.71291 170.927 7.74655C167.984 11.8201 165.492 16.2006 163.493 20.8114ZM187.5 20.3343C188.881 20.3343 190 19.3014 190 18.0273C190 16.7532 188.881 15.7204 187.5 15.7204C186.119 15.7204 185 16.7532 185 18.0273C185 19.3014 186.119 20.3343 187.5 20.3343Z"/>
</mask>
<path fill-rule="evenodd" clip-rule="evenodd" d="M163.493 20.8114L159.5 30.0233V54.4169C157.234 59.7939 153.21 64.2429 148.088 67.0363L145 68.7199H230L226.958 67.7483C220.771 65.7718 216.053 60.724 214.5 54.4169V30.0233L212.308 24.1225C209.793 17.3544 205.995 11.1354 201.123 5.80683L200.774 5.42502C197.149 1.46082 191.837 -0.515392 186.503 0.115682L183.254 0.500037C178.312 1.08466 173.842 3.71291 170.927 7.74655C167.984 11.8201 165.492 16.2006 163.493 20.8114ZM187.5 20.3343C188.881 20.3343 190 19.3014 190 18.0273C190 16.7532 188.881 15.7204 187.5 15.7204C186.119 15.7204 185 16.7532 185 18.0273C185 19.3014 186.119 20.3343 187.5 20.3343Z" fill="url(#paint1_linear_9_127)"/>
<path d="M159.5 30.0233L159.041 29.8245L159 29.9196V30.0233H159.5ZM163.493 20.8114L163.034 20.6126L163.034 20.6126L163.493 20.8114ZM159.5 54.4169L159.961 54.6111L160 54.518V54.4169H159.5ZM148.088 67.0363L147.848 66.5974L147.848 66.5974L148.088 67.0363ZM145 68.7199L144.761 68.2809L145 69.2199V68.7199ZM230 68.7199V69.2199L230.152 68.2436L230 68.7199ZM226.958 67.7483L227.11 67.272L227.11 67.272L226.958 67.7483ZM214.5 54.4169H214V54.4776L214.015 54.5365L214.5 54.4169ZM214.5 30.0233H215V29.9335L214.969 29.8492L214.5 30.0233ZM212.308 24.1225L212.776 23.9484L212.776 23.9484L212.308 24.1225ZM201.123 5.80683L200.754 6.14423L200.754 6.14423L201.123 5.80683ZM200.774 5.42502L201.143 5.08762L201.143 5.08762L200.774 5.42502ZM186.503 0.115682L186.562 0.612219L186.562 0.612219L186.503 0.115682ZM183.254 0.500037L183.195 0.00349959L183.195 0.0034996L183.254 0.500037ZM170.927 7.74655L170.522 7.45374L170.522 7.45374L170.927 7.74655ZM159.959 30.2222L163.952 21.0103L163.034 20.6126L159.041 29.8245L159.959 30.2222ZM160 54.4169V30.0233H159V54.4169H160ZM148.327 67.4753C153.549 64.6277 157.651 60.0924 159.961 54.6111L159.039 54.2227C156.817 59.4954 152.872 63.8582 147.848 66.5974L148.327 67.4753ZM145.239 69.1589L148.327 67.4753L147.848 66.5974L144.761 68.2809L145.239 69.1589ZM230 68.2199H145V69.2199H230V68.2199ZM226.806 68.2246L229.848 69.1962L230.152 68.2436L227.11 67.272L226.806 68.2246ZM214.015 54.5365C215.609 61.0123 220.453 66.1952 226.806 68.2246L227.11 67.272C221.088 65.3484 216.497 60.4356 214.985 54.2973L214.015 54.5365ZM214 30.0233V54.4169H215V30.0233H214ZM211.839 24.2967L214.031 30.1975L214.969 29.8492L212.776 23.9484L211.839 24.2967ZM200.754 6.14423C205.583 11.4253 209.347 17.5889 211.839 24.2967L212.776 23.9484C210.239 17.1199 206.408 10.8455 201.492 5.46943L200.754 6.14423ZM200.405 5.76242L200.754 6.14423L201.492 5.46943L201.143 5.08762L200.405 5.76242ZM186.562 0.612219C191.736 6.04177e-05 196.889 1.91704 200.405 5.76242L201.143 5.08762C197.409 1.00461 191.938 -1.03084 186.444 -0.380855L186.562 0.612219ZM183.313 0.996574L186.562 0.612219L186.444 -0.380855L183.195 0.00349959L183.313 0.996574ZM171.333 8.03936C174.165 4.11912 178.51 1.56477 183.313 0.996574L183.195 0.0034996C178.115 0.604563 173.518 3.3067 170.522 7.45374L171.333 8.03936ZM163.952 21.0103C165.936 16.4326 168.411 12.0836 171.333 8.03936L170.522 7.45374C167.558 11.5565 165.047 15.9686 163.034 20.6126L163.952 21.0103ZM189.5 18.0273C189.5 18.9882 188.643 19.8343 187.5 19.8343V20.8343C189.118 20.8343 190.5 19.6146 190.5 18.0273H189.5ZM187.5 16.2204C188.643 16.2204 189.5 17.0665 189.5 18.0273H190.5C190.5 16.44 189.118 15.2204 187.5 15.2204V16.2204ZM185.5 18.0273C185.5 17.0665 186.357 16.2204 187.5 16.2204V15.2204C185.882 15.2204 184.5 16.44 184.5 18.0273H185.5ZM187.5 19.8343C186.357 19.8343 185.5 18.9882 185.5 18.0273H184.5C184.5 19.6146 185.882 20.8343 187.5 20.8343V19.8343Z" fill="black" mask="url(#path-2-inside-1_9_127)"/>
<defs>
<linearGradient id="paint0_linear_9_127" x1="0" y1="160.5" x2="375" y2="160.5" gradientUnits="userSpaceOnUse">
<stop stop-color="#D5DEE7"/>
<stop offset="0.5" stop-color="#E8EBF2"/>
<stop offset="1" stop-color="#E2E7ED"/>
</linearGradient>
<linearGradient id="paint1_linear_9_127" x1="159.5" y1="41.5843" x2="214.5" y2="41.5843" gradientUnits="userSpaceOnUse">
<stop stop-color="#D5DEE7"/>
<stop offset="0.5" stop-color="#E8EBF2"/>
<stop offset="1" stop-color="#E2E7ED"/>
</linearGradient>
</defs>
</svg>
